<svg width="48" height="48" viewBox="0 0 48 48" fill="none" xmlns="http://www.w3.org/2000/svg">
<g clip-path="url(#clip0_3380_35426)">
<rect width="48" height="48" rx="24" fill="#FBCE13"/>
<path fill-rule="evenodd" clip-rule="evenodd" d="M39.6594 57.6542C40.476 57.6145 40.1476 56.1757 40.089 55.6472C39.4425 53.7172 39.5944 51.6115 39.3402 49.5886C39.1818 47.7001 38.9782 45.8175 38.807 43.9305C38.4708 40.1 36.0561 32.3022 33.3005 31.0481C32.9534 29.5139 31.5197 28.0817 29.7058 28.0817C28.4686 26.6065 26.9794 25.5683 25.0695 25.7779C24.2802 25.8141 23.5147 26.6573 22.7584 26.8202C22.3349 26.879 18.5769 26.7276 17.8241 27.178C17.2998 27.4492 16.8264 27.9504 16.9806 28.5884C17.2266 29.3615 16.4621 28.525 14.8673 29.3501C11.6153 31.3175 13.5586 33.9495 13.6447 34.0311C11.6153 36.8753 9.84159 39.1828 9.0209 42.6593C8.48901 45.2403 8.54888 47.9047 8.10323 50.499C7.94588 51.3985 7.70449 52.2673 7.44328 53.1408C7.16018 54.284 7.02252 57.1334 6.86648 57.1588C6.58224 57.23 7.03075 57.8179 7.33194 57.8183C15.6822 59.2136 24.1641 57.8761 32.5593 57.6576C34.9252 57.5747 37.2937 57.5556 39.6594 57.6542Z" fill="#FBFBFC"/>
<path fill-rule="evenodd" clip-rule="evenodd" d="M22.7689 29.3248C22.7689 30.22 25.8547 33.5464 26.9196 33.327C27.6296 33.1807 28.7022 32.2266 30.1376 30.4646V29.3248L29.8276 28.084C31.5837 28.1463 32.9612 29.5485 33.3005 31.0483C36.0285 32.2898 38.4224 39.9448 38.7963 43.8145L38.807 43.9306C38.9782 45.8176 39.1818 47.7002 39.3402 49.5887C39.5944 51.6116 39.4425 53.7174 40.089 55.6474L40.0928 55.6801C40.1603 56.2328 40.4597 57.6154 39.6594 57.6544C37.2937 57.5557 34.9252 57.5748 32.5593 57.6577C24.1641 57.8762 15.6822 59.2137 7.33194 57.8184C7.03075 57.818 6.58224 57.2301 6.86648 57.1589C7.02252 57.1335 7.16018 54.2841 7.44328 53.1409L7.49702 52.9602C7.73738 52.1474 7.95673 51.3366 8.10323 50.4991C8.54888 47.9048 8.48901 45.2404 9.0209 42.6594C9.84159 39.1829 11.6153 36.8754 13.6447 34.0312C13.5586 33.9496 11.6153 31.3177 14.8673 29.3502C16.4621 28.5251 17.2266 29.3616 16.9806 28.5886C16.8264 27.9505 17.2998 27.4493 17.8241 27.1781C18.5769 26.7277 22.3349 26.8791 22.7584 26.8203C22.9551 26.7779 23.1525 26.6896 23.3507 26.5813L23.3163 26.6966C22.9514 27.9287 22.7689 28.8047 22.7689 29.3248Z" fill="#FBFBFC"/>
<path fill-rule="evenodd" clip-rule="evenodd" d="M27.0033 34.2822C27.0071 34.2437 27.0587 34.2438 27.0627 34.2822L27.1216 34.8555C27.1934 35.5557 27.2624 36.2545 27.3125 36.958C27.3749 37.8351 27.4166 38.7121 27.4367 39.5913C27.5069 42.6532 27.5208 45.7167 27.5267 48.7794C27.9379 48.7507 28.3491 48.723 28.7605 48.6963C29.0397 48.6782 29.3188 48.6607 29.598 48.6436L30.3099 48.6001L30.6029 48.582C30.801 48.5696 31.026 48.5194 31.1644 48.6961C31.2199 48.7669 31.2477 48.8588 31.196 48.9428C31.0768 49.1365 30.8937 49.1297 30.6866 49.1381C30.4912 49.1461 30.2959 49.1539 30.1005 49.1615C29.6818 49.1778 29.2631 49.1933 28.8443 49.2051C28.4048 49.2176 27.9655 49.2276 27.5261 49.2352C27.5217 50.5281 27.4686 51.8194 27.4112 53.1109L27.3852 53.6921C27.3149 55.2638 27.2393 56.8369 27.132 58.4065C27.1231 58.535 26.9427 58.5348 26.9339 58.4065C26.813 56.6389 26.7332 54.8675 26.6541 53.0975C26.5967 51.8141 26.5634 50.5305 26.5475 49.2466C26.4894 49.247 26.4313 49.2478 26.3733 49.248C24.7242 49.2553 23.0756 49.2625 21.4266 49.2469C21.4293 49.2502 21.4321 49.2535 21.4339 49.2578C21.5532 49.5416 21.5646 49.9037 21.5616 50.2083C21.5583 50.5575 21.5116 50.9026 21.4318 51.2422C21.1456 52.459 20.4077 53.5489 19.5671 54.4499L19.5397 54.4793C19.3414 54.6903 19.114 54.9023 18.9922 55.1711C18.8679 55.4455 18.8247 55.7666 18.7634 56.0615L18.7562 56.0954L18.5163 57.2116C18.4401 57.5662 18.4184 58.0833 18.1398 58.3391C17.8799 58.5778 17.5355 58.4531 17.4132 58.1458C17.3177 57.906 17.4128 57.6426 17.4694 57.4028L17.9127 55.5258C17.9855 55.2197 18.0651 54.9116 18.2223 54.6366C18.3833 54.3549 18.6194 54.1508 18.8603 53.9419C19.3164 53.5463 19.7352 53.0934 20.0893 52.6031C20.4433 52.1129 20.7458 51.5726 20.958 51.0045C21.0642 50.72 21.1512 50.4246 21.2113 50.1267C21.2684 49.844 21.2679 49.5513 21.3289 49.2717C21.3331 49.2523 21.3493 49.2391 21.3678 49.2332C21.3634 49.2207 21.3701 49.2039 21.3875 49.2028L22.7361 49.1155C23.9349 49.0376 25.1337 48.9577 26.3314 48.8664L26.543 48.851C26.5266 47.138 26.5405 45.4247 26.5713 43.7111C26.5994 42.1397 26.6 40.5679 26.6464 38.9967C26.6695 38.2169 26.7192 37.4389 26.7745 36.6607C26.8312 35.8648 26.9218 35.0757 27.0033 34.2822ZM14.3402 43.3936C14.3259 43.3064 14.4348 43.2523 14.4851 43.3321C15.0593 44.2439 15.3362 45.2343 15.4529 46.3014C15.556 47.2431 15.5256 48.1984 15.4743 49.1426C15.4195 50.1496 15.3557 51.1564 15.291 52.1629L15.1918 53.7064L14.9427 57.5758C14.9249 57.8526 14.8625 58.1043 14.6259 58.233C14.596 58.2582 14.5648 58.2808 14.5284 58.3003C14.4006 58.3692 14.231 58.3344 14.1571 58.2023L14.1868 58.2219C14.2126 58.2383 14.1836 58.2154 14.0998 58.1534L14.0287 58.0607C13.977 57.9825 13.944 57.9056 13.9307 57.8126C13.9101 57.6681 13.9368 57.5095 13.9462 57.3643L14.1095 54.827C14.2364 52.8545 14.3847 50.8825 14.4965 48.909C14.5485 47.9892 14.585 47.0685 14.5603 46.1471C14.5357 45.2308 14.4894 44.2989 14.3402 43.3936ZM19.3081 26.4084L19.34 26.403C20.4806 26.2121 21.7209 26.2479 22.7634 26.8017C22.772 26.8063 22.7681 26.8207 22.7584 26.8203L22.4229 26.8068C21.3606 26.7649 20.3017 26.7401 19.2573 26.9915L19.1504 27.0174C18.7743 27.1099 18.3815 27.223 18.0794 27.4732C17.7906 27.7124 17.6468 28.0814 17.5086 28.4211L17.4901 28.4659C17.3498 28.8014 17.1722 29.1196 16.8648 29.3294C16.4665 29.6011 15.9876 29.5678 15.531 29.6047C14.727 29.6698 14.0696 30.2568 13.7426 30.975C13.5445 31.4099 13.4601 31.8975 13.4433 32.3731C13.4348 32.6153 13.4335 32.8669 13.4656 33.1074C13.4758 33.1843 13.5702 33.4645 13.6183 33.4578C13.7253 33.4428 13.823 33.499 13.8564 33.5851C14.1205 33.3281 14.3923 33.0784 14.6728 32.8377C15.3721 32.2378 16.1253 31.6942 16.9184 31.227C17.5238 30.8704 18.1623 30.5171 18.8236 30.25C18.7712 30.2489 18.7195 30.2594 18.6695 30.2856C18.6476 30.2971 18.6259 30.2694 18.6431 30.2511C18.8514 30.0304 19.1009 29.999 19.3524 30.0579C19.406 30.0407 19.4597 30.024 19.5137 30.0082C19.5405 30.0003 19.5538 30.0376 19.532 30.052L19.4702 30.0917C19.7445 30.1843 20.0139 30.3663 20.2271 30.5099C20.8397 30.9223 21.3789 31.4264 21.9255 31.9212L22.0249 32.0108C22.506 32.4436 22.9994 32.8641 23.546 33.2113C23.8322 33.393 24.1327 33.561 24.448 33.6861C24.7184 33.7934 25.1586 33.8609 25.2852 34.1488C25.3978 34.2865 25.3508 34.4623 25.2189 34.555C24.9966 34.8015 24.5518 34.6423 24.2869 34.5396C23.9675 34.4158 23.6581 34.2671 23.363 34.0926C22.7901 33.7538 22.2618 33.3325 21.7697 32.8844C21.2558 32.4164 20.771 31.9192 20.2712 31.4365C20.0546 31.2273 19.843 31.0133 19.6261 30.8044L19.5172 30.7005C19.4065 30.5959 19.2487 30.4329 19.0801 30.3342C18.7624 30.5251 18.4398 30.7081 18.125 30.904C17.6855 31.1773 17.2589 31.4704 16.839 31.7731C16.0305 32.3558 15.2643 33.0085 14.5531 33.7081C13.2486 34.991 12.1373 36.4561 11.1664 38.0073L11.0927 38.1255C10.541 39.0135 10.0193 39.93 9.64936 40.9111C9.24233 41.9907 9.04437 43.126 8.93684 44.2721C8.83011 45.4099 8.79411 46.5534 8.67482 47.6902C8.5525 48.856 8.31149 49.9961 8.03734 51.1341L7.97196 51.4039C7.72391 52.4231 7.46788 53.4422 7.34037 54.4854C7.2723 55.0427 7.23136 55.6075 7.24061 56.1693C7.24991 56.7343 7.33805 57.2869 7.40916 57.8459C7.43642 58.0601 7.22718 58.2389 7.03995 58.2673C6.82463 58.2998 6.63964 58.1615 6.57271 57.96C6.36406 57.3318 6.32616 56.6375 6.33271 55.9782C6.3393 55.3089 6.42411 54.644 6.54343 53.9862C6.77811 52.6924 7.14026 51.4253 7.44322 50.1469C7.71022 49.0202 7.88942 47.8915 7.98601 46.7372C8.08627 45.5396 8.14632 44.3381 8.32923 43.1491C8.50978 41.9754 8.8495 40.8543 9.36182 39.784C9.8283 38.8096 10.4098 37.8924 11.0194 37.0033C11.7598 35.9238 12.5728 34.8965 13.4817 33.9606C13.4001 33.957 13.3162 33.9304 13.2393 33.8821C13.0037 33.7341 12.894 33.4446 12.8603 33.1803C12.7814 32.562 12.8005 31.9164 12.9583 31.3119C13.213 30.3367 13.8739 29.4702 14.8318 29.1186C15.0783 29.0282 15.3404 28.9951 15.6017 28.9886C15.8497 28.9824 16.1205 29.015 16.3597 28.9358C16.7405 28.8097 16.9038 28.3579 17.0467 28.0155L17.0533 27.9997C17.2367 27.5633 17.4567 27.1893 17.8538 26.9168C18.2775 26.626 18.8083 26.4938 19.3081 26.4084ZM30.1461 28.1343C30.4888 28.0145 30.9174 28.1232 31.2525 28.2278C31.626 28.3444 31.9711 28.5592 32.2669 28.8143C32.5791 29.0833 32.837 29.4155 33.0193 29.7865L33.0367 29.8223C33.2031 30.1665 33.3927 30.639 33.3088 31.0172C33.3064 31.0279 33.3036 31.0382 33.3005 31.0482C33.9806 31.3855 34.6086 31.8079 35.1555 32.3432C35.7924 32.9666 36.3316 33.6759 36.788 34.4422C38.6004 37.4858 38.9194 41.1412 39.1334 44.6122L39.1868 45.4923C39.303 47.3927 39.4391 49.2886 39.7924 51.1628L39.8182 51.2981C40.1959 53.2604 40.7365 55.2377 40.6818 57.2507C40.6653 57.8538 39.7804 57.8497 39.7548 57.2507C39.6582 54.996 39.1359 52.819 38.7822 50.5995C38.1598 46.6947 38.4716 42.669 37.5898 38.8033C37.2438 37.2863 36.7077 35.8147 35.9422 34.4606C35.5641 33.7916 35.1314 33.1452 34.6246 32.5681C34.1886 32.0715 33.7354 31.5936 33.2259 31.1761C33.0631 31.3404 32.7378 31.2567 32.6527 31.0172C32.5943 30.8526 32.6114 30.6601 32.5739 30.4877C32.5391 30.3277 32.4912 30.1691 32.4273 30.0184C32.2999 29.7181 32.113 29.4298 31.8972 29.1867C31.6641 28.924 31.3962 28.7058 31.0964 28.5255C30.7945 28.3441 30.4644 28.2899 30.1461 28.1573C30.1353 28.1529 30.1343 28.1384 30.1461 28.1343ZM31.4777 49.003C31.4782 48.9871 31.4968 48.9796 31.5082 48.9902C31.6284 49.1016 31.701 49.2615 31.7894 49.3985C31.8914 49.5565 31.9985 49.7113 32.1109 49.862C32.3359 50.1641 32.5864 50.4487 32.8389 50.7276C33.0738 50.987 33.3241 51.2355 33.5837 51.4697C33.8651 51.7235 34.1803 51.9499 34.4359 52.2309C34.9692 52.8172 35.0554 53.622 35.1679 54.3776L35.1802 54.4594C35.2489 54.9078 35.3103 55.3575 35.3658 55.8077C35.3927 56.0268 35.4196 56.246 35.4416 56.4656L35.4483 56.5352C35.4679 56.7502 35.4732 56.9682 35.3506 57.1561C35.2194 57.357 34.9211 57.4275 34.7438 57.2348C34.4391 56.9038 34.4962 56.3158 34.4566 55.8899C34.4239 55.5378 34.3867 55.1861 34.3451 54.8349L34.324 54.6594C34.275 54.2599 34.2352 53.8524 34.1444 53.4599C34.0644 53.1141 33.912 52.8532 33.662 52.6028C33.4101 52.3505 33.1483 52.115 32.9158 51.8433C32.6692 51.5552 32.4467 51.2462 32.2462 50.9237C32.0748 50.6479 31.9374 50.3478 31.8115 50.048L31.7906 49.998C31.6689 49.7057 31.4682 49.3251 31.4777 49.003ZM35.8768 36.4448C35.8795 36.404 35.9393 36.4034 35.9402 36.4448C35.9478 36.7955 35.9551 37.1463 35.9623 37.497C36.0204 40.3233 35.9846 43.1563 36.2661 45.9729C36.3988 47.301 36.6433 48.6094 36.9262 49.9125C37.071 50.5793 37.2228 51.2444 37.3671 51.9113C37.5077 52.5612 37.6585 53.2142 37.7701 53.8702C37.8797 54.5149 37.9779 55.1645 38.0219 55.8175L38.0274 55.9027C38.0463 56.219 38.1369 56.6842 37.964 56.9646C37.7766 57.2683 37.418 57.2737 37.2172 56.9838C37.0287 56.7116 37.0756 56.2274 37.0423 55.9027C37.0084 55.5718 36.9726 55.2407 36.932 54.9107C36.8527 54.2668 36.7482 53.6244 36.6395 52.9849C36.4132 51.6532 36.0849 50.3382 35.8425 49.0086C35.5942 47.6462 35.4176 46.274 35.4102 44.8869C35.4028 43.4879 35.5498 42.0917 35.624 40.6959C35.6994 39.2781 35.7851 37.8615 35.8768 36.4448ZM22.6227 27.654C22.6981 27.3985 22.9639 27.2387 23.2233 27.3105C23.461 27.3763 23.6572 27.6669 23.5643 27.9155C23.4629 28.1868 23.2857 28.4181 23.1362 28.6647C22.9983 28.8926 22.797 29.072 22.6564 29.2958L22.8113 29.464C22.8888 29.5479 22.9665 29.6313 23.0451 29.7133L23.3153 29.9952C23.5257 30.2143 23.7375 30.4323 23.9552 30.6438C24.5954 31.2659 25.2458 31.8675 25.9628 32.4002C26.126 32.5214 26.2905 32.642 26.4596 32.7549L26.5227 32.797C26.6387 32.8735 26.7681 32.9487 26.9083 32.9357C27.2488 32.9042 27.5565 32.5399 27.7905 32.3131L27.8028 32.3013C28.3827 31.7455 28.9197 31.1378 29.3892 30.4843C29.4934 30.3392 29.5944 30.1915 29.6926 30.0421C29.4657 29.775 29.5199 29.2537 29.5074 28.9298C29.4985 28.702 29.4979 28.4742 29.4966 28.2463L29.496 28.2003C29.4932 28.0528 29.4866 27.9113 29.5817 27.7899C29.5872 27.7829 29.5987 27.7831 29.6057 27.7868C29.7359 27.8555 29.776 27.9706 29.8316 28.0996L29.8374 28.113C29.905 28.2679 29.9697 28.4242 30.0352 28.58C30.1038 28.7431 30.1666 28.9086 30.2304 29.0737C30.26 29.1504 30.2883 29.2275 30.316 29.305C30.3329 29.3545 30.3503 29.4038 30.3682 29.4529L30.3725 29.4567C30.3961 29.477 30.4162 29.4983 30.4335 29.5204C30.5061 29.557 30.5638 29.6237 30.5909 29.7217C30.6499 29.9349 30.5279 30.1089 30.4191 30.2781C29.9771 30.966 29.4733 31.6214 28.9132 32.216C28.635 32.5114 28.3424 32.7935 28.0378 33.0611L27.9845 33.1075C27.7109 33.3444 27.4137 33.5688 27.0483 33.6243C26.6205 33.6891 26.2724 33.4748 25.945 33.228L25.9123 33.2032C25.602 32.9665 25.2978 32.7215 25.0031 32.4653C24.4023 31.9427 23.8308 31.3817 23.3235 30.7662C22.8301 30.1675 22.3424 29.4981 22.0382 28.7777C22.0197 28.7338 22.0684 28.6879 22.1066 28.7245C22.2552 28.867 22.3981 29.0172 22.5394 29.1693C22.5433 28.9454 22.5023 28.7195 22.5251 28.4942C22.5529 28.2203 22.5449 27.9177 22.6227 27.654Z" fill="black"/>
<path fill-rule="evenodd" clip-rule="evenodd" d="M22.0705 10.3799C28.4749 10.0627 32.8203 15.1504 33.0072 17.1792C33.1369 18.5875 33.0489 20.4658 33.0489 21.7242C33.0489 22.3666 33.3707 24.3191 33.0072 25.2554C32.1982 27.3392 31.2842 28.9715 28.7516 28.9715C26.2191 28.9715 22.3583 27.6493 21.0326 25.9439C20.7905 25.6325 17.7827 23.3532 17.7827 21.5616C17.7827 17.7391 17.5007 10.6063 22.0705 10.3799Z" fill="#FBFBFC"/>
<path fill-rule="evenodd" clip-rule="evenodd" d="M17.7018 6.25127C18.0668 6.13635 18.2998 6.30179 18.4659 6.55811C18.5026 6.55092 18.538 6.55139 18.5775 6.56096C18.5872 6.56335 18.6109 6.57233 18.6287 6.57939C18.6426 6.58522 18.655 6.59229 18.667 6.59978L18.6742 6.59599C18.7015 6.5659 18.7303 6.53845 18.7614 6.51631C18.8312 6.4666 18.9031 6.45213 18.9713 6.46234L19.0029 6.45064C19.2731 6.35581 19.566 6.39982 19.7492 6.63426C19.7846 6.67954 19.8133 6.72998 19.8377 6.78319C19.8927 6.80132 19.9442 6.82754 19.9886 6.8598C20.0198 6.84503 20.0528 6.8326 20.0881 6.82345C20.2874 6.77195 20.4968 6.82056 20.6592 6.94365C20.7383 7.00354 20.7965 7.07854 20.8406 7.16417C20.8908 7.17605 20.9405 7.19742 20.987 7.2261C21.027 7.20606 21.0676 7.18724 21.1092 7.17435C21.2613 7.12727 21.4246 7.10995 21.5829 7.12182C21.9242 7.14732 22.2542 7.53996 22.0262 7.87713L22.0191 7.88733C21.9901 7.92798 21.965 7.96999 21.9416 8.01268C22.0233 8.04848 22.102 8.09636 22.1747 8.15637C22.5301 8.44986 22.5621 8.9023 22.4957 9.32911L22.4928 9.34688H22.4937C22.6826 9.36494 22.8456 9.56366 22.734 9.75057L22.7286 9.75932C22.5775 9.9944 22.4481 10.2541 22.3038 10.5015C21.9044 10.6465 21.5194 10.8251 21.1568 11.0415C20.931 11.2407 20.7159 11.4514 20.5268 11.6858C20.4323 11.8029 20.3456 11.9268 20.2659 12.0552C20.3296 12.0861 20.4085 12.0845 20.4751 12.0224C21.0674 11.4694 21.7831 11.0814 22.5451 10.8213C22.5999 10.8026 22.6359 10.7672 22.6561 10.7254C22.9944 10.6283 23.3387 10.553 23.6863 10.4998C23.7822 10.4078 23.8825 10.3198 23.978 10.2282C24.0998 10.1114 24.2523 10.1131 24.3663 10.1865C24.423 10.1605 24.4809 10.1375 24.5397 10.1169L24.5761 10.1044C24.5913 10.0994 24.6059 10.0935 24.6208 10.0889C25.0288 9.96331 25.4019 10.01 25.8031 10.1132L25.8545 10.1266C26.0416 10.1766 26.1593 10.1686 26.3404 10.1226L26.3608 10.1174C26.5533 10.0668 26.7592 10.0293 26.9559 10.0826C27.1617 10.1383 27.2983 10.2623 27.4385 10.412L27.4525 10.4271C27.518 10.4976 27.5558 10.5053 27.6414 10.5035L27.7332 10.5008C28.0794 10.4912 28.4184 10.5059 28.6778 10.7757C28.7736 10.8755 28.8765 11.0166 28.9382 11.1455L28.9472 11.1647C28.9501 11.171 28.9526 11.1762 28.955 11.1809C28.9921 11.1749 29.05 11.1511 29.0776 11.1457C29.4549 11.072 29.7697 11.1856 30.0121 11.4851C30.065 11.5507 30.1451 11.6794 30.2006 11.7501C30.22 11.7667 30.2384 11.7845 30.2557 11.8032C30.3467 11.8617 30.4756 11.858 30.5776 11.8786C30.8556 11.9343 31.1527 12.0408 31.2941 12.3073C31.3531 12.4185 31.375 12.5402 31.3999 12.6618C31.4934 12.7236 31.5666 12.8127 31.6235 12.9092C31.6926 13.0264 31.722 13.1699 31.8016 13.2805C31.8594 13.3608 31.9478 13.4037 32.0318 13.4529L32.0639 13.4719C32.313 13.6212 32.508 13.787 32.59 14.0797L32.5971 14.1058C32.6104 14.1506 32.6571 14.2786 32.6164 14.2594C32.6514 14.2788 32.7109 14.2857 32.7429 14.2963C32.9156 14.3539 33.0658 14.4469 33.1579 14.6103C33.2279 14.7347 33.2406 14.8643 33.2607 15.0014L33.2692 15.0568C33.2714 15.0702 33.274 15.0857 33.2767 15.1008L33.2794 15.1157L33.2799 15.116C33.3112 15.1296 33.3419 15.1444 33.3721 15.1603C33.5153 15.2452 33.6132 15.3926 33.6132 15.5632C33.6132 15.6461 33.5875 15.7106 33.5501 15.7682C33.5804 15.8143 33.6038 15.8635 33.6215 15.9183C33.6562 16.0252 33.6587 16.1422 33.647 16.2529C33.633 16.3857 33.5991 16.5066 33.5593 16.6334C33.5439 16.6824 33.5377 16.7508 33.5146 16.7975C33.5572 16.8523 33.5827 16.9192 33.5748 16.9853C33.5635 17.0798 33.5207 17.1902 33.4357 17.2432C33.3942 17.4497 33.3048 17.6606 33.2168 17.8294C33.2066 17.849 33.1944 17.8664 33.1809 17.8809C33.1931 18.5547 33.1441 19.2332 33.1407 19.9061C33.1369 20.6386 33.1521 21.3716 33.1775 22.1032C33.2201 23.3158 33.3727 24.5697 33.0173 25.7522C32.7266 26.7201 32.1443 27.5509 31.3635 28.1808C30.5641 28.8253 29.6003 29.1982 28.5769 29.2565C28.0563 29.2858 27.5269 29.2262 27.0232 29.0904L26.9694 29.0757C26.4821 28.9409 25.9177 28.7349 25.5592 28.3741C25.3699 28.1834 25.5613 27.7795 25.8389 27.8906C26.114 28.0008 26.3608 28.1638 26.6337 28.2787C26.8775 28.3813 27.1319 28.4601 27.3896 28.5179C27.9063 28.635 28.4544 28.6606 28.9796 28.5878C30.8759 28.3264 32.3535 26.7401 32.6451 24.8592C32.7258 24.3383 32.7243 23.8088 32.7188 23.2825L32.7128 22.7058C32.7082 22.2233 32.7065 21.7406 32.7241 21.2583C32.7465 20.6378 32.79 20.0176 32.8483 19.3996L32.8787 19.078C32.9148 18.7018 32.9554 18.3226 33.0254 17.9515C32.968 17.9546 32.5156 17.175 32.2645 16.7393C32.1729 16.6661 32.0955 16.5752 32.0657 16.4575C32.0594 16.4329 32.0562 16.4081 32.0543 16.3833C31.9998 16.297 31.9423 16.213 31.8816 16.1314L31.8684 16.1255C31.8582 16.1208 31.8502 16.1169 31.8456 16.1142C31.7132 16.0386 31.6026 15.924 31.5269 15.7912C31.5014 15.7464 31.4805 15.6997 31.4635 15.6519C31.3555 15.5452 31.2426 15.4434 31.124 15.3479C31.1123 15.3386 31.1002 15.3298 31.0885 15.3206C30.9374 15.2638 30.8049 15.1782 30.7082 15.055C30.6678 15.0298 30.6271 15.0051 30.5861 14.9809C30.4629 14.9798 30.3385 14.9509 30.2175 14.9008C29.9961 14.8092 29.8193 14.6282 29.5969 14.5443C29.3616 14.4556 29.1138 14.6571 28.8639 14.6208C28.8001 14.6115 28.7368 14.5919 28.678 14.5636C28.5373 14.7138 28.3879 14.8553 28.2232 14.9792C27.9842 15.1591 27.7398 15.2413 27.4628 15.3226C27.3255 15.4538 27.1718 15.581 26.9864 15.5997C26.5574 15.9451 26.0986 16.2365 25.6158 16.5071C25.5381 16.5506 25.4609 16.5702 25.3877 16.5707C25.2362 16.6665 25.0709 16.7401 24.8963 16.7911C24.8416 16.8071 24.7852 16.8104 24.7297 16.8036L24.5782 16.9279C24.4727 17.0144 24.3602 17.0557 24.2526 17.0584C24.1871 17.1089 24.1192 17.1567 24.0494 17.2027C23.9746 17.252 23.8775 17.2725 23.78 17.2665C23.6311 17.4133 23.4379 17.4287 23.2762 17.3611C23.2539 17.3742 23.2311 17.3866 23.2054 17.3988C23.1705 17.4155 23.1341 17.4295 23.0969 17.4409C22.9282 17.624 22.6814 17.72 22.434 17.6949C22.2492 17.8089 22.0342 17.8682 21.824 17.8549C21.7919 18.0171 21.7654 18.18 21.743 18.3434L21.7407 18.4631C21.7404 18.4825 21.7404 18.4976 21.7406 18.5076L21.7408 18.5115C21.7613 19.0363 21.7726 19.5613 21.7929 20.0861L21.7948 20.1276C21.8179 20.5861 21.9299 21.4221 21.2608 21.4039C21.0115 21.3971 20.7641 21.2122 20.5699 21.0601L20.5426 21.0386C20.5277 21.027 20.5124 21.015 20.4971 21.0028C20.352 20.9839 20.2089 20.9483 20.0624 20.9429C19.8816 20.9365 19.6914 20.9552 19.5152 20.9965C19.2042 21.0693 18.9034 21.2119 18.7006 21.4703C18.6828 21.4928 18.6663 21.5167 18.6507 21.5405C18.6363 21.5894 18.6118 21.6346 18.5793 21.6737C18.3875 22.1083 18.4982 22.6825 18.7103 23.08C18.963 23.5535 19.3628 23.8809 19.8656 24.0458L19.8909 24.0539C20.2344 24.162 20.3658 24.3714 20.5525 24.6625C20.7275 24.9358 20.9282 25.1903 21.1437 25.4321C21.5607 25.8999 22.146 26.286 22.3885 26.878C22.4375 26.9972 22.2972 27.1095 22.1886 27.0789C21.7631 26.9585 21.4648 26.6533 21.1555 26.3498C20.9414 26.1396 20.7356 25.921 20.5424 25.6914C20.5019 25.7102 20.4573 25.7229 20.4109 25.7286C20.206 25.7538 19.9946 25.7434 19.8152 25.6321C19.7325 25.6397 19.6464 25.6108 19.5824 25.5517C19.5237 25.4974 19.4731 25.4387 19.4303 25.3762C19.3653 25.3819 19.3015 25.3836 19.2407 25.3735C19.2113 25.3707 19.1829 25.3629 19.1568 25.3502C19.1084 25.3309 19.0624 25.3012 19.0203 25.2556C18.9348 25.1632 18.9021 25.0327 18.9178 24.9087C18.9009 24.9051 18.8842 24.9007 18.8676 24.8951C18.7539 24.8563 18.6663 24.7793 18.6104 24.6745C18.5103 24.6179 18.4201 24.5412 18.3519 24.4598C18.2688 24.3606 18.2061 24.2489 18.1692 24.1255C18.1312 24.1077 18.0942 24.087 18.0588 24.0629C17.8051 23.8899 17.6598 23.5652 17.7594 23.265L17.7628 23.2556C17.7679 23.2421 17.777 23.2191 17.7882 23.1931C17.7866 23.1719 17.7849 23.1508 17.7838 23.1296L17.7803 23.0656L17.7295 23.0439C17.4759 22.9423 17.3046 22.8052 17.2741 22.5179C17.2678 22.4585 17.2907 22.3979 17.3268 22.3472L17.3266 22.3313C17.3101 22.3227 17.2945 22.3139 17.2806 22.305C17.1424 22.2161 17.0575 22.0568 17.067 21.8919C17.0757 21.7417 17.1584 21.622 17.2512 21.5112L17.2778 21.4801C17.28 21.4776 17.2824 21.4748 17.2851 21.4718L17.2237 21.4523C17.1838 21.4396 17.1473 21.4269 17.1211 21.412C17.0195 21.3547 16.9334 21.2772 16.8803 21.1787C16.8726 21.1665 16.8647 21.1545 16.8576 21.1415C16.789 21.0154 16.7801 20.8539 16.8243 20.7186C16.8295 20.7027 16.8363 20.6877 16.8432 20.6727C16.6565 20.6064 16.5127 20.4693 16.4954 20.2168C16.4886 20.1174 16.5102 20.0185 16.5571 19.9337C16.5467 19.8766 16.5445 19.8175 16.5513 19.759C16.4856 19.6964 16.4345 19.6211 16.4117 19.5292C16.3686 19.3556 16.4475 19.1904 16.5649 19.0389C16.5215 18.9191 16.5192 18.784 16.5688 18.6634C16.5497 18.6032 16.5389 18.5396 16.5383 18.4743C16.537 18.3296 16.5812 18.2087 16.6527 18.106C16.5522 17.9823 16.5045 17.8179 16.5639 17.6638C16.6061 17.5544 16.6543 17.4542 16.7099 17.3614C16.6807 17.2909 16.6637 17.2118 16.6637 17.1233C16.6637 16.9641 16.723 16.838 16.8136 16.7348C16.7743 16.5463 16.8543 16.3167 17.0286 16.2337C17.0943 16.2024 17.1823 16.1697 17.2792 16.1442C17.3156 16.0297 17.3536 15.9157 17.3937 15.8025C17.4568 15.6243 17.5248 15.4485 17.5968 15.2748C17.5553 15.3114 17.5119 15.3455 17.4669 15.3764C17.3247 15.5585 17.1362 15.7162 16.9778 15.8106C16.6638 15.9977 16.3046 15.8867 16.1496 15.5736C16.0039 15.6832 15.8291 15.7481 15.6425 15.7259C15.431 15.7007 15.2376 15.5627 15.1848 15.3475C15.1771 15.3163 15.1725 15.2827 15.1721 15.2488C15.0508 15.3358 14.9238 15.4159 14.7846 15.4617C14.6073 15.5201 14.4262 15.38 14.4028 15.2055C14.3936 15.1363 14.4064 15.0752 14.4338 15.0236L14.4165 15.0167C14.4136 15.0155 14.4107 15.0142 14.4079 15.0129C14.3149 14.969 14.2427 14.8886 14.2083 14.7958C14.007 14.8743 13.7764 14.7823 13.7125 14.5592C13.6365 14.294 13.6319 14.0255 13.6914 13.7672C13.478 13.6109 13.339 13.3483 13.3154 13.0738C13.2981 12.8767 13.3448 12.6948 13.427 12.5266C13.2252 12.4506 13.1559 12.1841 13.2518 11.9922C13.1244 11.9187 13.0413 11.763 13.0394 11.6113C12.9825 11.5245 12.9643 11.4127 13.0115 11.2874C13.0738 11.1223 13.2005 10.9842 13.3457 10.8758C13.2824 10.7648 13.2353 10.6438 13.2061 10.5187C13.0859 10.4832 12.9888 10.3853 12.9691 10.2381C12.9443 10.0536 13.0648 9.89727 13.2271 9.85598C13.2451 9.7998 13.2671 9.74485 13.2942 9.69207C13.214 9.50053 13.2258 9.25835 13.3293 9.04893C13.421 8.86378 13.5702 8.75056 13.7497 8.67224C13.7041 8.51476 13.7645 8.3577 13.9166 8.24065C14.1023 8.09759 14.306 7.98825 14.52 7.91099C14.501 7.65463 14.6074 7.3921 14.8588 7.30272C14.9261 7.27884 14.996 7.27003 15.0672 7.27033C15.1188 7.15724 15.2049 7.0653 15.3174 6.98392C15.4875 6.86082 15.8055 6.93602 15.8998 7.12906L15.9044 7.13898C15.9093 7.14992 15.9145 7.15992 15.9194 7.17052C15.9384 7.07679 15.9829 6.98826 16.0543 6.91569C16.2329 6.73424 16.4215 6.73083 16.603 6.80843C16.6363 6.72526 16.6766 6.64617 16.7256 6.57386C16.9035 6.3115 17.1975 6.27808 17.4127 6.42016C17.499 6.34376 17.5953 6.28485 17.7018 6.25127ZM18.974 22.0283C19.3323 21.887 19.767 21.9287 20.1211 22.0645L20.1471 22.0746C20.4598 22.1992 20.9679 22.4762 21.0292 22.8306C21.0608 23.0141 20.8876 23.1728 20.7118 23.0762C20.5589 22.9923 20.4731 22.8234 20.3514 22.7008C20.231 22.5795 20.0962 22.4821 19.9492 22.3965C19.6424 22.2181 19.32 22.1487 18.974 22.0973C18.9351 22.0917 18.9457 22.0393 18.974 22.0283Z" fill="black"/>
<path fill-rule="evenodd" clip-rule="evenodd" d="M28.6663 25.8331C28.3822 25.7164 28.1288 25.5217 27.9435 25.273C27.8791 25.1865 27.8624 25.0952 27.8759 25.0117C27.8911 24.9178 27.9463 24.8327 28.0215 24.7756C28.0969 24.7183 28.1913 24.6901 28.2825 24.7045C28.3618 24.717 28.4407 24.7607 28.5032 24.8514L28.5162 24.8696C28.6264 25.0197 28.7699 25.1428 28.9335 25.2222C29.0911 25.2988 29.2674 25.3345 29.4499 25.3137C29.7974 25.2742 30.0369 25.0849 30.2914 24.8278C30.323 24.7953 30.3546 24.7619 30.3863 24.7278C30.4063 24.697 30.4341 24.6772 30.465 24.6668C30.4993 24.6553 30.5381 24.6559 30.5736 24.6684C30.6078 24.6804 30.6385 24.7033 30.659 24.7336C30.6785 24.7625 30.6896 24.7982 30.686 24.8392C30.6627 25.1056 30.5244 25.3433 30.328 25.53C30.1099 25.7374 29.8207 25.8808 29.5485 25.9311C29.2486 25.9866 28.943 25.9468 28.6663 25.8331ZM29.69 21.7232C30.0091 21.9186 30.4952 22.3741 30.152 22.8585C29.7479 23.2856 29.1662 22.7959 28.8796 22.5744C28.6137 22.4028 28.3151 22.8442 28.5617 23.0446C30.6331 24.5895 31.4738 21.7743 29.8514 21.4935C29.6727 21.4626 29.6064 21.6628 29.69 21.7232ZM25.978 19.9261C26.0132 19.4853 26.6797 19.3852 26.746 19.8214C26.8053 20.2122 26.7354 20.5711 26.5607 20.9229C26.3938 21.259 25.9742 21.1022 25.9425 20.7962C25.8999 20.3859 25.956 20.2004 25.978 19.9261ZM31.0511 19.731C31.144 19.6084 31.2782 19.5247 31.4389 19.572C31.9411 19.7198 31.7931 20.438 31.6167 20.7876C31.5209 20.9774 31.2111 21.0256 31.0711 20.8584C30.8429 20.5858 30.7337 20.0415 31.0237 19.773C31.0316 19.7591 31.0403 19.7451 31.0511 19.731ZM26.5537 17.9973L26.633 17.9834C26.8784 17.9406 27.1835 17.8995 27.3571 18.0983C27.4492 18.2036 27.4809 18.3995 27.3571 18.5004C27.1394 18.6779 26.8987 18.6091 26.6379 18.6241C26.4229 18.6366 26.2163 18.6724 26.0092 18.732C25.5549 18.8628 25.1847 19.1016 24.7967 19.3638C24.7458 19.3982 24.6938 19.3326 24.7181 19.2846C24.9421 18.8427 25.3761 18.4797 25.8109 18.2584C26.043 18.1403 26.2969 18.0423 26.5537 17.9973ZM30.5933 17.7994L30.654 17.8119C31.3147 17.951 32.1732 18.2289 32.4861 18.8827C32.498 18.9751 32.4854 18.9949 32.4752 19.0079L32.4717 19.0122C32.4633 19.0232 32.4566 19.0385 32.4168 19.0511C32.4058 19.0484 32.3946 19.0456 32.3833 19.0426C32.2399 19.0048 32.1264 18.9526 32.0166 18.8985L31.8975 18.8394C31.7593 18.7711 31.6199 18.7053 31.4721 18.6568C31.1568 18.5532 30.8325 18.4802 30.5032 18.4412C30.4318 18.4328 30.3631 18.4085 30.3088 18.3669C30.2574 18.3275 30.218 18.2728 30.2001 18.2002C30.1769 18.1061 30.1835 18.0349 30.2336 17.9501C30.2713 17.8864 30.3252 17.8423 30.387 17.8169C30.4501 17.7911 30.5219 17.785 30.5933 17.7994Z" fill="black"/>
</g>
<defs>
<clipPath id="clip0_3380_35426">
<rect width="48" height="48" rx="24" fill="white"/>
</clipPath>
</defs>
</svg>
