<svg width="48" height="48" viewBox="0 0 48 48" fill="none" xmlns="http://www.w3.org/2000/svg">
<g clip-path="url(#clip0_3380_35128)">
<rect width="48" height="48" rx="24" fill="#FBCE13"/>
<path fill-rule="evenodd" clip-rule="evenodd" d="M38.5592 54.1244C38.4567 53.1764 38.3935 52.2218 38.3573 51.269C38.3211 50.3174 38.3684 49.3541 38.3892 48.4021C38.4316 46.4654 38.5005 44.5242 38.3456 42.5905C38.1993 40.763 37.8633 38.9482 37.3332 37.1923C37.075 36.3372 36.8029 35.4476 36.3783 34.6574C35.9514 33.863 35.275 33.3339 34.5321 32.8488C33.7412 32.3322 32.9566 31.8059 32.1687 31.2846C31.5074 30.847 30.3172 30.3376 29.7746 29.7526C29.2036 29.137 29.0963 27.6111 28.7161 26.8818C28.3458 26.1715 27.2975 25.7082 26.4904 25.7082C25.1545 25.7082 24.1423 25.6402 23.0437 26.8708C22.4957 27.4848 22.9318 28.1054 22.3573 28.6947C21.8291 29.2365 20.4784 29.7933 19.7976 30.1077C18.9823 30.4842 18.1464 30.8167 17.2984 31.1128C16.4333 31.4149 15.5465 31.64 14.6765 31.9251C13.8427 32.1984 12.7539 33.3248 12.1066 33.9207C11.5048 34.4749 11.3554 34.4128 10.8979 35.0859C9.89378 36.5632 8.88856 38.0574 8.08896 39.6569C7.69068 40.4536 7.30503 41.2917 7.16052 42.1765C7.00638 43.1203 7.15921 44.0323 7.40918 44.946C7.66364 45.8759 8.47165 46.7612 8.73489 47.6887C8.8562 48.1162 8.43979 48.5826 8.63133 48.9855C8.72699 49.1866 8.84745 49.3657 8.98461 49.541C9.09028 49.6761 9.5024 49.6461 9.55572 49.8115C9.60959 49.9784 9.31144 50.3249 9.307 50.4977C9.30071 50.7449 9.29082 50.9922 9.28266 51.2395L9.23449 52.7013C9.20285 53.662 9.1712 54.6227 9.13955 55.5833C9.1292 55.8969 9.11411 56.2033 9.18962 56.5008C9.16237 56.4757 9.13647 56.4483 9.1128 56.4175C9.04355 56.3275 8.89668 56.4038 8.95545 56.5091C9.05357 56.6849 9.19465 56.8086 9.36041 56.8974C9.55304 57.1802 38.7259 57.8118 38.8694 56.9851C38.95 56.5212 38.8034 56.0246 38.7448 55.5637C38.6838 55.0837 38.6113 54.6057 38.5592 54.1244Z" fill="#FBFBFC"/>
<path fill-rule="evenodd" clip-rule="evenodd" d="M8.92552 42.1779C8.99688 41.9743 9.32333 42.0624 9.25146 42.2673C8.88199 43.3211 9.14409 44.4679 9.54352 45.4738C9.62367 45.6756 9.29663 45.7624 9.21757 45.5633C8.7974 44.5051 8.53746 43.2846 8.92552 42.1779ZM11.4028 48.1971C12.4448 48.3431 13.4876 48.4331 14.5367 48.5059C14.5836 48.5093 14.6242 48.5022 14.6593 48.487C14.628 48.9654 14.6027 49.4442 14.5828 49.923C14.2967 49.915 14.0048 49.9339 13.7212 49.9263C13.3507 49.9162 12.9805 49.8977 12.6108 49.8696C11.8951 49.8157 11.1805 49.7299 10.4728 49.6112C10.2083 49.567 9.87238 49.5401 9.57111 49.4526C9.28632 49.3697 9.0328 49.2325 8.8997 48.9742C8.78646 48.7554 8.76576 48.4874 8.76576 48.2455C8.76576 48.0789 8.79449 47.9097 8.81181 47.7418C8.83336 47.7267 8.8528 47.7086 8.86843 47.6884C9.1828 47.7873 9.50899 47.8567 9.82843 47.924C10.3486 48.0343 10.8763 48.1235 11.4028 48.1971ZM10.8151 44.3068C10.8209 44.6284 10.9102 44.9205 11.0841 45.1912C11.2018 45.3745 10.9091 45.5431 10.7922 45.3611C10.5876 45.0423 10.4839 44.6845 10.4771 44.3068C10.4732 44.0897 10.8112 44.0905 10.8151 44.3068ZM37.5248 47.815C37.6659 47.8229 37.8078 47.8277 37.9493 47.8352C38.0741 47.9415 38.247 47.996 38.4048 47.9621C38.4102 47.9757 38.4152 47.991 38.4197 48.0086C38.4476 48.1167 38.4615 48.2328 38.4776 48.3431C38.4936 48.4516 38.5059 48.5611 38.5143 48.6705C38.5186 48.7255 38.5452 48.8501 38.5114 48.8981C38.481 48.9414 38.4138 48.9376 38.3673 48.9431C38.2422 48.9565 38.1155 48.9629 37.9896 48.9734C37.7517 48.994 37.5138 49.0146 37.2763 49.0352C37.0435 49.0554 36.7879 49.0491 36.5601 49.1101C36.5212 48.6553 36.4858 48.2005 36.4528 47.7452C36.8056 47.797 37.1745 47.7957 37.5248 47.815ZM7.94223 47.0607C8.08421 47.3337 8.21519 47.6021 8.48688 47.7662C8.52237 47.7873 8.56209 47.7986 8.60266 47.8016C8.57223 47.9316 8.55322 48.0645 8.53632 48.1874C8.49914 48.458 8.49111 48.7377 8.55914 49.0045C8.62547 49.2641 8.73533 49.496 8.95083 49.6622C9.05097 49.7396 9.1604 49.7984 9.27533 49.8451C9.2559 49.8994 9.24449 49.9533 9.2504 50.0126C9.22294 50.1502 9.20477 50.2903 9.18491 50.4245C9.14139 50.7224 9.09787 51.0207 9.06364 51.3203C8.99519 51.916 8.94153 52.5118 8.89632 53.1097C8.85111 53.7059 8.81857 54.303 8.79153 54.9004C8.77759 55.2059 8.76533 55.5113 8.75392 55.8172C8.74252 56.1315 8.69139 56.4529 8.83083 56.7445C8.94322 56.9801 9.32308 56.9666 9.4397 56.7445C9.58759 56.4622 9.54406 56.1268 9.54787 55.8172C9.55167 55.5256 9.55674 55.2336 9.56308 54.942C9.57575 54.345 9.59435 53.7484 9.60914 53.1514C9.6235 52.5686 9.64125 51.9863 9.65308 51.4036C9.65899 51.0985 9.65942 50.7935 9.66111 50.4885C9.66195 50.3193 9.66914 50.1389 9.65646 49.9625C9.76209 49.9873 9.86857 50.0084 9.97378 50.0298C10.777 50.1939 11.5887 50.3134 12.4055 50.3875C12.8158 50.4245 13.2273 50.4506 13.6389 50.4654C13.9414 50.4762 14.2549 50.4973 14.5621 50.486C14.538 51.2163 14.527 51.9472 14.5283 52.678C14.5291 53.2052 14.5363 53.7324 14.5494 54.2596C14.5566 54.5368 14.5625 54.8141 14.571 55.0914C14.5748 55.216 14.5748 55.3417 14.5832 55.4658C14.5858 55.5046 14.5912 55.542 14.5984 55.5791C14.5705 55.6577 14.5473 55.7355 14.5283 55.8084C14.4353 56.1618 14.4353 56.5013 14.4767 56.8615C14.5122 57.1669 14.7704 57.4501 15.1114 57.3428C15.1667 57.3255 15.2221 57.3074 15.277 57.2889C15.779 57.3457 16.2839 57.3588 16.7931 57.3685C17.5372 57.3828 18.2817 57.3874 19.0262 57.3912C20.4865 57.3988 21.9472 57.4026 23.4079 57.4067C26.3432 57.4152 29.2786 57.4231 32.2139 57.4316C33.0286 57.4341 33.8432 57.4362 34.6579 57.4388C35.0796 57.44 35.5004 57.4404 35.9217 57.4564C36.1181 57.464 36.315 57.4745 36.5115 57.4775C36.7393 57.4813 36.9408 57.416 37.1584 57.3567C37.2814 57.3226 37.33 57.1997 37.3038 57.0958C37.5007 57.1425 37.7394 57.0433 37.8066 56.8224C37.8556 56.662 37.8374 56.4883 37.7643 56.3397V56.3393C37.6232 55.452 37.4441 54.5688 37.3034 53.6811C37.1491 52.7087 37.0008 51.7343 36.8703 50.7582C36.7722 50.021 36.6915 50.5436 36.6218 49.8031C36.9256 49.8266 37.2691 49.7345 37.57 49.6954C37.7859 49.6676 38.0035 49.6453 38.2198 49.6158C38.2038 49.8329 38.2084 50.0542 38.2025 50.2625C38.1911 50.6761 38.1962 51.088 38.2067 51.5016C38.227 52.2998 38.2722 51.8353 38.3445 52.63C38.4176 53.4307 38.5072 54.2284 38.6157 55.0254C38.6715 55.4356 38.7311 55.8454 38.7941 56.2547C38.8232 56.4458 38.8532 56.6364 38.8841 56.8274C38.9208 57.0525 38.9327 57.2658 39.1021 57.4349C39.231 57.5633 39.4942 57.5523 39.5796 57.3735C39.6877 57.1476 39.6387 56.954 39.5986 56.7168C39.566 56.5261 39.5348 56.3355 39.5039 56.145C39.438 55.7364 39.3755 55.3274 39.3167 54.9181C39.2035 54.1292 39.0966 53.339 39.0011 52.548C38.9048 51.7507 38.805 52.2164 38.7104 51.4192C38.6627 51.0169 38.6149 50.6155 38.5591 50.2146C38.5308 50.0084 38.5131 49.7888 38.4759 49.5763C38.4877 49.5746 38.4996 49.5725 38.5114 49.5704C38.7683 49.5237 38.9876 49.3794 39.0522 49.116C39.1139 48.864 39.0404 48.5741 38.9884 48.3267C38.9441 48.116 38.904 47.847 38.7677 47.6665C39.2477 47.0577 39.5599 46.2916 39.7591 45.5551C39.976 44.7527 40.0668 43.9151 40.086 43.0859C40.1084 42.1252 40.0356 41.1702 39.8703 40.2309C39.8664 40.0318 39.8572 39.8329 39.8424 39.6341C39.697 37.6836 39.0869 35.375 37.1525 34.4636C37.1449 34.4598 37.1369 34.4564 37.1288 34.4531C36.9772 34.2726 36.7879 34.1102 36.6349 33.9583C36.3641 33.689 36.081 33.4315 35.781 33.1942C35.1869 32.7243 34.5353 32.349 33.858 32.0111C33.1731 31.669 32.478 31.348 31.8087 30.9748C31.2256 30.6491 30.7008 30.257 30.2027 29.8144C29.6428 29.3166 29.2443 28.6455 29.088 27.913C29.08 27.8748 29.0229 27.8853 29.0221 27.9219C28.9811 29.2645 29.8912 30.451 30.9387 31.2016C32.1911 32.0982 33.7034 32.5227 34.9735 33.392C35.2891 33.6078 35.5845 33.8514 35.8655 34.1102C35.4349 34.0664 34.9967 34.0942 34.5932 34.2128C34.4343 34.2031 34.2746 34.2002 34.1153 34.1926C33.7511 34.1745 33.3865 34.1578 33.0218 34.1417C32.2786 34.1089 31.5349 34.0791 30.7912 34.053C29.3322 34.0016 27.8728 33.9629 26.4134 33.9373C23.4805 33.8855 20.5439 33.8754 17.6115 33.96C16.8163 33.9827 12.6349 33.8249 12.2479 33.8695C12.817 33.3789 13.4415 32.9784 14.1281 32.6489C14.9872 32.2379 15.8749 31.9635 16.7922 31.7128C18.6814 31.1965 20.6432 30.6988 22.155 29.3873C22.5307 29.0612 22.8645 28.6864 23.1379 28.2711C23.399 27.8748 23.6893 27.3673 23.6965 26.8839C23.7015 26.5406 23.2215 26.4156 23.0508 26.7097C22.9448 26.8919 22.8924 27.0917 22.8058 27.2828C22.7196 27.4721 22.6173 27.6547 22.5036 27.8293C22.2801 28.1727 22.0029 28.4789 21.7012 28.7554C21.0581 29.3452 20.279 29.7773 19.4728 30.1043C17.6424 30.846 15.6404 31.1591 13.9059 32.1369C13.147 32.5648 12.4207 33.1551 11.9648 33.9082C11.8912 33.9196 11.8181 33.933 11.7451 33.9482C11.7996 33.8796 11.8545 33.8111 11.9098 33.7429C11.9462 33.6983 11.89 33.6394 11.8456 33.6789C10.9832 34.443 10.1889 35.2681 9.46885 36.1676C8.78012 37.0284 8.13787 37.9306 7.68322 38.9387C6.86604 40.7495 6.68604 42.8208 7.10815 44.7571C7.22308 45.2847 7.38533 45.8014 7.59195 46.3008C7.69843 46.5587 7.81378 46.8128 7.94223 47.0607Z" fill="black"/>
<path fill-rule="evenodd" clip-rule="evenodd" d="M26.5594 9.29325C28.9585 9.29325 31.9634 12.0184 32.8429 13.1781C33.5823 14.1531 33.4777 19.176 33.4777 22.1556C33.4777 22.7787 33.1948 23.9581 33.0921 24.5542C32.7158 26.7385 31.0762 28.5704 27.8312 28.5704C25.189 28.5704 23.1557 27.737 21.1894 25.6056C20.7408 25.1193 18.55 26.8601 18.102 26.2332C16.9317 26.2332 15.9531 15.3453 18.2508 12.0796C20.5485 8.81384 24.1602 9.29325 26.5594 9.29325Z" fill="#FBFBFC"/>
<path fill-rule="evenodd" clip-rule="evenodd" d="M19.3486 10.06C20.7349 8.80408 22.5818 8.19989 24.4452 8.24449C25.4103 8.26763 26.3719 8.45065 27.2834 8.76411C27.7393 8.92146 28.1808 9.12679 28.6029 9.35904C28.755 9.44254 28.8953 9.54038 29.0303 9.64429L29.0639 9.67039H29.0643C29.4265 9.79998 29.7497 10.0326 30.0429 10.3049C30.6307 10.2582 31.2231 10.3108 31.7914 10.4913C32.5824 10.7429 33.3146 11.2036 33.8288 11.8578C34.4278 12.6195 34.627 13.5434 34.5559 14.4972L34.5428 14.6592C34.4725 15.5017 34.3467 16.5854 33.6522 17.139C33.5994 17.1811 33.5411 17.2131 33.4807 17.2324C33.9281 17.9956 34.2953 18.843 34.515 19.6988C35.3538 22.9676 34.709 26.3764 33.7004 29.527C33.6176 29.7866 33.2234 29.9591 33.0227 29.7054C32.6643 29.2518 32.1438 28.9059 31.5581 28.8412C31.1969 28.8012 30.8373 28.8735 30.4959 28.7103C30.3619 28.6459 30.2327 28.5407 30.1397 28.4128C29.5634 28.6304 28.9427 28.733 28.327 28.7078C27.3167 28.6665 26.2367 28.3182 25.5417 27.5541C25.4301 27.4314 25.4019 27.2937 25.4275 27.1696C25.5147 27.1387 25.6042 27.1156 25.6964 27.1012C26.5778 27.6184 27.5494 27.9641 28.5936 27.9858C29.1969 27.9983 29.7854 27.9143 30.2746 27.5392C30.3805 27.458 30.4778 27.368 30.5678 27.2714C31.5906 26.6163 32.3118 25.5034 32.6546 24.3114C32.9741 23.1998 32.9348 22.0424 32.8249 20.9021L32.7669 20.3005C32.6825 19.4173 32.6041 18.5316 32.5821 17.6447L32.5888 17.6444C32.8048 17.6305 32.8063 17.2938 32.5888 17.3078C32.026 17.3441 31.4675 17.2521 30.9064 17.2922C30.9017 17.0281 30.8826 16.7652 30.8047 16.5105C30.7602 16.3649 30.5057 16.3362 30.4787 16.5105C30.4427 16.7436 30.4295 16.9753 30.4255 17.2095C29.5859 17.1984 28.7471 17.128 27.9074 17.1569C27.7525 16.9924 27.7031 16.7007 27.6307 16.4978C27.6201 16.4679 27.6096 16.4385 27.5986 16.4086C27.5349 16.6986 27.4446 16.9822 27.3259 17.2598L27.12 17.2605C25.9514 17.266 24.7592 17.3008 23.6181 17.5424C23.5388 17.4818 23.4916 17.376 23.4789 17.28C23.3961 16.6549 23.278 16.0465 23.0686 15.4508L23.0387 15.3668C23.0362 15.3598 23.0336 15.3524 23.0309 15.3446C22.8767 15.5926 22.6926 15.8237 22.4919 16.0389C22.3735 16.1657 22.2495 16.287 22.1222 16.4049C21.9985 16.5416 21.8707 16.6763 21.7468 16.8135C21.7517 16.8384 21.7559 16.8638 21.7593 16.8895C21.7972 17.1742 21.8011 17.4629 21.7734 17.7486C21.7232 18.2651 21.5767 18.7629 21.3415 19.2233L21.334 19.2694C21.2983 19.4852 21.2475 19.7082 21.1288 19.8707C21.2769 20.036 21.391 20.2334 21.4572 20.4527C21.5161 20.648 21.2448 20.8172 21.1041 20.6574C20.9923 20.5305 20.8681 20.4254 20.7317 20.3416C20.7231 20.3533 20.7076 20.359 20.6901 20.3493C20.3103 20.1393 19.665 20.2029 19.2856 20.4006C18.8136 20.6463 18.6294 21.1508 18.6818 21.662C18.7321 22.1505 18.9467 22.7214 19.3629 22.9718C19.5539 23.0866 19.7027 23.0963 19.9055 23.0412C19.9703 23.0237 20.0507 22.9699 20.0852 22.9431L20.1192 22.916C20.2521 22.8114 20.376 22.7397 20.5329 22.737C20.6935 22.6872 20.8548 22.7563 20.9162 22.9239L20.92 22.9348C20.9487 23.0202 21.0011 23.1275 20.9897 23.2579C20.9779 23.3976 20.9136 23.5246 20.8177 23.6269C20.8012 23.6445 20.7835 23.6622 20.7653 23.6786C22.4174 25.4596 22.6296 28.2349 21.7824 30.4597C21.7456 30.5574 21.7063 30.6537 21.6653 30.7492C21.5238 31.0766 20.9787 30.9752 20.9094 30.6508C20.8887 30.5536 20.8659 30.4568 20.841 30.3609C20.7951 30.1836 20.7426 30.008 20.6835 29.8349L20.661 29.7702C20.6107 29.6271 20.5638 29.4828 20.5131 29.3397L20.508 29.3234C20.5061 29.3169 20.504 29.3094 20.5017 29.301L20.4159 29.4874L20.1552 30.0499C20.0332 30.3125 19.6456 30.1698 19.6312 29.9168L19.6308 29.9082C19.6296 29.8615 19.6279 29.8152 19.6249 29.7693C19.6063 29.4256 19.5467 29.0915 19.4521 28.7646L19.4179 28.8068C18.9095 29.4328 18.3127 30.0195 17.4941 30.164C17.2887 30.2002 17.0563 29.9864 17.1974 29.7798C17.2558 29.6944 17.3119 29.6069 17.3652 29.5181C17.3191 29.4967 17.2756 29.4744 17.2355 29.4516C16.9249 29.2779 16.6663 29.0305 16.4525 28.7498C15.9991 28.1549 15.8369 27.406 15.7972 26.6731C15.7549 25.8985 15.8234 25.0818 16.0359 24.3346C16.128 24.0114 16.2527 23.7013 16.3967 23.4005C16.3866 23.3736 16.3769 23.3467 16.3672 23.3197C16.2117 22.888 16.0841 22.4467 15.978 22.0003C15.7642 21.099 15.6493 20.1692 15.6353 19.2431C15.61 17.5842 15.8973 15.8987 16.5028 14.3516C17.1281 12.7561 18.0687 11.2191 19.3486 10.06ZM18.5698 24.5647C18.455 24.3847 18.1677 24.5469 18.2743 24.7282L18.2783 24.7347C18.4604 25.0204 18.5458 25.3452 18.6505 25.6637C18.7177 25.8686 19.0443 25.7811 18.9763 25.5741L18.9538 25.505C18.8495 25.182 18.7544 24.8537 18.5698 24.5647ZM19.57 21.1281L19.6463 21.0913C19.8869 20.977 20.0978 20.8991 20.3821 20.9989C20.7628 21.1323 21.1705 21.5568 20.9132 21.9687C20.8186 22.1206 20.6504 22.1812 20.4772 22.1454C20.1851 22.0851 20.1097 21.8232 19.9615 21.6083L19.936 21.5719C19.8457 21.4418 19.7314 21.2619 19.581 21.211C19.5467 21.1992 19.5324 21.1462 19.57 21.1281ZM19.7846 12.3825L19.8091 12.3606C19.9727 12.2167 19.7327 11.9794 19.57 12.1225C18.8255 12.7776 18.5669 13.8029 18.1807 14.6768C18.0941 14.8733 18.3852 15.045 18.4727 14.8468C18.841 14.0129 19.0856 13.0154 19.7846 12.3825ZM28.7314 12.096C28.5369 12.0087 28.3667 12.2906 28.5537 12.3834L28.5607 12.3867C29.2181 12.6825 29.4979 13.3523 29.7658 13.9742C29.8511 14.1728 30.1422 14.0015 30.0577 13.8046L30.0094 13.693C29.7299 13.0522 29.4038 12.399 28.7314 12.096ZM29.7619 11.6912C29.5558 11.6201 29.4674 11.9449 29.6719 12.016C30.2293 12.2092 30.6117 12.6257 30.9341 13.102C31.0549 13.2804 31.3477 13.1121 31.2256 12.932C30.8512 12.3791 30.4067 11.9151 29.7619 11.6912Z" fill="black"/>
<path fill-rule="evenodd" clip-rule="evenodd" d="M28.6301 25.6164C28.3461 25.5011 28.0927 25.3086 27.9074 25.0627C27.843 24.9772 27.8263 24.887 27.8398 24.8044C27.855 24.7116 27.9101 24.6275 27.9853 24.5711C28.0608 24.5145 28.1551 24.4865 28.2464 24.5008C28.3257 24.5131 28.4046 24.5564 28.467 24.646L28.4801 24.6639C28.5902 24.8123 28.7338 24.9341 28.8973 25.0126C29.055 25.0882 29.2313 25.1235 29.4137 25.103C29.7612 25.0639 30.0007 24.8768 30.2553 24.6226C30.2869 24.5906 30.3184 24.5575 30.3502 24.5239C30.3702 24.4934 30.398 24.4738 30.4289 24.4635C30.4632 24.4521 30.5019 24.4527 30.5374 24.4651C30.5717 24.477 30.6023 24.4995 30.6229 24.5296C30.6424 24.5581 30.6534 24.5933 30.6498 24.6339C30.6265 24.8972 30.4883 25.1323 30.2919 25.3168C30.0737 25.5218 29.7846 25.6636 29.5124 25.7133C29.2125 25.7681 28.9069 25.7288 28.6301 25.6164ZM29.6538 21.5538C29.9729 21.7469 30.4591 22.1972 30.1158 22.676C29.7118 23.0981 29.1301 22.6141 28.8434 22.3952C28.5776 22.2255 28.279 22.6619 28.5256 22.86C30.597 24.3871 31.4376 21.6043 29.8152 21.3267C29.6366 21.2961 29.5703 21.494 29.6538 21.5538ZM25.9418 19.7773C25.9771 19.3416 26.6435 19.2427 26.7098 19.6738C26.7692 20.0601 26.6993 20.4149 26.5246 20.7626C26.3577 21.0949 25.9381 20.9399 25.9063 20.6374C25.8638 20.2318 25.9199 20.0484 25.9418 19.7773ZM31.0149 19.5844C31.1079 19.4633 31.242 19.3805 31.4028 19.4273C31.9049 19.5734 31.7569 20.2833 31.5806 20.6289C31.4847 20.8165 31.175 20.8641 31.035 20.6989C30.8068 20.4295 30.6975 19.8914 30.9876 19.626C30.9955 19.6123 31.0042 19.5984 31.0149 19.5844ZM26.5175 17.8707L26.5968 17.8569C26.8422 17.8146 27.1474 17.774 27.321 17.9705C27.413 18.0746 27.4447 18.2683 27.321 18.368C27.1033 18.5434 26.8626 18.4754 26.6017 18.4903C26.3867 18.5026 26.1801 18.538 25.973 18.597C25.5187 18.7262 25.1485 18.9623 24.7605 19.2215C24.7096 19.2555 24.6576 19.1906 24.6819 19.1432C24.9059 18.7063 25.34 18.3475 25.7748 18.1288C26.0068 18.012 26.2608 17.9151 26.5175 17.8707ZM30.5572 17.675L30.6179 17.6874C31.2786 17.8249 32.1371 18.0996 32.4499 18.7459C32.4619 18.8373 32.4493 18.8568 32.439 18.8696L32.4356 18.8739C32.4272 18.8848 32.4204 18.8999 32.3807 18.9123C32.3696 18.9097 32.3585 18.9069 32.3472 18.904C32.2038 18.8666 32.0903 18.815 31.9805 18.7615L31.8613 18.7031C31.7232 18.6356 31.5837 18.5706 31.436 18.5226C31.1207 18.4202 30.7964 18.348 30.467 18.3095C30.3957 18.3012 30.3269 18.2772 30.2727 18.2361C30.2212 18.197 30.1819 18.143 30.164 18.0712C30.1407 17.9782 30.1474 17.9079 30.1975 17.824C30.2351 17.7611 30.289 17.7174 30.3509 17.6924C30.414 17.6668 30.4858 17.6608 30.5572 17.675Z" fill="black"/>
<path fill-rule="evenodd" clip-rule="evenodd" d="M33.2168 21.9299C32.9323 22.3105 32.4049 22.4317 31.9184 22.3898C30.8692 22.2893 30.539 21.1027 30.5046 20.1805C31.2081 20.3776 30.4451 18.9818 32.8501 18.8283C33.6979 18.758 33.4642 19.2678 33.8388 19.6403C33.8311 20.4222 33.7004 21.2717 33.2168 21.9299ZM28.2194 21.0315C27.6 23.9201 24.2079 23.233 23.8516 20.6292C24.1806 20.3979 24.094 19.8269 24.5027 19.6201C25.1506 19.2079 25.9604 19.2255 26.6961 19.2352C27.6364 19.2995 27.9044 19.6874 28.3874 20.1106C28.3642 20.3933 28.2972 20.7283 28.2194 21.0315ZM34.5605 18.3499C34.5257 18.3442 34.4909 18.3387 34.4561 18.3336C34.4289 18.3183 34.397 18.3065 34.3599 18.2994C34.2752 18.2779 34.191 18.2635 34.107 18.2557C32.9015 17.9856 30.1124 18.3692 29.9973 19.3936C29.6134 19.5212 29.2812 19.4069 28.8362 19.4183C28.4975 18.0086 22.6419 18.2075 22.3603 19.0574C22.3592 19.0572 22.3582 19.0569 22.3571 19.0566C22.0865 18.9732 21.6876 18.9933 21.3779 18.9801C20.7166 18.9663 20.0545 19.025 19.4075 19.1639C18.1958 19.3556 16.5422 19.5801 17.3849 21.0867C17.3851 21.0869 17.3852 21.0872 17.3854 21.0875L17.3855 21.0873C17.5308 21.2356 17.7772 21.1162 17.7864 20.9155C17.5031 20.2018 18.143 20.1161 18.6353 19.911C19.8604 19.4727 21.1076 19.412 22.3746 19.5475C22.47 19.6593 22.6146 19.7567 22.7675 19.8077C23.6146 19.9477 23.1682 20.5735 23.7036 20.6645C23.6053 22.8457 26.2647 24.0363 27.8057 22.6025C28.4209 22.0035 28.5676 21.1162 28.7102 20.3164C28.7857 20.2995 28.8336 20.2585 28.8616 20.2041C29.043 20.0238 29.157 19.8572 29.5157 19.8077C29.8744 19.7582 30.1505 19.8576 30.1879 19.888C30.1973 19.9069 30.2074 19.9258 30.2191 19.9448C30.2355 19.973 30.2578 19.9955 30.2832 20.0132C29.929 22.1853 31.6224 23.5589 33.3319 22.4324C34.0747 21.7366 34.2317 20.6713 34.2627 19.7205C34.3634 19.66 34.4272 19.5428 34.3923 19.3953C34.3442 19.1921 34.4569 19.0162 34.6363 18.9278C34.8694 18.8131 34.8282 18.3941 34.5605 18.3499Z" fill="black"/>
</g>
<defs>
<clipPath id="clip0_3380_35128">
<rect width="48" height="48" rx="24" fill="white"/>
</clipPath>
</defs>
</svg>
