<svg width="48" height="49" viewBox="0 0 48 49" fill="none" xmlns="http://www.w3.org/2000/svg">
<g clip-path="url(#clip0_3380_35172)">
<rect y="0.119141" width="48" height="48" rx="24" fill="#FBCE13"/>
<path fill-rule="evenodd" clip-rule="evenodd" d="M7.08616 58.7874C12.9514 59.6806 18.923 59.7255 24.837 59.4012C27.1775 59.2255 29.5252 59.1939 31.8638 59.4185C33.2457 59.5215 39.3047 59.9858 39.7997 58.745C39.4881 52.1373 38.8571 45.4734 36.9213 39.1184C36.1252 36.862 35.4414 34.9891 33.8876 33.1218C33.3979 32.612 32.3418 31.5428 31.7367 31.194C31.2124 30.892 30.9933 30.9997 30.6922 30.4895C30.3931 29.9258 30.1724 28.9845 29.7477 28.5868C29.3152 28.1818 28.6743 28.3267 27.8799 28.4572C28.0258 26.4798 27.1155 25.9763 25.8613 25.6002C23.6568 24.7567 21.4796 25.1805 20.9247 27.871C19.8959 27.871 19.318 28.3149 18.6933 28.7414C18.4379 28.9157 18.6155 29.3599 18.3105 29.497C17.7461 29.6984 16.7487 29.6491 16.2053 29.897C13.7342 31.0245 11.5332 32.6595 10.0878 35.0473C6.84727 40.1454 4.62131 50.8846 5.0065 56.927C4.83774 57.1923 5.07111 57.5728 5.13043 57.8581C5.20531 58.1063 5.44779 58.2714 5.70085 58.2431C6.05398 58.6239 6.60018 58.7086 7.08616 58.7874Z" fill="#FBFBFC"/>
<path fill-rule="evenodd" clip-rule="evenodd" d="M31.3635 31.0446C31.3275 31.0245 31.3592 30.9729 31.3954 30.9899C33.1348 31.808 34.4692 33.2434 35.4082 34.9017C36.3804 36.6189 36.9345 38.5686 37.4123 40.4741L37.4295 40.543C37.9389 42.5815 38.372 44.6411 38.762 46.7057C39.1569 48.7964 39.4739 50.9001 39.7289 53.0125C39.8551 54.057 39.9675 55.1033 40.0553 56.1517C40.0991 56.6756 40.1389 57.1999 40.1747 57.7245C40.189 57.9342 40.2024 58.144 40.214 58.354L40.2223 58.5115C40.2294 58.6544 40.2463 58.7976 40.2111 58.9385C40.1808 59.06 40.1166 59.17 40.0602 59.2815C39.9486 59.502 39.6426 59.4657 39.5223 59.2815L39.4874 59.2279C39.4076 59.1043 39.3414 58.9894 39.3164 58.8357C39.2922 58.6867 39.2913 58.5307 39.2804 58.3802C39.2604 58.1035 39.2434 57.8264 39.224 57.5496C39.1833 56.9668 39.1375 56.3844 39.0869 55.8024C38.9867 54.6535 38.8793 53.5056 38.7474 52.3598C38.5129 50.3236 38.2187 48.2927 37.8719 46.2727C37.5331 44.2994 37.1047 42.3461 36.6578 40.3952L36.6115 40.1934C35.829 36.7873 34.6231 32.8648 31.3635 31.0446ZM12.8362 44.382C12.849 44.3479 12.904 44.3401 12.9133 44.382C13.0305 44.9109 13.0421 45.4557 13.06 45.9972C13.0776 46.5313 13.0769 47.068 13.0692 47.6024C13.0405 49.5668 12.9867 51.5295 12.9402 53.4936C12.917 54.476 12.8952 55.4585 12.8784 56.4411C12.8721 56.8096 12.8668 57.1781 12.8623 57.5467L12.8569 58.0327C12.8542 58.2476 12.8486 58.4599 12.8225 58.6746C12.8052 58.8158 12.7685 58.9504 12.6907 59.0715C12.6356 59.1574 12.5569 59.201 12.4803 59.2594L12.4659 59.2705C12.3681 59.348 12.2651 59.3485 12.1683 59.2705L12.1402 59.2482C12.0477 59.1757 11.9677 59.119 11.9087 59.0043C11.8265 58.8449 11.8134 58.6716 11.7994 58.4959C11.7782 58.2294 11.7923 57.9591 11.795 57.6918C11.8005 57.1558 11.8079 56.6198 11.8173 56.0838C11.8517 54.1182 11.9198 52.1522 12.0438 50.1901C12.1023 49.2658 12.1815 48.3386 12.2878 47.4182L12.308 47.2457C12.3403 46.9748 12.3697 46.6992 12.4028 46.4226C11.9082 46.0739 11.4734 45.6507 11.1027 45.1706C11.0754 45.1353 11.1203 45.0857 11.1533 45.1199C11.5321 45.5132 11.9665 45.8267 12.4473 46.0732C12.5261 45.4943 12.6344 44.9186 12.8362 44.382ZM21.0991 26.8603C21.1059 26.8551 21.1165 26.8528 21.123 26.8603C21.2293 26.9846 21.2077 27.1746 21.2111 27.332L21.2115 27.3467C21.2192 27.5769 21.2206 27.8064 21.2198 28.0368L21.2175 28.77C21.2171 28.8709 21.209 28.9758 21.2141 29.0772L21.2168 29.1165C21.2727 29.1738 21.2986 29.2567 21.2797 29.3399C21.2763 29.4467 21.2206 29.5357 21.1394 29.5917L21.3135 29.8393L21.4877 30.0868C21.8468 30.5974 22.2099 31.1035 22.5882 31.6001C22.974 32.1064 23.3856 32.5936 23.8164 33.0621C24.0268 33.291 24.2408 33.5167 24.4598 33.7374C24.5488 33.8271 24.64 33.9146 24.7302 34.003L24.8199 34.0919C24.8729 34.1451 24.9397 34.1976 24.9749 34.265C24.9956 34.3048 25.0003 34.4027 25.0077 34.4189C25.0741 34.5653 24.9608 34.7988 24.7724 34.7257L24.7809 34.72C24.8152 34.6961 24.7932 34.6958 24.715 34.719C24.6656 34.7189 24.6193 34.7075 24.576 34.6849L24.5631 34.6778C24.5022 34.6468 24.4478 34.5867 24.3983 34.5387L24.3861 34.5269C24.2729 34.4206 24.165 34.3079 24.0565 34.1967C23.8301 33.9649 23.6089 33.7281 23.3946 33.4849C22.9672 32.9998 22.5621 32.495 22.1783 31.9746C21.7875 31.4445 21.4242 30.8872 21.1118 30.307C20.9932 30.0868 20.8845 29.8624 20.7803 29.6354C20.5775 29.5701 20.5304 29.3539 20.5445 29.1102C20.4697 28.9355 20.4023 28.7572 20.3624 28.575C20.357 28.55 20.389 28.5264 20.4082 28.5483C20.473 28.6222 20.5331 28.7009 20.5908 28.7816C20.6257 28.6107 20.6698 28.4535 20.6905 28.3533L20.7804 27.9109C20.2737 27.8845 19.7184 28.0932 19.3691 28.4586C19.3504 28.5537 19.2773 28.6218 19.2061 28.7108C19.1248 28.8124 19.0538 28.9265 19.0009 29.0459C18.8835 29.3103 18.9497 29.7001 18.7219 29.8941C18.6981 29.9143 18.6716 29.9284 18.6442 29.9371C18.7523 30.4685 18.7033 31.0541 18.7009 31.5933L18.7008 31.6408C18.7014 32.2442 18.6812 32.8481 18.658 33.4511L18.6343 34.0478C18.6037 34.8437 18.5838 35.6399 18.6609 36.4314C19.0131 36.1187 19.3773 35.8202 19.754 35.5359C20.0017 35.3489 20.2544 35.1686 20.5116 34.995L20.7206 34.855C20.9711 34.6866 21.2277 34.5133 21.5019 34.3927C21.8606 34.235 22.2017 34.2892 22.548 34.4509C22.8929 34.612 23.2275 34.7991 23.5658 34.9737C23.9099 35.1513 24.2547 35.3273 24.5992 35.5038C24.8275 35.6207 25.1619 35.7263 25.3293 35.9415C25.34 35.8939 25.3525 35.8464 25.367 35.7991C25.3504 35.7269 25.3568 35.649 25.3972 35.5747C25.9597 34.5384 26.4802 33.4774 26.997 32.4177C27.2586 31.8814 27.5073 31.3387 27.7694 30.8028L28.0242 30.2808C28.0668 30.1938 28.1095 30.1069 28.1524 30.0201C28.2167 29.8902 28.2836 29.7616 28.3486 29.632C28.3761 29.5773 28.4105 29.5229 28.4373 29.4676L28.4499 29.4399C28.4506 29.4385 28.5123 29.2438 28.4646 29.2624L28.4605 29.2644C28.4362 29.2782 28.4167 29.2475 28.4324 29.2279C28.4999 29.1443 28.5938 29.2184 28.6323 29.2958C28.7383 29.5087 28.544 29.8429 28.4693 30.0468L28.4652 30.0582C28.2333 30.7162 27.9708 31.3619 27.7018 32.0053C27.186 33.2389 26.6319 34.4535 26.079 35.6703L26.0725 35.6912C26.1904 35.6006 26.3163 35.5184 26.424 35.4383C26.696 35.2364 26.9758 35.0444 27.2553 34.853C27.7677 34.502 28.294 34.1741 28.829 33.8592L28.9362 33.7964C29.2034 33.6403 29.4682 33.5138 29.7854 33.5606C30.0801 33.6042 30.3541 33.7629 30.6203 33.8918L30.6478 33.905L31.4705 34.2971C31.3826 33.9455 31.2874 33.5956 31.188 33.247C30.9942 32.5671 30.781 31.8928 30.5498 31.2246C30.3339 30.6003 30.1005 29.9828 29.8535 29.3702L29.7792 29.1863C29.6785 28.9341 29.5784 28.659 29.2907 28.5814C29.0031 28.5037 28.6733 28.6188 28.4105 28.4545C28.3866 28.4396 28.3896 28.4001 28.4185 28.3928L28.5807 28.3518C28.8852 28.2759 29.2421 28.1995 29.5301 28.2734C29.8434 28.3538 30.1026 28.6175 30.2546 28.8915C30.4236 29.1964 30.5428 29.5376 30.6711 29.8627L30.6914 29.9139C30.8386 30.2818 30.9802 30.6519 31.1157 31.0244C31.3866 31.7688 31.6332 32.5222 31.8564 33.2824C31.964 33.6488 32.066 34.017 32.1641 34.386C32.1923 34.4921 32.2388 34.6208 32.277 34.755C32.3207 34.7978 32.3621 34.8455 32.4009 34.8999C32.4653 34.9902 32.4191 35.0961 32.339 35.1501C32.3359 35.2425 32.3154 35.3294 32.2665 35.4038C32.0755 35.6945 31.5705 35.6196 31.591 35.2288C31.5941 35.169 31.6173 35.1119 31.6525 35.0636L31.6515 35.0558L31.6476 35.0415C31.5599 34.9993 31.4718 34.9524 31.379 34.9064L30.5156 34.4787C30.2656 34.3548 29.9884 34.1634 29.7103 34.1162C29.4511 34.0722 29.1776 34.2658 28.9548 34.3826L28.9403 34.3901C28.4018 34.6669 27.8673 34.9528 27.3349 35.241C27.075 35.3817 26.8185 35.5283 26.5596 35.6708C26.3431 35.7899 26.1095 35.9608 25.8661 36.028C25.7622 36.109 25.6388 36.0982 25.5395 36.0369C25.5849 36.3184 25.5821 36.6074 25.596 36.8952C25.6147 37.28 25.6176 37.6659 25.6238 38.0512L25.6263 38.1957C25.6426 39.0475 25.6514 39.8996 25.6546 40.7516C25.6661 43.7857 25.6326 46.8206 25.6248 49.8546C25.6209 51.379 25.5908 52.9047 25.5513 54.4285C25.5345 55.0742 25.4995 55.7191 25.4617 56.3638L25.4409 56.7155C25.3968 57.4575 25.3708 58.2077 25.2338 58.9396C25.2159 59.0351 25.0548 59.0375 25.039 58.9396C24.9129 58.1553 24.9059 57.3537 24.8816 56.5602L24.8765 56.4016C24.8474 55.5496 24.8335 54.6981 24.8365 53.8456C24.8473 50.8103 24.926 47.777 24.9903 44.7426C25.0227 43.218 25.0445 41.6928 25.0948 40.1687C25.1199 39.4061 25.1484 38.644 25.1821 37.8817C25.1972 37.5414 25.2117 37.2014 25.2343 36.8615L25.2444 36.7159C25.2514 36.6209 25.2571 36.527 25.264 36.434C24.9577 36.5462 24.6775 36.3385 24.402 36.1964C24.0844 36.0326 23.7669 35.8686 23.4492 35.7051L23.1312 35.5419L22.4949 35.2164C22.2084 35.0698 21.9876 34.9239 21.682 35.0958C20.5811 35.7151 19.5694 36.539 18.6526 37.4036C18.4768 37.5695 18.1053 37.5249 18.0607 37.247C17.8705 36.0598 17.9862 34.8555 18.0833 33.6647L18.1191 33.2227C18.1625 32.6946 18.2097 32.1666 18.2727 31.6408C18.3009 31.4055 18.3289 31.1704 18.3599 30.9356L18.3838 30.7596C18.4226 30.4813 18.4479 30.2047 18.5306 29.9378C18.5045 29.9293 18.4794 29.9154 18.457 29.8941C18.2084 29.6576 18.3282 29.2473 18.4417 28.966C18.5537 28.6883 18.7245 28.446 18.9384 28.2374C18.9851 28.1918 19.0509 28.1625 19.1169 28.161C19.6356 27.8165 20.2046 27.6446 20.7968 27.8326C20.8134 27.7529 20.8304 27.6733 20.8483 27.5939L20.8664 27.5145C20.9125 27.3175 20.9296 26.9921 21.0991 26.8603ZM26.4149 57.9719C26.5758 57.9275 26.752 57.9743 26.87 58.0925C26.9879 58.2108 27.0345 58.3874 26.9902 58.5488C26.968 58.6282 26.9279 58.6972 26.87 58.7557C26.8158 58.8097 26.7526 58.8482 26.6804 58.8713L26.6635 58.8763L26.6372 58.8873C26.5566 58.909 26.4758 58.909 26.3952 58.8873C26.3181 58.8656 26.2511 58.8265 26.1943 58.7699C26.1379 58.713 26.0989 58.6459 26.0772 58.5685C26.0555 58.4876 26.0555 58.4067 26.0772 58.3258L26.0882 58.2995C26.1104 58.22 26.1505 58.151 26.2084 58.0925C26.2668 58.0344 26.3356 57.9942 26.4149 57.9719ZM35.9715 41.8927C35.9979 41.8623 36.0408 41.9012 36.0244 41.9336C35.7737 42.4263 35.4943 42.9155 35.2197 43.3957C35.2417 43.5288 35.2635 43.6609 35.2886 43.7895C35.3956 44.338 35.5266 44.8766 35.612 45.4303C35.9191 47.4206 36.0785 49.4325 36.2153 51.4407C36.3525 53.456 36.3701 55.4723 36.3907 57.4916C36.3925 57.6666 36.2582 57.87 36.0783 57.903C35.9959 57.9181 35.9342 57.9151 35.852 57.903C35.6648 57.8753 35.5477 57.6603 35.5396 57.4916C35.4859 56.363 35.4137 55.2359 35.33 54.1091C35.1817 52.1114 35.091 50.1084 34.9712 48.1086L34.929 47.4097C34.8837 46.6524 34.8423 45.8945 34.8288 45.136C34.8198 44.6336 34.8466 44.1312 34.8302 43.6293C34.8149 43.1659 34.7681 42.6621 34.87 42.2068C34.8737 42.1898 34.9006 42.1854 34.9084 42.2018C35.0144 42.4254 35.0815 42.6684 35.1332 42.9165C35.4062 42.5703 35.6843 42.2233 35.9715 41.8927ZM18.0857 29.6525C18.1241 29.6496 18.1226 29.7074 18.0857 29.7116C17.5499 29.774 17.0322 29.9926 16.5263 30.1784L16.4829 30.1942C15.9718 30.3802 15.4734 30.5964 14.9938 30.8541C14.0561 31.3581 13.195 32.0078 12.4337 32.7516C9.3941 35.721 8.00889 40.003 6.99387 44.027C6.42991 46.2626 6.02887 48.5361 5.76893 50.827C5.6404 51.96 5.54953 53.0973 5.49655 54.2364C5.46944 54.8202 5.45233 55.4045 5.44519 55.9888C5.44151 56.2882 5.44044 56.5876 5.4408 56.8869C5.44097 57.0241 5.4654 57.1968 5.42881 57.33C5.39487 57.4533 5.29915 57.562 5.22836 57.6648C5.14445 57.7868 4.99365 57.7803 4.90857 57.6648L4.8772 57.6227C4.78647 57.5021 4.69769 57.3867 4.68473 57.229C4.67086 57.0599 4.68064 56.8857 4.68002 56.7158C4.67858 56.3737 4.6828 56.0316 4.68962 55.6895C4.70278 55.0339 4.72855 54.3786 4.76684 53.724C4.8446 52.3955 4.97259 51.0697 5.15585 49.7517C5.4816 47.4089 5.96988 45.0886 6.60944 42.8118C7.21282 40.664 7.92763 38.5225 8.94592 36.533C9.8914 34.6858 11.1317 32.9673 12.7684 31.6764C13.5295 31.076 14.358 30.5757 15.2513 30.1989C15.7018 30.0089 16.1749 29.8537 16.656 29.7653C17.1318 29.6778 17.6056 29.69 18.0857 29.6525ZM26.5071 54.1755C26.5921 54.1749 26.6869 54.1936 26.7598 54.2407L26.8572 54.3162C26.8836 54.3502 26.9099 54.3843 26.936 54.4185C26.997 54.4981 27.005 54.6269 26.9923 54.7217C26.9895 54.785 26.9707 54.8439 26.936 54.8985L26.8619 54.9948C26.7906 55.0531 26.7311 55.0947 26.6448 55.1227C26.5997 55.1373 26.5562 55.1404 26.5129 55.1382L26.4984 55.1372L26.5071 55.1384L26.4919 55.1367C26.4778 55.1355 26.4637 55.134 26.4495 55.132C26.4399 55.1308 26.4302 55.1301 26.4205 55.1287C26.4112 55.128 26.4022 55.1276 26.3929 55.1285C26.2831 55.1388 26.1728 55.0764 26.0949 55.0048C26.0248 54.9402 25.9618 54.8032 25.9716 54.7061L25.9757 54.6656C25.9831 54.5971 25.9892 54.5702 26.0181 54.5014C26.0462 54.4345 26.0855 54.3755 26.139 54.3257C26.2413 54.2302 26.3666 54.1765 26.5071 54.1755ZM26.1675 49.1667C26.3131 49.0076 26.5632 48.9959 26.7438 49.0921C26.7878 49.1156 26.8282 49.1533 26.867 49.1847C26.9648 49.2639 27.0031 49.4068 27.0085 49.5272C27.0139 49.6463 26.9512 49.7876 26.867 49.8698L26.8466 49.8897C26.7963 49.9387 26.7242 49.9814 26.6538 49.9944C26.5402 50.0153 26.4449 50.0147 26.3391 49.9699C26.2483 49.9315 26.17 49.8697 26.1168 49.7859L26.1081 49.7717C26.1045 49.7659 26.101 49.7599 26.0978 49.7538L26.0931 49.7445C25.9919 49.5494 26.0191 49.3286 26.1675 49.1667ZM26.2429 44.1315C26.3086 44.1108 26.3742 44.1079 26.4399 44.1226C26.4845 44.1227 26.5261 44.134 26.5646 44.1564C26.6064 44.1681 26.6428 44.1894 26.6736 44.2201C26.7107 44.2421 26.7402 44.2717 26.7622 44.3089C26.8059 44.3568 26.8353 44.4129 26.8506 44.4774L26.8682 44.609L26.8506 44.7407L26.8008 44.859C26.7871 44.877 26.7733 44.8949 26.7594 44.9127C26.7374 44.95 26.7078 44.9798 26.6706 45.0018C26.6464 45.0259 26.6186 45.044 26.5876 45.0565C26.4776 45.1355 26.3311 45.1613 26.2008 45.1253C26.1234 45.1036 26.0561 45.0643 25.9992 45.0076C25.9426 44.9504 25.9034 44.883 25.8817 44.8055L25.8728 44.7435C25.8613 44.6605 25.8595 44.6144 25.8829 44.5088C25.8932 44.4624 25.9231 44.3969 25.9387 44.3693C26.0055 44.2515 26.1146 44.1708 26.2429 44.1315ZM31.946 40.509C32.1345 40.5076 32.3231 40.508 32.5117 40.5101L32.6531 40.512C32.8899 40.5157 33.0928 40.4912 33.279 40.656C33.4141 40.7755 33.3546 40.9761 33.2263 41.0662C33.0319 41.2025 32.7882 41.1339 32.5648 41.1189C32.3292 41.1031 32.0934 41.0899 31.8575 41.0793C31.4008 41.0588 30.9439 41.0458 30.4867 41.0437C30.0306 41.0418 29.5737 41.0461 29.1176 41.0535C28.6535 41.0611 28.1702 41.1044 27.7087 41.0562C27.6453 41.0496 27.6311 40.9661 27.6936 40.9443C28.1285 40.7935 28.6178 40.7446 29.0735 40.6869C29.5436 40.6274 30.0137 40.5853 30.4867 40.5579C30.9726 40.53 31.4593 40.5124 31.946 40.509ZM26.242 39.0275L26.2576 39.0278C26.3406 39.028 26.4183 39.0476 26.4907 39.0866L26.5062 39.0952L26.6058 39.1724C26.6669 39.234 26.7091 39.3066 26.7324 39.3902L26.75 39.5215C26.7527 39.5895 26.7385 39.6528 26.7077 39.7117C26.6878 39.7729 26.6538 39.8259 26.6058 39.8706C26.5612 39.9187 26.5084 39.9527 26.4474 39.9727C26.3932 40.0012 26.3351 40.0155 26.2732 40.0155L26.2576 40.0152C26.1688 40.0149 26.0859 39.9924 26.0091 39.9478L25.9094 39.8706C25.8484 39.809 25.8061 39.7364 25.7828 39.6527L25.7652 39.5215C25.7626 39.4535 25.7767 39.3901 25.8076 39.3313C25.8275 39.2701 25.8614 39.2171 25.9094 39.1724C25.954 39.1242 26.0068 39.0902 26.0679 39.0703C26.1221 39.0418 26.1801 39.0275 26.242 39.0275ZM27.702 27.4298C27.808 27.2758 28.0003 27.4128 27.9728 27.5366C27.9801 27.8845 27.9978 28.2221 28.0768 28.5629C28.1129 28.7189 28.1603 28.8751 28.2333 29.018L28.264 29.0782C28.3586 29.2655 28.4319 29.4421 28.3046 29.6475C28.2446 29.7444 28.1361 29.8171 28.0185 29.812C27.4971 29.7895 27.4254 29.0618 27.3938 28.6556C27.3611 28.2372 27.4627 27.7774 27.702 27.4298Z" fill="black"/>
<path fill-rule="evenodd" clip-rule="evenodd" d="M24.6908 8.61328C26.7008 8.61328 29.1124 9.5902 29.3175 9.60974L29.323 9.61003C29.4309 9.61003 29.8524 9.932 30.5876 10.5759L29.7913 12.133L29.8557 12.1947C30.1641 12.4911 30.4273 12.7613 30.6351 12.9742C32.3318 14.7132 32.6367 21.5407 32.2369 23.9216C31.837 26.3026 31.0964 28.6325 27.6486 28.6325C24.2008 28.6325 20.365 26.554 19.7742 25.9068C19.3802 25.4753 18.9378 25.2686 18.4467 25.2866C18.4266 25.2611 18.4065 25.2356 18.3867 25.2102L18.3144 25.2C17.6349 25.1013 17.1479 24.9685 16.8537 24.8016C16.2789 24.4756 15.6471 22.7616 15.6471 22.3841C15.6471 22.0103 14.7038 19.2911 14.6849 19.0034L14.6846 18.9954C14.6846 18.7549 13.4522 17.6491 13.4522 17.2979C13.4522 16.9467 13.2038 16.968 13.4522 15.7305L13.5244 15.367C13.7887 14.0495 14.3061 11.8678 16.2789 10.9198C18.4467 9.87801 22.6605 8.61328 24.6908 8.61328Z" fill="#FBFBFC"/>
<path fill-rule="evenodd" clip-rule="evenodd" d="M15.9444 10.8708C17.0256 9.72025 23.1636 7.94065 26.269 8.31788L26.3622 8.32998C26.61 8.36148 26.8542 8.40919 27.0953 8.47401C27.8744 8.65643 28.6791 8.93266 29.3229 9.39405C29.8603 9.77151 31.5556 10.3879 31.056 11.3753C31.2413 11.7273 31.3104 12.1621 31.1852 12.5087C31.1694 12.6284 31.1326 12.7387 31.0855 12.853C31.4813 13.4386 31.7948 14.1009 32.0485 14.7308C32.4918 16.3161 32.7677 17.9659 32.8081 19.5833C32.9425 22.6562 32.6064 26.3268 29.9369 28.3139C28.3242 29.5731 25.7981 29.6154 23.9859 28.0542C23.883 27.9321 23.3994 27.6029 23.5608 27.5451C23.6088 27.596 23.6582 27.6455 23.7085 27.6941C23.7062 27.6887 23.7057 27.6833 23.7067 27.6774L23.6594 27.6345C23.5703 27.5519 23.4549 27.4321 23.5864 27.4555C23.5921 27.4623 23.5985 27.4681 23.6047 27.4749C23.6326 27.4916 23.6536 27.5061 23.6699 27.5189L23.6784 27.5257L23.6758 27.523C23.6001 27.442 23.5547 27.3595 23.6679 27.4122L23.6828 27.4195C23.7332 27.4726 23.7843 27.5235 23.8364 27.573C23.8355 27.5672 23.8364 27.5613 23.8396 27.555L23.791 27.508C23.7436 27.4614 23.7508 27.4612 23.774 27.4236C23.6733 27.282 23.8613 27.3661 23.8745 27.4213C23.9922 27.3934 24.0955 27.6149 24.1713 27.6419C27.4934 30.2025 32.3145 27.9304 32.2364 20.7953L32.2352 20.6557C32.2124 18.3741 32.0209 16.0292 31.0796 13.9639C30.9881 13.7649 30.8857 13.5714 30.773 13.3841C30.6954 13.2437 30.6123 13.1069 30.523 12.9736C30.2729 12.9534 30.026 12.9075 29.7827 12.8364C29.6991 12.8152 29.6165 12.7918 29.534 12.7643C28.3272 12.8303 27.1473 12.9021 25.9372 12.9702L25.5592 12.9938C24.5341 13.0598 23.4739 13.1657 22.6467 13.8014C21.835 14.3801 21.8313 15.5213 21.1365 16.1567C20.1457 16.8309 20.1384 17.4389 19.9476 18.4324C19.9618 19.1814 20.4798 20.2696 19.5292 20.5848C19.6896 20.814 19.466 20.7039 19.4484 20.6235C19.4466 20.6239 19.4449 20.6244 19.4435 20.6244C19.5864 20.8907 19.3763 20.723 19.3578 20.6375C19.3465 20.6343 19.3353 20.6262 19.3241 20.6149C19.4681 20.8483 19.2353 20.6849 19.2491 20.6424C18.9709 20.2137 18.3983 20.1471 17.9947 20.2607C17.9898 20.276 17.9719 20.2774 17.9606 20.2693C16.2445 20.6421 16.6873 24.204 18.446 23.8597C18.5212 23.8443 18.5194 23.8805 18.5344 23.884C18.4938 23.7771 18.6083 23.8206 18.6071 23.843L18.6141 23.8427C18.6196 23.8422 18.6173 23.8416 18.6214 23.843C18.5822 23.6243 18.8032 23.9412 18.7858 23.9542C18.7925 23.9502 18.8002 23.9479 18.8069 23.947L18.7993 23.9263C18.7626 23.8283 18.7658 23.869 18.766 23.8129C18.7384 23.7435 18.7364 23.7739 18.7429 23.7287C18.8398 23.6534 18.8684 23.8817 18.9007 23.8984C18.8453 23.821 18.8893 23.7578 18.9416 23.7998C19.3377 24.6351 19.8493 25.4199 20.5106 26.0382C20.5829 26.0953 20.6561 26.1516 20.7319 26.2047C21.0132 26.4503 21.4446 26.6083 21.7079 26.8258C21.7079 26.8294 21.7062 26.834 21.7035 26.8385L21.7095 26.8439L21.7156 26.8497L21.8072 26.8938C21.8341 26.9168 21.8584 26.9424 21.8799 26.9708C21.9028 26.9973 21.923 27.0266 21.9401 27.0576C21.9486 27.0955 21.9298 27.1112 21.8938 27.095C21.8781 27.0896 21.8624 27.0833 21.8467 27.0775C21.8476 27.0788 21.848 27.0797 21.8489 27.0806C21.8541 27.0884 21.889 27.1695 21.8488 27.1563L21.844 27.1544C21.822 27.1463 21.8 27.1373 21.7785 27.1288C21.8041 27.1607 21.8274 27.1954 21.848 27.2246C21.87 27.2476 21.8835 27.2746 21.8889 27.3052C21.888 27.3223 21.8786 27.3295 21.8615 27.3273C21.8355 27.3187 21.8099 27.3097 21.7843 27.3003L21.7915 27.3142C21.8097 27.3499 21.8354 27.4098 21.7897 27.3898C21.7506 27.3777 21.7129 27.3637 21.6752 27.3484C21.672 27.3547 21.6658 27.357 21.6532 27.3511C21.5333 27.3084 21.4175 27.2561 21.3066 27.1945C21.2092 27.1234 21.1108 27.0536 21.013 26.9829C20.9209 26.9276 20.832 26.8659 20.7472 26.7966C20.1795 26.429 19.6825 25.9619 19.2882 25.4418C18.6287 26.0144 17.3102 25.4674 16.4946 25.0192C15.7732 24.6186 15.4897 23.8779 15.4163 23.0793C15.2639 22.0042 14.3876 21.6362 14.4486 19.2773C14.4472 19.2777 14.4458 19.2777 14.444 19.2777C14.4121 19.2683 14.3812 19.2557 14.352 19.2394C14.322 19.225 14.2937 19.2079 14.2671 19.1872L14.2344 19.1418C14.2174 19.1323 14.2021 19.1224 14.1904 19.1125L14.1844 19.1203C14.1652 19.1435 14.1781 19.1087 14.1792 19.1017L14.1223 19.0241C13.9873 18.8393 13.8392 18.632 13.7185 18.4662L13.7147 18.4729C13.712 18.478 13.7106 18.4817 13.7118 18.4833C13.4247 18.0697 13.1547 17.5702 13.0797 17.0866C12.9912 16.7141 13.0258 16.3303 13.103 15.9852C13.4343 14.777 14.5195 12.0427 15.9444 10.8708ZM23.7357 27.5808L23.7177 27.5647L23.7335 27.5846C23.7418 27.5949 23.7503 27.6041 23.7641 27.6135C23.7632 27.6104 23.7632 27.6072 23.7636 27.6036C23.7545 27.5966 23.7451 27.5889 23.7357 27.5808ZM26.2553 8.92501C24.1494 8.74348 22.0781 9.20861 20.0685 9.77164L19.9299 9.81159C18.7872 10.1385 17.579 10.4326 16.6134 11.1323C15.2642 12.1683 14.5676 13.8164 13.9596 15.338C13.4287 16.4686 13.7001 17.7434 14.5001 18.5328C14.5834 17.7483 14.7253 16.9868 14.9471 16.2314C14.9934 16.1134 14.9583 16.0747 15.0581 16.0593C15.2088 18.095 14.4667 19.5991 15.9352 22.0117C16.5724 23.1501 15.8348 23.983 17.6341 24.5821L17.6828 24.6007C18.0577 24.7425 18.4671 24.8545 18.8342 24.7752L18.8013 24.7216C18.7678 24.6663 18.7576 24.6395 18.8064 24.6159C18.8051 24.6132 18.8033 24.6105 18.8015 24.6073C18.762 24.5326 18.7238 24.457 18.6874 24.3805C18.6727 24.3854 18.6579 24.389 18.6425 24.3931C18.6525 24.4115 18.6538 24.43 18.626 24.4363C18.5271 24.4703 18.4255 24.4839 18.3215 24.4776L18.2991 24.4759C18.1817 24.4687 18.1076 24.4472 18.0414 24.4273C18.0195 24.4237 17.9975 24.4201 17.9759 24.4156C17.7628 24.3682 17.5373 24.2478 17.3914 24.1284C15.7277 23.181 15.8996 19.9561 17.9503 19.6513C17.9924 17.6208 18.9557 14.1952 20.5544 12.2604C21.9994 10.4806 25.9445 9.70926 28.6891 9.98125C28.7291 9.99453 28.7691 10.0079 28.8091 10.0215C29.2326 10.0592 29.6361 10.2483 30.0599 10.3362C29.7557 10.1076 29.4105 9.95533 29.055 9.82592C28.3466 9.39153 27.5346 9.15649 26.7501 8.99072C26.5875 8.95066 26.4228 8.92861 26.2553 8.92501ZM17.8565 21.2824C17.9667 21.2224 17.9541 21.2804 17.9795 21.2635C18.7726 21.1987 19.6278 21.8948 20.0711 22.4752C20.0361 22.5117 19.9414 22.4036 19.9247 22.3865C19.9225 22.3888 19.9198 22.3906 19.9171 22.3915L19.9295 22.4089C20.1091 22.6675 19.7529 22.3633 19.7196 22.3006C19.7137 22.3037 19.7079 22.3055 19.7012 22.3042C19.7294 22.3319 19.8156 22.4044 19.8305 22.4558L19.8533 22.4749C20.0689 22.66 20.051 22.7993 19.8063 22.5364C19.8121 22.5486 19.8143 22.5598 19.8103 22.5688L19.8187 22.5744C19.9391 22.6588 20.038 22.8938 19.7865 22.6525C19.8126 22.8288 19.5372 22.4881 19.5283 22.4905C19.0516 22.1153 18.3498 21.7505 17.7519 21.7015L17.7313 21.6991C17.6215 21.685 17.5697 21.6523 17.6082 21.5804C17.4731 21.5482 17.5047 21.4815 17.5687 21.4836C17.4734 21.4208 17.5592 21.3607 17.6145 21.3842C17.5765 21.2786 17.729 21.3489 17.7429 21.3342C17.822 21.2118 17.8433 21.3139 17.8565 21.2824ZM16.194 14.7403C16.575 14.6004 17.7001 15.0191 17.6101 15.5738C17.5565 15.7011 17.3799 15.7741 17.2558 15.7022L17.0938 15.5931C16.8118 15.4038 16.5575 15.2378 16.2548 15.0727C16.09 14.9907 16.0191 14.8167 16.194 14.7403ZM18.3613 13.9161L18.2142 13.8201C17.4203 13.2992 16.2979 12.5098 18.2883 13.3265C18.5152 13.424 18.8166 13.4817 18.9404 13.6983C19.1348 14.0975 18.6231 14.1243 18.3613 13.9161ZM18.4505 11.5788C18.3868 11.3364 19.1795 11.6208 19.4103 11.6958L19.4454 11.7091C19.6699 11.793 19.9272 11.8708 20.0615 12.065C20.2188 12.3333 19.9004 12.3889 19.7032 12.2677C19.2988 12.0028 18.8555 11.8029 18.4505 11.5788ZM20.4663 10.4497C20.0201 9.9612 21.2142 10.4292 21.3931 10.5591L21.3982 10.5629C21.5317 10.6571 21.5046 10.86 21.3792 10.9196C21.0224 10.9264 20.7599 10.6283 20.4663 10.4497ZM22.4967 9.91448C21.7873 9.4034 22.7217 9.6465 23.0463 9.84679C23.2675 10.0424 23.0396 10.3725 22.4967 9.91448Z" fill="black"/>
<path fill-rule="evenodd" clip-rule="evenodd" d="M25.0295 22.736C25.7991 22.6423 26.5451 22.8785 27.2974 22.9976C27.6946 23.0604 28.0923 23.1073 28.4943 23.1248C28.5752 23.1283 28.6561 23.1304 28.737 23.1321C28.7445 23.0607 28.7844 22.9951 28.8707 22.9558C29.0478 22.8754 29.1895 22.8391 29.3839 22.8468C29.5618 22.8539 29.7404 22.8722 29.9156 22.9044C30.2337 22.9628 30.5533 23.0956 30.786 23.3261C31.3246 23.8596 31.2427 24.7166 30.8265 25.2977C29.9667 26.4984 28.3974 26.5541 27.0533 26.5385L26.9293 26.5369C25.7055 26.5193 23.9546 26.7022 23.3986 25.3063C23.1942 24.793 23.2226 24.198 23.4729 23.7057C23.7715 23.1184 24.4 22.8126 25.0295 22.736ZM28.8522 24.7352L28.8412 24.7357C28.277 24.7575 27.7129 24.7728 27.1483 24.7828C27.1652 24.9282 27.1825 25.0736 27.2022 25.2186C27.2176 25.3327 27.2342 25.4467 27.2514 25.5606C27.2587 25.6088 27.2855 25.6837 27.278 25.7314L27.2752 25.7503C27.3042 25.7635 27.3305 25.7846 27.3501 25.8153C27.3569 25.826 27.3618 25.8367 27.3667 25.8474C27.8051 25.8508 28.2767 25.8423 28.7235 25.7624L28.7244 25.7527C28.7325 25.6955 28.7563 25.6569 28.7878 25.6305C28.8192 25.448 28.8164 25.2536 28.8285 25.0725C28.8361 24.9601 28.8443 24.8477 28.8522 24.7352ZM26.7171 24.7905C26.3105 24.7975 25.9036 24.8028 25.497 24.7978L25.3124 24.795C25.3514 25.0046 25.3938 25.2136 25.4291 25.4246C25.4658 25.6446 25.2727 25.7844 25.1056 25.7788C25.1243 25.7819 25.1431 25.7851 25.1618 25.7877C25.6841 25.8618 26.2263 25.8421 26.7562 25.8415C26.7277 25.6747 26.7393 25.4864 26.735 25.3472L26.7342 25.3256C26.7261 25.1472 26.7204 24.9688 26.7171 24.7905ZM23.9547 24.752C23.9688 24.8611 23.9963 24.9678 24.0374 25.0671C24.211 25.4868 24.6089 25.6826 25.03 25.7651C24.957 25.7398 24.899 25.679 24.8843 25.575C24.8478 25.3161 24.8347 25.053 24.8337 24.7902C24.5402 24.7875 24.2448 24.7812 23.9547 24.752ZM30.3826 24.6624C30.1737 24.7119 29.9309 24.6892 29.7259 24.6985C29.5338 24.7073 29.3417 24.7149 29.1497 24.7227C29.1587 24.8542 29.1675 24.9856 29.1771 25.1169C29.1895 25.2867 29.1906 25.4662 29.2231 25.6352C29.6096 25.503 29.9559 25.2909 30.2158 24.9518C30.2805 24.8673 30.3385 24.7681 30.3826 24.6624ZM24.9412 23.4246C24.5934 23.5071 24.2642 23.6815 24.0873 24.0006C23.9823 24.19 23.9361 24.4144 23.945 24.6355C24.239 24.6012 24.538 24.5882 24.8356 24.5775C24.8366 24.5237 24.8378 24.4701 24.8394 24.4165L24.844 24.2792C24.8521 24.0174 24.8562 23.6887 24.9412 23.4246ZM26.7415 23.4565L26.5884 23.4392C26.1631 23.3907 25.738 23.3397 25.3127 23.3689C25.2512 23.3732 25.1887 23.3799 25.126 23.3891C25.2012 23.661 25.1949 23.9804 25.2263 24.2497C25.2384 24.3538 25.2538 24.457 25.2707 24.5598L25.3445 24.5564C25.8009 24.5316 26.2577 24.5163 26.7144 24.4982C26.7144 24.4122 26.7148 24.3262 26.7162 24.2401L26.7179 24.154C26.7231 23.9342 26.7089 23.6866 26.7415 23.4565ZM28.8771 23.4216C28.4316 23.4937 27.9713 23.509 27.5338 23.5095C27.359 23.5098 27.1843 23.499 27.0098 23.4835C27.0211 23.5767 27.027 23.6709 27.0356 23.7628C27.0528 23.9485 27.0725 24.134 27.094 24.3192L27.1131 24.4813C27.6744 24.4558 28.2357 24.4282 28.797 24.3996L28.8762 24.3954L28.8984 24.0839C28.9135 23.8761 28.9301 23.6685 28.9536 23.4617L28.936 23.4553C28.9153 23.4468 28.8957 23.4351 28.8771 23.4216ZM29.0705 23.4989C29.0951 23.7926 29.1086 24.0875 29.1267 24.3817L29.4967 24.3619C29.5583 24.3586 29.62 24.3551 29.6816 24.3516C29.9214 24.3377 30.2295 24.2649 30.4665 24.3328C30.4846 24.1168 30.423 23.9063 30.2285 23.7612C29.8871 23.5063 29.4524 23.597 29.0705 23.4989ZM27.8064 20.8733C28.3574 20.557 29.7397 20.2337 29.8272 21.2277C29.8675 21.6852 29.5283 22.0642 29.1322 22.2333L29.1173 22.2396C28.7458 22.3927 28.0874 22.5656 27.7659 22.2336C27.4983 21.9572 27.8532 21.4617 28.1857 21.6881C28.3566 21.8044 28.7162 21.7187 28.9069 21.6634L28.9188 21.6599C29.1246 21.5993 29.3989 21.4052 29.3138 21.1512C29.2385 20.9265 28.9181 20.8855 28.7175 20.8782C28.418 20.8674 28.1266 20.9372 27.8298 20.9598C27.7828 20.9634 27.7683 20.8952 27.8064 20.8733ZM30.0886 19.2749C30.8364 19.2398 31.3015 20.0584 31.1296 20.729C31.0999 20.8448 30.9707 20.9584 30.8461 20.9454L30.8147 20.9425C30.7988 20.9409 30.7827 20.9389 30.768 20.9348C30.6497 20.902 30.5436 20.7786 30.5522 20.6506L30.5545 20.6134C30.5719 20.2965 30.5377 19.9315 30.1621 19.8548C29.8436 19.7897 29.6658 20.0971 29.662 20.38C29.6613 20.4302 29.605 20.4653 29.5607 20.4383C29.3304 20.2978 29.2905 20.0183 29.3785 19.7777C29.49 19.4727 29.7689 19.2899 30.0886 19.2749ZM24.5395 19.4505C25.0837 19.2685 25.6708 19.5593 25.9343 20.0416C26.0267 20.0684 26.119 20.1398 26.1062 20.2492C26.0876 20.4066 26.0597 20.5058 25.9509 20.6251C25.7807 20.8118 25.4619 20.7163 25.3911 20.4865L25.3881 20.4762C25.3078 20.1791 24.9817 19.9832 24.6846 20.0871C24.3376 20.2086 24.3476 20.576 24.1042 20.7901C24.0756 20.8153 24.0413 20.8193 24.007 20.8027C23.7485 20.6774 23.7949 20.3004 23.8871 20.0846C24.008 19.8015 24.243 19.5496 24.5395 19.4505ZM23.7984 17.7938C24.2394 17.3427 25.3892 16.9062 25.6909 17.7392C25.7483 17.8978 25.626 18.1118 25.4612 18.1447C25.1914 18.1985 24.9521 18.0811 24.684 18.1021C24.4671 18.1193 24.2407 18.192 24.0673 18.3267C23.5868 18.7 23.4811 19.3312 23.1464 19.8063C23.1301 19.8294 23.0984 19.8197 23.0954 19.7924C23.0192 19.1008 23.3155 18.2878 23.7984 17.7938ZM29.5492 17.3497C29.8418 17.2461 30.1732 17.255 30.4673 17.3469C30.7636 17.4395 31.0357 17.6154 31.2452 17.8452C31.3403 17.9496 31.4283 18.0647 31.4989 18.1873C31.5364 18.2522 31.5758 18.3864 31.6184 18.4663C31.8489 18.5997 31.9474 18.9038 31.741 19.1201L31.7317 19.1295L31.7041 19.157C31.5932 19.2671 31.4259 19.3148 31.2745 19.2708C30.9356 19.1725 30.8945 18.9049 30.7772 18.6209C30.6997 18.4333 30.5669 18.2673 30.406 18.1454C30.0256 17.8573 29.4019 17.7656 28.9439 17.9013C28.9195 17.9086 28.8909 17.8774 28.9082 17.8548C28.995 17.7421 29.045 17.6496 29.1612 17.5587C29.2792 17.4664 29.4079 17.3998 29.5492 17.3497Z" fill="black"/>
<path fill-rule="evenodd" clip-rule="evenodd" d="M24.5078 25.4687C24.8713 24.615 25.6646 23.9876 26.578 23.7582C27.2487 23.5901 27.9526 23.5955 28.6364 23.6622C28.9946 23.6969 29.3788 23.7253 29.7164 23.8587C30.0047 23.9726 30.2397 24.188 30.4163 24.4408C30.6266 24.7404 30.7696 25.0833 30.87 25.4348C30.8843 25.4847 30.8977 25.5351 30.9102 25.5857C30.8665 25.8508 30.7738 26.0765 30.5288 26.2432C30.2898 26.406 30.0045 26.4726 29.7202 26.4963C29.6923 26.4829 29.6654 26.4691 29.6407 26.4549C29.1976 26.2006 28.8857 25.5996 28.3264 25.681C27.8273 25.7536 27.4988 26.3832 27.202 26.7524C26.2492 26.8637 25.2972 26.5767 24.522 26.0305C24.4826 25.8435 24.4804 25.655 24.5078 25.4687ZM31.5577 24.8211C31.4815 24.6067 31.3855 24.399 31.2717 24.2033C30.8956 23.5564 30.3181 23.0408 29.6326 22.7462C28.0109 22.05 25.9126 22.5407 24.603 23.6825C24.1557 24.0728 23.7033 24.6463 23.5665 25.2632C23.5257 25.2713 23.4871 25.2927 23.4554 25.3227C22.5092 24.7254 21.5348 24.1508 20.7723 23.3229C20.2186 22.7214 19.8335 22.0095 19.5977 21.2273C19.5784 21.1629 19.4748 21.1723 19.478 21.2435C19.4788 21.2602 19.4797 21.2768 19.4806 21.2935C19.4708 21.2629 19.4242 21.2786 19.4206 21.3084C19.2937 22.2586 19.135 23.2661 19.2811 24.2214C19.3686 24.7913 19.6268 25.2086 19.972 25.6592C20.3419 26.1422 20.7607 26.5914 21.1888 27.0222C21.4605 27.2957 21.7444 27.6111 22.077 27.8116C22.464 28.0445 22.9029 28.2216 23.3158 28.4014C23.7359 28.5848 24.1623 28.7542 24.5967 28.9011C25.4652 29.1958 26.3628 29.3994 27.2761 29.4886C28.0073 29.5598 28.843 29.6374 29.5438 29.3616C30.0809 29.1502 30.5145 28.7682 30.8584 28.3086C31.2327 27.808 31.5287 27.2378 31.6923 26.6365C31.8623 26.0119 31.5936 24.9218 31.5577 24.8211Z" fill="black"/>
</g>
<defs>
<clipPath id="clip0_3380_35172">
<rect y="0.119141" width="48" height="48" rx="24" fill="white"/>
</clipPath>
</defs>
</svg>
