<svg width="60" height="60" viewBox="0 0 60 60" fill="none" xmlns="http://www.w3.org/2000/svg">
<path d="M49.0362 31.537H46.1077V34.4655H49.0362V31.537Z" fill="#11D9ED"/>
<path d="M49.0362 28.6086H46.1077V31.537H49.0362V28.6086Z" fill="#11D9ED"/>
<path d="M49.0362 25.6801H46.1077V28.6086H49.0362V25.6801Z" fill="#11D9ED"/>
<path d="M49.0362 22.7487H46.1077V25.6801H49.0362V22.7487Z" fill="#11D9ED"/>
<path d="M46.1077 34.4655L43.1793 34.4655V37.391H46.1077V34.4655Z" fill="#11D9ED"/>
<path d="M46.1077 19.8203H43.1793V22.7487L46.1077 22.7487V19.8203Z" fill="#11D9ED"/>
<path d="M43.1764 37.391H40.2479V40.3194H43.1764V37.391Z" fill="#11D9ED"/>
<path d="M43.1764 16.8918H40.2479V19.8203H43.1764V16.8918Z" fill="#11D9ED"/>
<path d="M40.2479 37.391H37.3194V40.3194H40.2479V37.391Z" fill="#11D9ED"/>
<path d="M40.2479 16.8918H37.3194V19.8203H40.2479V16.8918Z" fill="#11D9ED"/>
<path d="M37.3194 40.3194L34.391 40.3194V43.2479H37.3194L37.3194 40.3194Z" fill="#11D9ED"/>
<path d="M37.3194 13.9634H34.391V16.8918L37.3194 16.8918L37.3194 13.9634Z" fill="#11D9ED"/>
<path d="M34.391 13.9634H31.4625V16.8918H34.391V13.9634Z" fill="#11D9ED"/>
<path d="M34.391 40.3194L31.4625 40.3194V43.2479L34.391 43.2479V40.3194Z" fill="#11D9ED"/>
<path d="M31.4625 40.3194L28.5341 40.3194V43.2479L31.4625 43.2479V40.3194Z" fill="#11D9ED"/>
<path d="M28.5341 40.3194L25.6056 40.3194V43.2479L28.5341 43.2479V40.3194Z" fill="#11D9ED"/>
<path d="M25.6056 40.3194L22.6772 40.3194V43.2479L25.6056 43.2479V40.3194Z" fill="#11D9ED"/>
<path d="M31.4625 13.9634H28.5341V16.8918H31.4625V13.9634Z" fill="#11D9ED"/>
<path d="M28.5341 43.2479L25.6056 43.2479L25.6056 46.1764H28.5341L28.5341 43.2479Z" fill="#11D9ED"/>
<path d="M28.5341 13.9634H25.6056V16.8918H28.5341V13.9634Z" fill="#11D9ED"/>
<path d="M25.6056 46.1764H22.6772V49.1077H25.6056L25.6056 46.1764Z" fill="#11D9ED"/>
<path d="M25.6056 13.9634H22.6772V16.8918H25.6056V13.9634Z" fill="#11D9ED"/>
<path d="M37.3194 16.8918L34.391 16.8918L34.391 19.8203L37.3194 19.8203V16.8918Z" fill="#11D9ED"/>
<path d="M34.391 16.8918H31.4625L31.4625 19.8203H34.391L34.391 16.8918Z" fill="#11D9ED"/>
<path d="M31.4625 16.8918H28.5341L28.5341 19.8203H31.4625L31.4625 16.8918Z" fill="#11D9ED"/>
<path d="M28.5341 16.8918H25.6056L25.6056 19.8203H28.5341L28.5341 16.8918Z" fill="#11D9ED"/>
<path d="M25.6056 16.8918H22.6772V19.8203L25.6056 19.8203L25.6056 16.8918Z" fill="#11D9ED"/>
<path d="M37.3194 37.391L34.391 37.391L34.391 40.3194L37.3194 40.3194V37.391Z" fill="#11D9ED"/>
<path d="M34.391 37.391H31.4625L31.4625 40.3194L34.391 40.3194L34.391 37.391Z" fill="#11D9ED"/>
<path d="M31.4625 37.391H28.5341L28.5341 40.3194L31.4625 40.3194L31.4625 37.391Z" fill="#11D9ED"/>
<path d="M28.5341 37.391H25.6056V40.3194L28.5341 40.3194L28.5341 37.391Z" fill="#11D9ED"/>
<path d="M25.6056 37.391L22.6772 37.391V40.3194L25.6056 40.3194V37.391Z" fill="#11D9ED"/>
<path d="M22.6772 49.1077L19.7487 49.1077V52.0362H22.6772L22.6772 49.1077Z" fill="#11D9ED"/>
<path d="M22.6772 46.1764H19.7487V49.1077L22.6772 49.1077V46.1764Z" fill="#11D9ED"/>
<path d="M25.6056 43.2479L22.6772 43.2479L22.6772 46.1793H25.6056L25.6056 43.2479Z" fill="#11D9ED"/>
<path d="M22.6772 43.2479L19.7487 43.2479V46.1764H22.6772V43.2479Z" fill="#11D9ED"/>
<path d="M19.7487 28.6086H16.8203V31.54H19.7487V28.6086Z" fill="#11D9ED"/>
<path d="M16.8203 28.6086L13.8918 28.6086V31.537H16.8203L16.8203 28.6086Z" fill="#11D9ED"/>
<path d="M46.1077 28.6086L43.1793 28.6086V31.54H46.1077V28.6086Z" fill="#11D9ED"/>
<path d="M43.1793 28.6086L40.2508 28.6086V31.537H43.1793V28.6086Z" fill="#11D9ED"/>
<path d="M37.3195 28.6086H34.391V31.54H37.3195V28.6086Z" fill="#11D9ED"/>
<path d="M34.391 28.6086L31.4625 28.6086V31.537H34.391L34.391 28.6086Z" fill="#11D9ED"/>
<path d="M28.5341 28.6086H25.6056V31.54H28.5341V28.6086Z" fill="#11D9ED"/>
<path d="M25.6056 28.6086L22.6772 28.6086V31.537H25.6056L25.6056 28.6086Z" fill="#11D9ED"/>
<path d="M22.6772 40.3194H19.7487V43.2479L22.6772 43.2479V40.3194Z" fill="#11D9ED"/>
<path d="M22.6772 37.391H19.7487V40.3194H22.6772V37.391Z" fill="#11D9ED"/>
<path d="M22.6772 16.8918L19.7487 16.8918V19.8203H22.6772V16.8918Z" fill="#11D9ED"/>
<path d="M19.7487 37.391H16.8203V40.3194L19.7487 40.3194V37.391Z" fill="#11D9ED"/>
<path d="M19.7487 16.8918H16.8203V19.8203H19.7487V16.8918Z" fill="#11D9ED"/>
<path d="M43.1764 19.8203H40.2479L40.2479 22.7488H43.1764L43.1764 19.8203Z" fill="#11D9ED"/>
<path d="M40.2479 19.8203H37.3194L37.3195 22.7488H40.2479L40.2479 19.8203Z" fill="#11D9ED"/>
<path d="M37.3194 19.8203L34.391 19.8203L34.391 22.7488L37.3195 22.7488L37.3194 19.8203Z" fill="#11D9ED"/>
<path d="M34.391 19.8203H31.4625L31.4625 22.7488H34.391L34.391 19.8203Z" fill="#11D9ED"/>
<path d="M31.4625 19.8203H28.5341L28.5341 22.7488H31.4625L31.4625 19.8203Z" fill="#11D9ED"/>
<path d="M28.5341 19.8203H25.6056L25.6056 22.7488H28.5341L28.5341 19.8203Z" fill="#11D9ED"/>
<path d="M25.6056 19.8203L22.6772 19.8203L22.6772 22.7488L25.6056 22.7488L25.6056 19.8203Z" fill="#11D9ED"/>
<path d="M22.6772 19.8203H19.7487L19.7488 22.7488H22.6772L22.6772 19.8203Z" fill="#11D9ED"/>
<path d="M19.7487 19.8203H16.8203V22.7487L19.7488 22.7488L19.7487 19.8203Z" fill="#11D9ED"/>
<path d="M43.1764 34.4625H40.2479L40.2479 37.391H43.1764L43.1764 34.4625Z" fill="#11D9ED"/>
<path d="M40.2479 34.4625H37.3195L37.3194 37.391H40.2479L40.2479 34.4625Z" fill="#11D9ED"/>
<path d="M37.3195 34.4625L34.391 34.4626L34.391 37.391L37.3194 37.391L37.3195 34.4625Z" fill="#11D9ED"/>
<path d="M34.391 34.4626H31.4625L31.4625 37.391H34.391L34.391 34.4626Z" fill="#11D9ED"/>
<path d="M31.4625 34.4626H28.5341L28.5341 37.391H31.4625L31.4625 34.4626Z" fill="#11D9ED"/>
<path d="M28.5341 34.4626H25.6056L25.6056 37.391H28.5341L28.5341 34.4626Z" fill="#11D9ED"/>
<path d="M25.6056 34.4626L22.6772 34.4625L22.6772 37.391L25.6056 37.391L25.6056 34.4626Z" fill="#11D9ED"/>
<path d="M22.6772 34.4625H19.7488L19.7487 37.391H22.6772L22.6772 34.4625Z" fill="#11D9ED"/>
<path d="M19.7488 34.4625L16.8203 34.4625V37.391H19.7487L19.7488 34.4625Z" fill="#11D9ED"/>
<path d="M16.8203 34.4655H13.8918V37.391L16.8203 37.391L16.8203 34.4655Z" fill="#11D9ED"/>
<path d="M16.8203 19.8203L13.8918 19.8203V22.7487H16.8203V19.8203Z" fill="#11D9ED"/>
<path d="M46.1077 22.7487L43.1793 22.7487V25.6772H46.1077L46.1077 22.7487Z" fill="#11D9ED"/>
<path d="M43.1764 22.7488H40.2479L40.2479 25.6772H43.1764L43.1764 22.7488Z" fill="#11D9ED"/>
<path d="M40.2479 22.7488H37.3195L37.3195 25.6772H40.2479L40.2479 22.7488Z" fill="#11D9ED"/>
<path d="M37.3195 22.7488L34.391 22.7488L34.391 25.6772L37.3195 25.6772L37.3195 22.7488Z" fill="#11D9ED"/>
<path d="M34.391 22.7488H31.4625L31.4625 25.6772H34.391L34.391 22.7488Z" fill="#11D9ED"/>
<path d="M31.4625 22.7488H28.5341L28.5341 25.6772H31.4625L31.4625 22.7488Z" fill="#11D9ED"/>
<path d="M28.5341 22.7488H25.6056L25.6056 25.6772H28.5341L28.5341 22.7488Z" fill="#11D9ED"/>
<path d="M25.6056 22.7488L22.6772 22.7488L22.6772 25.6772L25.6056 25.6772L25.6056 22.7488Z" fill="#11D9ED"/>
<path d="M22.6772 22.7488H19.7488L19.7488 25.6772H22.6772L22.6772 22.7488Z" fill="#11D9ED"/>
<path d="M19.7488 22.7488L16.8203 22.7487L16.8203 25.6772L19.7488 25.6772L19.7488 22.7488Z" fill="#11D9ED"/>
<path d="M16.8203 22.7487H13.8918V25.6772L16.8203 25.6772L16.8203 22.7487Z" fill="#11D9ED"/>
<path d="M46.1077 25.6801L43.1793 25.6801V28.6086L46.1077 28.6086V25.6801Z" fill="#11D9ED"/>
<path d="M43.1764 25.6801H40.2479V28.6086H43.1764V25.6801Z" fill="#11D9ED"/>
<path d="M40.2479 25.6801H37.3195L37.3195 28.6086L40.2479 28.6086V25.6801Z" fill="#11D9ED"/>
<path d="M37.3195 25.6801L34.391 25.6801L34.391 28.6086H37.3195L37.3195 25.6801Z" fill="#11D9ED"/>
<path d="M34.391 25.6801H31.4625L31.4625 28.6086L34.391 28.6086L34.391 25.6801Z" fill="#11D9ED"/>
<path d="M31.4625 25.6801H28.5341L28.5341 28.6086L31.4625 28.6086L31.4625 25.6801Z" fill="#11D9ED"/>
<path d="M28.5341 25.6801H25.6056L25.6056 28.6086H28.5341L28.5341 25.6801Z" fill="#11D9ED"/>
<path d="M25.6056 25.6801L22.6772 25.6801L22.6772 28.6086L25.6056 28.6086L25.6056 25.6801Z" fill="#11D9ED"/>
<path d="M22.6772 25.6801H19.7488L19.7487 28.6086L22.6772 28.6086L22.6772 25.6801Z" fill="#11D9ED"/>
<path d="M19.7488 25.6801L16.8203 25.6801V28.6086H19.7487L19.7488 25.6801Z" fill="#11D9ED"/>
<path d="M16.8203 25.6801L13.8918 25.6801V28.6086L16.8203 28.6086V25.6801Z" fill="#11D9ED"/>
<path d="M46.1077 31.537L43.1793 31.537V34.4655L46.1077 34.4655V31.537Z" fill="#11D9ED"/>
<path d="M43.1764 31.537H40.2479V34.4655H43.1764V31.537Z" fill="#11D9ED"/>
<path d="M40.2479 31.537H37.3195V34.4655H40.2479V31.537Z" fill="#11D9ED"/>
<path d="M37.3195 31.537L34.391 31.537L34.391 34.4654L37.3195 34.4655V31.537Z" fill="#11D9ED"/>
<path d="M34.391 31.537H31.4625L31.4625 34.4654H34.391L34.391 31.537Z" fill="#11D9ED"/>
<path d="M31.4625 31.537L28.5341 31.537V34.4654H31.4625L31.4625 31.537Z" fill="#11D9ED"/>
<path d="M28.5341 31.537L25.6056 31.537L25.6056 34.4654H28.5341V31.537Z" fill="#11D9ED"/>
<path d="M25.6056 31.537H22.6772L22.6772 34.4655L25.6056 34.4654L25.6056 31.537Z" fill="#11D9ED"/>
<path d="M22.6772 31.537L19.7488 31.537V34.4655H22.6772L22.6772 31.537Z" fill="#11D9ED"/>
<path d="M19.7488 31.537L16.8203 31.537V34.4655L19.7488 34.4655V31.537Z" fill="#11D9ED"/>
<path d="M16.8203 31.537H13.8918V34.4655H16.8203V31.537Z" fill="#11D9ED"/>
<path d="M13.8918 31.537L10.9634 31.537V34.4655L13.8918 34.4655V31.537Z" fill="#11D9ED"/>
<path d="M13.8918 28.6086H10.9634V31.537L13.8918 31.537V28.6086Z" fill="#11D9ED"/>
<path d="M13.8918 25.6801H10.9634V28.6086H13.8918V25.6801Z" fill="#11D9ED"/>
<path d="M13.8918 22.7487L10.9634 22.7487V25.6801H13.8918V22.7487Z" fill="#11D9ED"/>
</svg>
