<svg width="60" height="60" viewBox="0 0 60 60" fill="none" xmlns="http://www.w3.org/2000/svg">
<path d="M45.57 47.9101H42.7909V50.6891H45.57V47.9101Z" fill="#11D9ED"/>
<path d="M45.57 45.131H42.7909V47.9101H45.57V45.131Z" fill="#11D9ED"/>
<path d="M45.57 42.3519H42.7909V45.131H45.57V42.3519Z" fill="#11D9ED"/>
<path d="M45.57 39.5728H42.7909V42.3519H45.57V39.5728Z" fill="#11D9ED"/>
<path d="M45.57 36.7937H42.7909V39.5728H45.57V36.7937Z" fill="#11D9ED"/>
<path d="M45.57 34.0146H42.7909V36.7937H45.57V34.0146Z" fill="#11D9ED"/>
<path d="M45.57 31.2355H42.7909V34.0146H45.57V31.2355Z" fill="#11D9ED"/>
<path d="M45.57 28.4536H42.7909V31.2327H45.57V28.4536Z" fill="#11D9ED"/>
<path d="M45.57 25.6746H42.7909V28.4536H45.57V25.6746Z" fill="#11D9ED"/>
<path d="M45.57 22.8954H42.7909V25.6746H45.57V22.8954Z" fill="#11D9ED"/>
<path d="M45.57 20.1164H42.7909V22.8954H45.57V20.1164Z" fill="#11D9ED"/>
<path d="M45.57 17.3373H42.7909V20.1164H45.57V17.3373Z" fill="#11D9ED"/>
<path d="M45.57 14.5582H42.7909V17.3373H45.57V14.5582Z" fill="#11D9ED"/>
<path d="M40.0118 14.5582H37.2327V17.3373H40.0118V14.5582Z" fill="#11D9ED"/>
<path d="M45.57 11.7791H42.7909V14.5582H45.57V11.7791Z" fill="#11D9ED"/>
<path d="M45.57 9H42.7909V11.7791H45.57V9Z" fill="#11D9ED"/>
<path d="M42.7909 47.9101H40.0118V50.6891H42.7909V47.9101Z" fill="#11D9ED"/>
<path d="M42.7909 9H40.0118V11.7791L42.7909 11.7791V9Z" fill="#11D9ED"/>
<path d="M40.0118 47.9101H37.2327V50.6891H40.0118V47.9101Z" fill="#11D9ED"/>
<path d="M40.0118 9H37.2327V11.7791H40.0118V9Z" fill="#11D9ED"/>
<path d="M37.2327 47.9101H34.4536V50.6891H37.2327V47.9101Z" fill="#11D9ED"/>
<path d="M37.2327 9H34.4536V11.7791H37.2327V9Z" fill="#11D9ED"/>
<path d="M34.4536 47.9101H31.6746V50.6891H34.4536V47.9101Z" fill="#11D9ED"/>
<path d="M34.4536 9H31.6746V11.7791H34.4536V9Z" fill="#11D9ED"/>
<path d="M31.6746 47.9101H28.8955V50.6891H31.6746V47.9101Z" fill="#11D9ED"/>
<path d="M31.6746 9H28.8955V11.7791H31.6746V9Z" fill="#11D9ED"/>
<path d="M28.8955 47.9101H26.1164V50.6891H28.8955V47.9101Z" fill="#11D9ED"/>
<path d="M28.8955 9H26.1164V11.7791H28.8955V9Z" fill="#11D9ED"/>
<path d="M26.1164 47.9101H23.3373V50.6891H26.1164V47.9101Z" fill="#11D9ED"/>
<path d="M26.1164 9H23.3373V11.7791H26.1164V9Z" fill="#11D9ED"/>
<path d="M23.3373 9L20.5582 9V11.7791L23.3373 11.7791V9Z" fill="#11D9ED"/>
<path d="M20.5582 9H17.7791V11.7791H20.5582V9Z" fill="#11D9ED"/>
<path d="M17.7791 9L15 9V11.7791L17.7791 11.7791V9Z" fill="#11D9ED"/>
<path d="M23.3373 47.9101H20.5582V50.6891H23.3373V47.9101Z" fill="#11D9ED"/>
<path d="M20.5582 47.9101H17.7791V50.6891H20.5582V47.9101Z" fill="#11D9ED"/>
<path d="M17.7791 47.9101H15V50.6891H17.7791V47.9101Z" fill="#11D9ED"/>
<path d="M17.7791 45.131H15V47.9101H17.7791L17.7791 45.131Z" fill="#11D9ED"/>
<path d="M17.7791 42.3519H15V45.131H17.7791V42.3519Z" fill="#11D9ED"/>
<path d="M23.3373 42.3519H20.5582V45.131H23.3373V42.3519Z" fill="#11D9ED"/>
<path d="M17.7791 39.5728H15V42.3519H17.7791V39.5728Z" fill="#11D9ED"/>
<path d="M17.7791 36.7937H15V39.5728H17.7791V36.7937Z" fill="#11D9ED"/>
<path d="M17.7791 34.0146H15V36.7937H17.7791V34.0146Z" fill="#11D9ED"/>
<path d="M17.7791 31.2355H15V34.0146H17.7791V31.2355Z" fill="#11D9ED"/>
<path d="M17.7791 28.4536H15V31.2327H17.7791V28.4536Z" fill="#11D9ED"/>
<path d="M17.7791 25.6746H15V28.4536H17.7791V25.6746Z" fill="#11D9ED"/>
<path d="M17.7791 22.8954H15V25.6746H17.7791V22.8954Z" fill="#11D9ED"/>
<path d="M17.7791 20.1164H15V22.8954H17.7791V20.1164Z" fill="#11D9ED"/>
<path d="M17.7791 17.3373H15V20.1164H17.7791V17.3373Z" fill="#11D9ED"/>
<path d="M17.7791 14.5582H15L15 17.3373H17.7791L17.7791 14.5582Z" fill="#11D9ED"/>
<path d="M17.7791 11.7791L15 11.7791L15 14.5582H17.7791L17.7791 11.7791Z" fill="#11D9ED"/>
<path d="M31.6746 36.7937H28.8955V39.5728H31.6746V36.7937Z" fill="#11D9ED"/>
<path d="M34.4536 34.0146H31.6746L31.6746 36.7937L34.4536 36.7937V34.0146Z" fill="#11D9ED"/>
<path d="M31.6746 34.0146H28.8955L28.8955 36.7937H31.6746L31.6746 34.0146Z" fill="#11D9ED"/>
<path d="M28.8955 34.0146L26.1164 34.0146V36.7937L28.8955 36.7937L28.8955 34.0146Z" fill="#11D9ED"/>
<path d="M37.2327 25.6773H34.4536V28.4592H37.2327V25.6773Z" fill="#11D9ED"/>
<path d="M34.4536 25.6773L31.6746 25.6773V28.4564H34.4536L34.4536 25.6773Z" fill="#11D9ED"/>
<path d="M28.8955 25.6773H26.1164V28.4592H28.8955V25.6773Z" fill="#11D9ED"/>
<path d="M31.6746 25.6773H28.8955V28.4592H31.6746L31.6746 25.6773Z" fill="#11D9ED"/>
<path d="M40.0118 25.6773L37.2327 25.6773V28.4592L40.0118 28.4592V25.6773Z" fill="#11D9ED"/>
<path d="M26.1164 25.6773H23.3373V28.4564H26.1164L26.1164 25.6773Z" fill="#11D9ED"/>
<path d="M37.2327 31.2355H34.4536L34.4536 34.0146L37.2327 34.0146V31.2355Z" fill="#11D9ED"/>
<path d="M34.4536 31.2355H31.6746V34.0146H34.4536L34.4536 31.2355Z" fill="#11D9ED"/>
<path d="M31.6746 31.2355H28.8955L28.8955 34.0146H31.6746V31.2355Z" fill="#11D9ED"/>
<path d="M28.8955 31.2355H26.1164L26.1164 34.0146L28.8955 34.0146L28.8955 31.2355Z" fill="#11D9ED"/>
<path d="M26.1164 31.2355L23.3373 31.2355V34.0146L26.1164 34.0146L26.1164 31.2355Z" fill="#11D9ED"/>
<path d="M37.2327 20.1164H34.4536V22.8954H37.2327V20.1164Z" fill="#11D9ED"/>
<path d="M34.4536 20.1164H31.6746V22.8954H34.4536V20.1164Z" fill="#11D9ED"/>
<path d="M28.8955 20.1164H26.1164V22.8954H28.8955V20.1164Z" fill="#11D9ED"/>
<path d="M26.1164 20.1164L23.3373 20.1164V22.8954L26.1164 22.8954V20.1164Z" fill="#11D9ED"/>
<path d="M40.0118 22.8982H37.2327L37.2327 25.6773L40.0118 25.6773L40.0118 22.8982Z" fill="#11D9ED"/>
<path d="M37.2327 22.8982L34.4536 22.8982L34.4536 25.6773H37.2327L37.2327 22.8982Z" fill="#11D9ED"/>
<path d="M34.4536 22.8982H31.6746L31.6746 25.6773L34.4536 25.6773L34.4536 22.8982Z" fill="#11D9ED"/>
<path d="M31.6746 22.8982H28.8955L28.8955 25.6773H31.6746L31.6746 22.8982Z" fill="#11D9ED"/>
<path d="M28.8955 22.8982H26.1164L26.1164 25.6773H28.8955L28.8955 22.8982Z" fill="#11D9ED"/>
<path d="M26.1164 22.8982L23.3373 22.8982L23.3373 25.6773H26.1164L26.1164 22.8982Z" fill="#11D9ED"/>
<path d="M23.3373 22.8982L20.5582 22.8982V25.6773L23.3373 25.6773L23.3373 22.8982Z" fill="#11D9ED"/>
<path d="M23.3373 25.6773L20.5582 25.6773L20.5582 28.4564L23.3373 28.4564V25.6773Z" fill="#11D9ED"/>
<path d="M40.0118 28.4564H37.2327L37.2327 31.2355L40.0118 31.2355V28.4564Z" fill="#11D9ED"/>
<path d="M37.2327 28.4564L34.4536 28.4564L34.4536 31.2355H37.2327L37.2327 28.4564Z" fill="#11D9ED"/>
<path d="M34.4536 28.4564H31.6746L31.6746 31.2355H34.4536L34.4536 28.4564Z" fill="#11D9ED"/>
<path d="M31.6746 28.4564L28.8955 28.4564L28.8955 31.2355H31.6746L31.6746 28.4564Z" fill="#11D9ED"/>
<path d="M28.8955 28.4564L26.1164 28.4564L26.1164 31.2355H28.8955L28.8955 28.4564Z" fill="#11D9ED"/>
<path d="M26.1164 28.4564H23.3373V31.2355L26.1164 31.2355L26.1164 28.4564Z" fill="#11D9ED"/>
<path d="M23.3373 28.4564L20.5582 28.4564L20.5582 31.2355L23.3373 31.2355V28.4564Z" fill="#11D9ED"/>
</svg>
