<svg width="120" height="121" viewBox="0 0 120 121" fill="none" xmlns="http://www.w3.org/2000/svg">
<path d="M105 45.7453H99.0247V51.7207H105V45.7453Z" fill="#725BFF"/>
<path d="M99.0247 51.7207H93.0493V57.6962H99.0248L99.0247 51.7207Z" fill="#725BFF"/>
<path d="M99.0248 39.7698H93.0493V45.7453H99.0247L99.0248 39.7698Z" fill="#725BFF"/>
<path d="M93.0493 57.6962L87.0738 57.6962V63.6717H93.0493V57.6962Z" fill="#725BFF"/>
<path d="M93.0493 51.7207H87.0738V57.6962L93.0493 57.6962V51.7207Z" fill="#725BFF"/>
<path d="M93.0493 33.7943H87.0738V39.7698H93.0493V33.7943Z" fill="#725BFF"/>
<path d="M87.0738 63.6717H81.0984V69.6471H87.0738V63.6717Z" fill="#725BFF"/>
<path d="M87.0738 57.6962H81.0984V63.6717H87.0738V57.6962Z" fill="#725BFF"/>
<path d="M87.0738 51.7207H81.0984V57.6962H87.0738V51.7207Z" fill="#725BFF"/>
<path d="M87.0738 27.8188H81.0984V33.7943H87.0738V27.8188Z" fill="#725BFF"/>
<path d="M81.0984 69.6471H75.1229V75.6226H81.0984V69.6471Z" fill="#725BFF"/>
<path d="M81.0984 63.6717H75.1229V69.6471H81.0984V63.6717Z" fill="#725BFF"/>
<path d="M81.0984 57.6962H75.1229V63.6717H81.0984V57.6962Z" fill="#725BFF"/>
<path d="M81.0984 51.7207H75.1229V57.6962H81.0984V51.7207Z" fill="#725BFF"/>
<path d="M81.0984 27.8188H75.1229V33.7943H81.0984V27.8188Z" fill="#725BFF"/>
<path d="M75.1229 75.6226H69.1474V81.5981H75.1229V75.6226Z" fill="#725BFF"/>
<path d="M75.1229 69.6471H69.1474V75.6226H75.1229V69.6471Z" fill="#725BFF"/>
<path d="M75.1229 63.6717H69.1474V69.6471H75.1229V63.6717Z" fill="#725BFF"/>
<path d="M75.1229 57.6962H69.1474V63.6717H75.1229V57.6962Z" fill="#725BFF"/>
<path d="M75.1229 51.7207H69.1474V57.6962H75.1229V51.7207Z" fill="#725BFF"/>
<path d="M75.1229 27.8188H69.1474V33.7943H75.1229V27.8188Z" fill="#725BFF"/>
<path d="M69.1474 81.5981H63.1719V87.5736H69.1474V81.5981Z" fill="#725BFF"/>
<path d="M69.1474 75.6226H63.1719V81.5981H69.1474V75.6226Z" fill="#725BFF"/>
<path d="M69.1474 69.6471H63.1719V75.6226H69.1474V69.6471Z" fill="#725BFF"/>
<path d="M69.1474 63.6717H63.1719V69.6471H69.1474V63.6717Z" fill="#725BFF"/>
<path d="M69.1474 57.6962H63.1719V63.6717H69.1474V57.6962Z" fill="#725BFF"/>
<path d="M69.1474 51.7207H63.1719V57.6962H69.1474V51.7207Z" fill="#725BFF"/>
<path d="M69.1474 33.7943H63.1719V39.7698H69.1474V33.7943Z" fill="#725BFF"/>
<path d="M69.1474 27.8188H63.1719V33.7943H69.1474V27.8188Z" fill="#725BFF"/>
<path d="M63.1719 87.5736H57.1965V93.549H63.1719V87.5736Z" fill="#725BFF"/>
<path d="M63.1719 39.7698H57.1965V45.7453H63.1719V39.7698Z" fill="#725BFF"/>
<path d="M63.1719 33.7943H57.1965V39.7698H63.1719V33.7943Z" fill="#725BFF"/>
<path d="M63.1719 27.8188H57.1965V33.7943H63.1719V27.8188Z" fill="#725BFF"/>
<path d="M57.1965 81.5981H51.221V87.5736H57.1965V81.5981Z" fill="#725BFF"/>
<path d="M57.1965 33.7943H51.221V39.7698H57.1965V33.7943Z" fill="#725BFF"/>
<path d="M57.1965 27.8188H51.221V33.7943H57.1965V27.8188Z" fill="#725BFF"/>
<path d="M51.221 75.6226H45.2455V81.5981H51.221V75.6226Z" fill="#725BFF"/>
<path d="M51.221 27.8188H45.2455V33.7943H51.221V27.8188Z" fill="#725BFF"/>
<path d="M45.2455 69.6471H39.27V75.6226H45.2455V69.6471Z" fill="#725BFF"/>
<path d="M45.2455 27.8188H39.27V33.7943H45.2455V27.8188Z" fill="#725BFF"/>
<path d="M39.27 63.6717H33.2946V69.6471H39.27V63.6717Z" fill="#725BFF"/>
<path d="M39.27 27.8188H33.2946V33.7943H39.27V27.8188Z" fill="#725BFF"/>
<path d="M33.2946 57.6962H27.3191V63.6717H33.2946V57.6962Z" fill="#725BFF"/>
<path d="M57.1965 45.7453L51.221 45.7453V51.7207H57.1964L57.1965 45.7453Z" fill="#725BFF"/>
<path d="M51.221 45.7453H45.2455V51.7207H51.221V45.7453Z" fill="#725BFF"/>
<path d="M51.221 39.7698L45.2455 39.7698V45.7453H51.221L51.221 39.7698Z" fill="#725BFF"/>
<path d="M45.2455 45.7453H39.27V51.7207H45.2455V45.7453Z" fill="#725BFF"/>
<path d="M45.2455 39.7698H39.27V45.7453H45.2455V39.7698Z" fill="#725BFF"/>
<path d="M45.2455 33.7943H39.27L39.27 39.7698H45.2455L45.2455 33.7943Z" fill="#725BFF"/>
<path d="M39.27 45.7453H33.2946V51.7207H39.27V45.7453Z" fill="#725BFF"/>
<path d="M39.27 39.7698H33.2946V45.7453H39.27V39.7698Z" fill="#725BFF"/>
<path d="M33.2946 45.7453H27.3191V51.7207H33.2946V45.7453Z" fill="#725BFF"/>
<path d="M33.2946 33.7943H27.3191V39.7698L33.2946 39.7698L33.2946 33.7943Z" fill="#725BFF"/>
<path d="M27.3191 51.7207H21.3436V57.6962L27.3191 57.6962L27.3191 51.7207Z" fill="#725BFF"/>
<path d="M27.3191 39.7698H21.3436V45.7453L27.3191 45.7453L27.3191 39.7698Z" fill="#725BFF"/>
<path d="M21.3436 45.7453H15.3682V51.7207H21.3436V45.7453Z" fill="#725BFF"/>
</svg>
