<svg width="60" height="60" viewBox="0 0 60 60" fill="none" xmlns="http://www.w3.org/2000/svg">
<path d="M51.2134 28.72H48.4014V31.532H51.2134V28.72Z" fill="#11D9ED"/>
<path d="M48.4014 31.532L45.5894 31.532V34.344H48.4014L48.4014 31.532Z" fill="#11D9ED"/>
<path d="M48.4014 28.72H45.5894V31.532L48.4014 31.532V28.72Z" fill="#11D9ED"/>
<path d="M48.4014 25.908H45.5894V28.72H48.4014L48.4014 25.908Z" fill="#11D9ED"/>
<path d="M45.5894 37.1559H42.7775V39.9679H45.5894V37.1559Z" fill="#11D9ED"/>
<path d="M45.5894 34.344H42.7775V37.1559H45.5894V34.344Z" fill="#11D9ED"/>
<path d="M45.5894 28.72H42.7775V31.532L45.5894 31.532V28.72Z" fill="#11D9ED"/>
<path d="M45.5894 23.096H42.7775V25.908L45.5894 25.908V23.096Z" fill="#11D9ED"/>
<path d="M45.5894 20.2841H42.7775V23.096H45.5894V20.2841Z" fill="#11D9ED"/>
<path d="M42.7775 39.9679L39.9655 39.9679V42.7799H42.7775L42.7775 39.9679Z" fill="#11D9ED"/>
<path d="M42.7775 28.72H39.9655V31.532H42.7775V28.72Z" fill="#11D9ED"/>
<path d="M42.7775 17.4721H39.9655V20.2841H42.7775L42.7775 17.4721Z" fill="#11D9ED"/>
<path d="M39.9655 42.7799L37.1535 42.7799V45.5919H39.9655L39.9655 42.7799Z" fill="#11D9ED"/>
<path d="M39.9655 14.6601H37.1535V17.4721H39.9655L39.9655 14.6601Z" fill="#11D9ED"/>
<path d="M37.1535 42.7799H34.3415V45.5919H37.1535V42.7799Z" fill="#11D9ED"/>
<path d="M37.1535 31.532H34.3415V34.344H37.1535V31.532Z" fill="#11D9ED"/>
<path d="M37.1535 28.72H34.3415V31.532H37.1535V28.72Z" fill="#11D9ED"/>
<path d="M37.1535 25.908H34.3415V28.72H37.1535V25.908Z" fill="#11D9ED"/>
<path d="M37.1535 14.6601H34.3415V17.4721H37.1535V14.6601Z" fill="#11D9ED"/>
<path d="M34.3415 45.5919L31.5295 45.5919V48.4039H34.3415L34.3415 45.5919Z" fill="#11D9ED"/>
<path d="M34.3415 34.344H31.5295V37.1559H34.3415L34.3415 34.344Z" fill="#11D9ED"/>
<path d="M34.3415 31.532H31.5295V34.344H34.3415V31.532Z" fill="#11D9ED"/>
<path d="M34.3415 28.72H31.5295V31.532H34.3415V28.72Z" fill="#11D9ED"/>
<path d="M34.3415 25.908H31.5295V28.72H34.3415V25.908Z" fill="#11D9ED"/>
<path d="M34.3415 23.096H31.5295V25.908H34.3415L34.3415 23.096Z" fill="#11D9ED"/>
<path d="M34.3415 11.8481H31.5295V14.6601H34.3415L34.3415 11.8481Z" fill="#11D9ED"/>
<path d="M31.5295 48.4039L28.7176 48.4039V51.2158H31.5295V48.4039Z" fill="#11D9ED"/>
<path d="M31.5295 45.5919H28.7176V48.4039L31.5295 48.4039V45.5919Z" fill="#11D9ED"/>
<path d="M31.5295 42.7799H28.7176V45.5919H31.5295V42.7799Z" fill="#11D9ED"/>
<path d="M31.5295 39.9679H28.7176V42.7799H31.5295V39.9679Z" fill="#11D9ED"/>
<path d="M31.5295 34.344H28.7176V37.1559H31.5295V34.344Z" fill="#11D9ED"/>
<path d="M31.5295 31.532H28.7176V34.344H31.5295V31.532Z" fill="#11D9ED"/>
<path d="M31.5295 28.72H28.7176V31.532H31.5295V28.72Z" fill="#11D9ED"/>
<path d="M31.5295 25.908H28.7176V28.72H31.5295V25.908Z" fill="#11D9ED"/>
<path d="M31.5295 23.096H28.7176V25.908H31.5295V23.096Z" fill="#11D9ED"/>
<path d="M31.5295 17.4721H28.7176V20.2841H31.5295V17.4721Z" fill="#11D9ED"/>
<path d="M31.5295 14.6601H28.7176V17.4721H31.5295V14.6601Z" fill="#11D9ED"/>
<path d="M31.5295 11.8481H28.7176V14.6601H31.5295V11.8481Z" fill="#11D9ED"/>
<path d="M31.5295 9.03613H28.7176V11.8481H31.5295V9.03613Z" fill="#11D9ED"/>
<path d="M28.7176 45.5919H25.9056V48.4039L28.7176 48.4039V45.5919Z" fill="#11D9ED"/>
<path d="M28.7176 34.344H25.9056V37.1559H28.7176V34.344Z" fill="#11D9ED"/>
<path d="M28.7176 31.532H25.9056V34.344H28.7176V31.532Z" fill="#11D9ED"/>
<path d="M28.7176 28.72H25.9056V31.532H28.7176V28.72Z" fill="#11D9ED"/>
<path d="M28.7176 25.908H25.9056V28.72H28.7176V25.908Z" fill="#11D9ED"/>
<path d="M28.7176 23.096H25.9056V25.908H28.7176V23.096Z" fill="#11D9ED"/>
<path d="M28.7176 11.8481H25.9056V14.6601H28.7176V11.8481Z" fill="#11D9ED"/>
<path d="M25.9056 42.7799H23.0936V45.5919L25.9056 45.5919V42.7799Z" fill="#11D9ED"/>
<path d="M25.9056 31.532H23.0936V34.344H25.9056V31.532Z" fill="#11D9ED"/>
<path d="M25.9056 28.72H23.0936V31.532H25.9056V28.72Z" fill="#11D9ED"/>
<path d="M25.9056 25.908H23.0936V28.72H25.9056V25.908Z" fill="#11D9ED"/>
<path d="M25.9056 14.6601H23.0936V17.4721H25.9056V14.6601Z" fill="#11D9ED"/>
<path d="M23.0936 42.7799H20.2816V45.5919H23.0936V42.7799Z" fill="#11D9ED"/>
<path d="M23.0936 14.6601H20.2816V17.4721H23.0936V14.6601Z" fill="#11D9ED"/>
<path d="M20.2816 39.9679H17.4696V42.7799L20.2816 42.7799L20.2816 39.9679Z" fill="#11D9ED"/>
<path d="M20.2816 28.72H17.4696V31.532H20.2816V28.72Z" fill="#11D9ED"/>
<path d="M20.2816 17.4721H17.4696V20.2841H20.2816L20.2816 17.4721Z" fill="#11D9ED"/>
<path d="M17.4696 37.1559H14.6577V39.9679L17.4696 39.9679L17.4696 37.1559Z" fill="#11D9ED"/>
<path d="M17.4696 34.344H14.6577V37.1559H17.4696V34.344Z" fill="#11D9ED"/>
<path d="M17.4696 28.72H14.6577V31.532H17.4696V28.72Z" fill="#11D9ED"/>
<path d="M17.4696 23.096H14.6577V25.908H17.4696V23.096Z" fill="#11D9ED"/>
<path d="M17.4696 20.2841H14.6577V23.096H17.4696L17.4696 20.2841Z" fill="#11D9ED"/>
<path d="M14.6577 31.532L11.8457 31.532V34.344H14.6577V31.532Z" fill="#11D9ED"/>
<path d="M14.6577 28.72H11.8457V31.532L14.6577 31.532V28.72Z" fill="#11D9ED"/>
<path d="M14.6577 25.908L11.8457 25.908V28.72H14.6577V25.908Z" fill="#11D9ED"/>
<path d="M11.8457 28.72H9.03369V31.532L11.8457 31.532V28.72Z" fill="#11D9ED"/>
</svg>
