<svg width="60" height="60" viewBox="0 0 60 60" fill="none" xmlns="http://www.w3.org/2000/svg">
<path d="M47.6938 34.9655H45.1481V37.5113H47.6938V34.9655Z" fill="#11D9ED"/>
<path d="M47.6938 32.4198H45.1481V34.9655H47.6938V32.4198Z" fill="#11D9ED"/>
<path d="M47.6938 29.8765H45.1481V32.4198H47.6938V29.8765Z" fill="#11D9ED"/>
<path d="M47.6938 27.3308H45.1481V29.8765H47.6938V27.3308Z" fill="#11D9ED"/>
<path d="M47.6938 24.785H45.1481V27.3308H47.6938V24.785Z" fill="#11D9ED"/>
<path d="M47.6938 22.2393H45.1481V24.785H47.6938V22.2393Z" fill="#11D9ED"/>
<path d="M45.1481 40.057H42.6023V42.6053H45.1481V40.057Z" fill="#11D9ED"/>
<path d="M45.1481 37.5113L42.6023 37.5113V40.057H45.1481L45.1481 37.5113Z" fill="#11D9ED"/>
<path d="M45.1481 34.9655H42.6023V37.5113L45.1481 37.5113V34.9655Z" fill="#11D9ED"/>
<path d="M45.1481 32.4198H42.6023V34.9655H45.1481V32.4198Z" fill="#11D9ED"/>
<path d="M45.1481 29.8765H42.6023V32.4198H45.1481V29.8765Z" fill="#11D9ED"/>
<path d="M45.1481 27.3308H42.6023V29.8765H45.1481V27.3308Z" fill="#11D9ED"/>
<path d="M45.1481 24.785H42.6023V27.3308H45.1481V24.785Z" fill="#11D9ED"/>
<path d="M45.1481 22.2393H42.6023V24.785H45.1481V22.2393Z" fill="#11D9ED"/>
<path d="M45.1481 19.691H42.6023V22.2393H45.1481L45.1481 19.691Z" fill="#11D9ED"/>
<path d="M45.1481 17.1452H42.6023V19.691H45.1481V17.1452Z" fill="#11D9ED"/>
<path d="M42.6023 42.6053L40.0566 42.6053V45.1511H42.6023L42.6023 42.6053Z" fill="#11D9ED"/>
<path d="M42.6023 40.057H40.0566V42.6053L42.6023 42.6053V40.057Z" fill="#11D9ED"/>
<path d="M42.6023 37.5113H40.0566V40.057H42.6023V37.5113Z" fill="#11D9ED"/>
<path d="M42.6023 34.9655H40.0566V37.5113H42.6023V34.9655Z" fill="#11D9ED"/>
<path d="M42.6023 32.4198H40.0566V34.9655H42.6023V32.4198Z" fill="#11D9ED"/>
<path d="M42.6023 24.785H40.0566V27.3308L42.6023 27.3308V24.785Z" fill="#11D9ED"/>
<path d="M42.6023 22.2393H40.0566V24.785H42.6023V22.2393Z" fill="#11D9ED"/>
<path d="M42.6023 19.691H40.0566V22.2393H42.6023V19.691Z" fill="#11D9ED"/>
<path d="M42.6023 17.1452H40.0566V19.691H42.6023V17.1452Z" fill="#11D9ED"/>
<path d="M42.6023 14.5994H40.0566V17.1452H42.6023L42.6023 14.5994Z" fill="#11D9ED"/>
<path d="M40.0566 42.6053H37.5108V45.1511H40.0566V42.6053Z" fill="#11D9ED"/>
<path d="M40.0566 40.057H37.5108V42.6053H40.0566V40.057Z" fill="#11D9ED"/>
<path d="M40.0566 37.5113H37.5108V40.057H40.0566V37.5113Z" fill="#11D9ED"/>
<path d="M40.0566 34.9655H37.5108V37.5113H40.0566V34.9655Z" fill="#11D9ED"/>
<path d="M40.0566 32.4198H37.5108V34.9655H40.0566V32.4198Z" fill="#11D9ED"/>
<path d="M40.0566 24.785H37.5108V27.3308H40.0566V24.785Z" fill="#11D9ED"/>
<path d="M40.0566 22.2393H37.5108V24.785H40.0566V22.2393Z" fill="#11D9ED"/>
<path d="M40.0566 19.691H37.5108V22.2393H40.0566V19.691Z" fill="#11D9ED"/>
<path d="M40.0566 17.1452H37.5108V19.691H40.0566V17.1452Z" fill="#11D9ED"/>
<path d="M40.0566 14.5994H37.5108V17.1452H40.0566V14.5994Z" fill="#11D9ED"/>
<path d="M37.5108 45.1511L34.965 45.1511V47.6969H37.5108L37.5108 45.1511Z" fill="#11D9ED"/>
<path d="M37.5108 42.6053H34.965V45.1511L37.5108 45.1511V42.6053Z" fill="#11D9ED"/>
<path d="M37.5108 40.057H34.965V42.6053H37.5108V40.057Z" fill="#11D9ED"/>
<path d="M37.5108 37.5113H34.965V40.057H37.5108V37.5113Z" fill="#11D9ED"/>
<path d="M37.5108 34.9655H34.965V37.5113H37.5108V34.9655Z" fill="#11D9ED"/>
<path d="M37.5108 32.4198H34.965V34.9655H37.5108V32.4198Z" fill="#11D9ED"/>
<path d="M37.5108 24.785H34.965V27.3308H37.5108V24.785Z" fill="#11D9ED"/>
<path d="M37.5108 22.2393H34.965V24.785H37.5108V22.2393Z" fill="#11D9ED"/>
<path d="M37.5108 19.691H34.965V22.2393H37.5108V19.691Z" fill="#11D9ED"/>
<path d="M37.5108 17.1452H34.965V19.691H37.5108V17.1452Z" fill="#11D9ED"/>
<path d="M37.5108 14.5994H34.965V17.1452H37.5108V14.5994Z" fill="#11D9ED"/>
<path d="M37.5108 12.0537H34.965V14.5994H37.5108L37.5108 12.0537Z" fill="#11D9ED"/>
<path d="M34.965 45.1511H32.4193V47.6969H34.965V45.1511Z" fill="#11D9ED"/>
<path d="M34.965 42.6053H32.4193V45.1511H34.965V42.6053Z" fill="#11D9ED"/>
<path d="M34.965 40.057H32.4193V42.6053H34.965V40.057Z" fill="#11D9ED"/>
<path d="M34.965 37.5113H32.4193V40.057H34.965V37.5113Z" fill="#11D9ED"/>
<path d="M34.965 34.9655H32.4193V37.5113H34.965V34.9655Z" fill="#11D9ED"/>
<path d="M34.965 32.4198H32.4193V34.9655H34.965V32.4198Z" fill="#11D9ED"/>
<path d="M34.965 24.785H32.4193V27.3308H34.965V24.785Z" fill="#11D9ED"/>
<path d="M34.965 22.2393H32.4193V24.785H34.965V22.2393Z" fill="#11D9ED"/>
<path d="M34.965 19.691H32.4193V22.2393H34.965V19.691Z" fill="#11D9ED"/>
<path d="M34.965 17.1452H32.4193V19.691H34.965V17.1452Z" fill="#11D9ED"/>
<path d="M34.965 14.5994H32.4193V17.1452H34.965V14.5994Z" fill="#11D9ED"/>
<path d="M34.965 12.0537H32.4193V14.5994H34.965V12.0537Z" fill="#11D9ED"/>
<path d="M32.4193 45.1511H29.8735V47.6969H32.4193V45.1511Z" fill="#11D9ED"/>
<path d="M32.4193 42.6053H29.8735V45.1511H32.4193V42.6053Z" fill="#11D9ED"/>
<path d="M32.4193 40.057H29.8735V42.6053H32.4193V40.057Z" fill="#11D9ED"/>
<path d="M32.4193 37.5113H29.8735V40.057H32.4193V37.5113Z" fill="#11D9ED"/>
<path d="M32.4193 34.9655H29.8735V37.5113H32.4193V34.9655Z" fill="#11D9ED"/>
<path d="M32.4193 32.4198H29.8735V34.9655H32.4193V32.4198Z" fill="#11D9ED"/>
<path d="M32.4193 24.785H29.8735V27.3308H32.4193V24.785Z" fill="#11D9ED"/>
<path d="M32.4193 22.2393H29.8735V24.785H32.4193V22.2393Z" fill="#11D9ED"/>
<path d="M32.4193 19.691H29.8735V22.2393H32.4193V19.691Z" fill="#11D9ED"/>
<path d="M32.4193 17.1452H29.8735V19.691H32.4193V17.1452Z" fill="#11D9ED"/>
<path d="M32.4193 14.5994H29.8735V17.1452H32.4193V14.5994Z" fill="#11D9ED"/>
<path d="M32.4193 12.0537H29.8735V14.5994H32.4193V12.0537Z" fill="#11D9ED"/>
<path d="M29.8735 45.1511H27.3278V47.6969H29.8735V45.1511Z" fill="#11D9ED"/>
<path d="M29.8735 42.6053H27.3278V45.1511H29.8735V42.6053Z" fill="#11D9ED"/>
<path d="M29.8735 40.057H27.3278V42.6053H29.8735V40.057Z" fill="#11D9ED"/>
<path d="M29.8735 37.5113H27.3278V40.057H29.8735V37.5113Z" fill="#11D9ED"/>
<path d="M29.8735 34.9655H27.3278V37.5113H29.8735V34.9655Z" fill="#11D9ED"/>
<path d="M29.8735 32.4198H27.3278V34.9655H29.8735V32.4198Z" fill="#11D9ED"/>
<path d="M29.8735 24.785H27.3278V27.3308H29.8735V24.785Z" fill="#11D9ED"/>
<path d="M29.8735 22.2393H27.3278V24.785H29.8735V22.2393Z" fill="#11D9ED"/>
<path d="M29.8735 19.691H27.3278V22.2393H29.8735V19.691Z" fill="#11D9ED"/>
<path d="M29.8735 17.1452H27.3278V19.691H29.8735V17.1452Z" fill="#11D9ED"/>
<path d="M29.8735 14.5994H27.3278V17.1452H29.8735V14.5994Z" fill="#11D9ED"/>
<path d="M29.8735 12.0537H27.3278V14.5994H29.8735V12.0537Z" fill="#11D9ED"/>
<path d="M27.3278 45.1511H24.782V47.6969H27.3278V45.1511Z" fill="#11D9ED"/>
<path d="M27.3278 42.6053H24.782V45.1511H27.3278V42.6053Z" fill="#11D9ED"/>
<path d="M27.3278 40.057H24.782V42.6053H27.3278V40.057Z" fill="#11D9ED"/>
<path d="M27.3278 37.5113H24.782V40.057H27.3278V37.5113Z" fill="#11D9ED"/>
<path d="M27.3278 34.9655H24.782V37.5113H27.3278V34.9655Z" fill="#11D9ED"/>
<path d="M27.3278 32.4198H24.782V34.9655H27.3278V32.4198Z" fill="#11D9ED"/>
<path d="M27.3278 24.785H24.782V27.3308H27.3278V24.785Z" fill="#11D9ED"/>
<path d="M27.3278 22.2393H24.782V24.785H27.3278V22.2393Z" fill="#11D9ED"/>
<path d="M27.3278 19.691H24.782V22.2393H27.3278V19.691Z" fill="#11D9ED"/>
<path d="M27.3278 17.1452H24.782V19.691H27.3278V17.1452Z" fill="#11D9ED"/>
<path d="M27.3278 14.5994H24.782V17.1452H27.3278V14.5994Z" fill="#11D9ED"/>
<path d="M27.3278 12.0537H24.782V14.5994H27.3278V12.0537Z" fill="#11D9ED"/>
<path d="M24.782 45.1511H22.2362V47.6969H24.782V45.1511Z" fill="#11D9ED"/>
<path d="M24.782 42.6053H22.2362V45.1511H24.782V42.6053Z" fill="#11D9ED"/>
<path d="M24.782 40.057H22.2362V42.6053H24.782V40.057Z" fill="#11D9ED"/>
<path d="M24.782 37.5113H22.2362V40.057H24.782V37.5113Z" fill="#11D9ED"/>
<path d="M24.782 34.9655H22.2362V37.5113H24.782V34.9655Z" fill="#11D9ED"/>
<path d="M24.782 32.4198H22.2362V34.9655H24.782V32.4198Z" fill="#11D9ED"/>
<path d="M24.782 24.785H22.2362V27.3308H24.782V24.785Z" fill="#11D9ED"/>
<path d="M24.782 22.2393H22.2362V24.785H24.782V22.2393Z" fill="#11D9ED"/>
<path d="M24.782 19.691H22.2362V22.2393H24.782V19.691Z" fill="#11D9ED"/>
<path d="M24.782 17.1452H22.2362V19.691H24.782V17.1452Z" fill="#11D9ED"/>
<path d="M24.782 14.5994H22.2362V17.1452H24.782V14.5994Z" fill="#11D9ED"/>
<path d="M24.782 12.0537H22.2362V14.5994H24.782V12.0537Z" fill="#11D9ED"/>
<path d="M22.2362 42.6053H19.6905V45.1511L22.2362 45.1511V42.6053Z" fill="#11D9ED"/>
<path d="M22.2362 40.057H19.6905V42.6053H22.2362V40.057Z" fill="#11D9ED"/>
<path d="M22.2362 37.5113H19.6905V40.057H22.2362V37.5113Z" fill="#11D9ED"/>
<path d="M22.2362 34.9655H19.6905V37.5113H22.2362V34.9655Z" fill="#11D9ED"/>
<path d="M22.2362 32.4198H19.6905V34.9655H22.2362V32.4198Z" fill="#11D9ED"/>
<path d="M22.2362 24.785H19.6905V27.3308H22.2362V24.785Z" fill="#11D9ED"/>
<path d="M22.2362 22.2393H19.6905V24.785H22.2362V22.2393Z" fill="#11D9ED"/>
<path d="M22.2362 19.691H19.6905V22.2393H22.2362V19.691Z" fill="#11D9ED"/>
<path d="M22.2362 17.1452H19.6905V19.691H22.2362V17.1452Z" fill="#11D9ED"/>
<path d="M22.2362 14.5994H19.6905V17.1452H22.2362V14.5994Z" fill="#11D9ED"/>
<path d="M19.6905 42.6053H17.1447V45.1511H19.6905V42.6053Z" fill="#11D9ED"/>
<path d="M19.6905 40.057H17.1447V42.6053H19.6905V40.057Z" fill="#11D9ED"/>
<path d="M19.6905 37.5113H17.1447V40.057H19.6905V37.5113Z" fill="#11D9ED"/>
<path d="M19.6905 34.9655H17.1447V37.5113H19.6905V34.9655Z" fill="#11D9ED"/>
<path d="M19.6905 32.4198H17.1447V34.9655H19.6905V32.4198Z" fill="#11D9ED"/>
<path d="M19.6905 24.785H17.1447V27.3308H19.6905V24.785Z" fill="#11D9ED"/>
<path d="M19.6905 22.2393H17.1447V24.785H19.6905V22.2393Z" fill="#11D9ED"/>
<path d="M19.6905 19.691H17.1447V22.2393H19.6905V19.691Z" fill="#11D9ED"/>
<path d="M19.6905 17.1452H17.1447V19.691H19.6905V17.1452Z" fill="#11D9ED"/>
<path d="M19.6905 14.5994H17.1447V17.1452H19.6905V14.5994Z" fill="#11D9ED"/>
<path d="M17.1447 40.057H14.599V42.6053L17.1447 42.6053V40.057Z" fill="#11D9ED"/>
<path d="M17.1447 37.5113H14.599V40.057H17.1447V37.5113Z" fill="#11D9ED"/>
<path d="M17.1447 34.9655H14.599V37.5113H17.1447V34.9655Z" fill="#11D9ED"/>
<path d="M17.1447 32.4198H14.599V34.9655H17.1447V32.4198Z" fill="#11D9ED"/>
<path d="M17.1447 29.8765H14.599V32.4198H17.1447L17.1447 29.8765Z" fill="#11D9ED"/>
<path d="M17.1447 27.3308L14.599 27.3308V29.8765H17.1447L17.1447 27.3308Z" fill="#11D9ED"/>
<path d="M17.1447 24.785H14.599V27.3308L17.1447 27.3308V24.785Z" fill="#11D9ED"/>
<path d="M17.1447 22.2393H14.599V24.785H17.1447V22.2393Z" fill="#11D9ED"/>
<path d="M17.1447 19.691H14.599V22.2393H17.1447V19.691Z" fill="#11D9ED"/>
<path d="M17.1447 17.1452H14.599V19.691H17.1447V17.1452Z" fill="#11D9ED"/>
<path d="M14.599 34.9655H12.0532V37.5113L14.599 37.5113V34.9655Z" fill="#11D9ED"/>
<path d="M14.599 32.4198H12.0532V34.9655H14.599V32.4198Z" fill="#11D9ED"/>
<path d="M14.599 29.8765H12.0532V32.4198H14.599V29.8765Z" fill="#11D9ED"/>
<path d="M14.599 27.3308H12.0532V29.8765H14.599V27.3308Z" fill="#11D9ED"/>
<path d="M14.599 24.785H12.0532V27.3308H14.599V24.785Z" fill="#11D9ED"/>
<path d="M14.599 22.2393H12.0532V24.785H14.599V22.2393Z" fill="#11D9ED"/>
</svg>
