<svg width="60" height="60" viewBox="0 0 60 60" fill="none" xmlns="http://www.w3.org/2000/svg">
<path d="M44.9231 23.4377H41.5786V26.7821H44.9231V23.4377Z" fill="#11D9ED"/>
<path d="M41.5786 23.4377H38.2342V26.7821H41.5786V23.4377Z" fill="#11D9ED"/>
<path d="M41.5786 20.0899H38.2342V23.4377H41.5786L41.5786 20.0899Z" fill="#11D9ED"/>
<path d="M38.2342 20.0899H34.8898V23.4377L38.2342 23.4377V20.0899Z" fill="#11D9ED"/>
<path d="M38.2342 16.7455H34.8898V20.0899H38.2342L38.2342 16.7455Z" fill="#11D9ED"/>
<path d="M34.8898 46.8453H31.5454V50.1931H34.8898V46.8453Z" fill="#11D9ED"/>
<path d="M34.8898 40.1565H31.5454V43.5009H34.8898V40.1565Z" fill="#11D9ED"/>
<path d="M34.8898 33.471H31.5454V36.8121H34.8898V33.471Z" fill="#11D9ED"/>
<path d="M34.8898 30.1266H31.5454V33.471H34.8898V30.1266Z" fill="#11D9ED"/>
<path d="M34.8898 26.7821H31.5454V30.1266H34.8898V26.7821Z" fill="#11D9ED"/>
<path d="M34.8898 23.4377L31.5454 23.4377V26.7821H34.8898L34.8898 23.4377Z" fill="#11D9ED"/>
<path d="M34.8898 20.0899H31.5454V23.4377L34.8898 23.4377V20.0899Z" fill="#11D9ED"/>
<path d="M34.8898 16.7455H31.5454V20.0899H34.8898V16.7455Z" fill="#11D9ED"/>
<path d="M34.8898 13.4011H31.5454V16.7455H34.8898L34.8898 13.4011Z" fill="#11D9ED"/>
<path d="M31.5454 46.8453H28.201V50.1931H31.5454V46.8453Z" fill="#11D9ED"/>
<path d="M31.5454 40.1565H28.201V43.5009H31.5454V40.1565Z" fill="#11D9ED"/>
<path d="M31.5454 33.471H28.201V36.8121H31.5454V33.471Z" fill="#11D9ED"/>
<path d="M31.5454 30.1266H28.201V33.471H31.5454V30.1266Z" fill="#11D9ED"/>
<path d="M31.5454 26.7821H28.201V30.1266H31.5454V26.7821Z" fill="#11D9ED"/>
<path d="M31.5454 23.4377H28.201V26.7821H31.5454V23.4377Z" fill="#11D9ED"/>
<path d="M31.5454 20.0899H28.201V23.4377H31.5454V20.0899Z" fill="#11D9ED"/>
<path d="M31.5454 16.7455H28.201V20.0899H31.5454V16.7455Z" fill="#11D9ED"/>
<path d="M31.5454 13.4011H28.201V16.7455H31.5454V13.4011Z" fill="#11D9ED"/>
<path d="M31.5454 10.0566H28.201V13.4011H31.5454L31.5454 10.0566Z" fill="#11D9ED"/>
<path d="M28.201 46.8453H24.8565V50.1931H28.201V46.8453Z" fill="#11D9ED"/>
<path d="M28.201 40.1565H24.8565V43.5009H28.201V40.1565Z" fill="#11D9ED"/>
<path d="M28.201 33.471H24.8565V36.8121H28.201V33.471Z" fill="#11D9ED"/>
<path d="M28.201 30.1266H24.8565V33.471H28.201V30.1266Z" fill="#11D9ED"/>
<path d="M28.201 26.7821H24.8565V30.1266H28.201V26.7821Z" fill="#11D9ED"/>
<path d="M28.201 23.4377H24.8565V26.7821H28.201V23.4377Z" fill="#11D9ED"/>
<path d="M28.201 20.0899H24.8565V23.4377H28.201V20.0899Z" fill="#11D9ED"/>
<path d="M28.201 16.7455H24.8565V20.0899H28.201V16.7455Z" fill="#11D9ED"/>
<path d="M28.201 13.4011H24.8565V16.7455H28.201V13.4011Z" fill="#11D9ED"/>
<path d="M24.8565 20.0899H21.5121V23.4377L24.8565 23.4377V20.0899Z" fill="#11D9ED"/>
<path d="M38.2342 23.4344H34.8898L34.8898 26.7821L38.2342 26.7821L38.2342 23.4344Z" fill="#11D9ED"/>
<path d="M24.8565 23.4344H21.5121V26.7821L24.8565 26.7821L24.8565 23.4344Z" fill="#11D9ED"/>
<path d="M24.8565 16.7455H21.5121V20.0899H24.8565V16.7455Z" fill="#11D9ED"/>
<path d="M21.5121 23.4377L18.1677 23.4377V26.7821L21.5121 26.7821V23.4377Z" fill="#11D9ED"/>
<path d="M21.5121 20.0899H18.1677V23.4377L21.5121 23.4377V20.0899Z" fill="#11D9ED"/>
<path d="M18.1677 23.4377H14.8232V26.7821H18.1677V23.4377Z" fill="#11D9ED"/>
</svg>
