<svg width="60" height="60" viewBox="0 0 60 60" fill="none" xmlns="http://www.w3.org/2000/svg">
<path d="M45.1565 47.938H42.3778V50.7167H45.1565V47.938Z" fill="#11D9ED"/>
<path d="M45.1565 45.1593H42.3778V47.938H45.1565V45.1593Z" fill="#11D9ED"/>
<path d="M45.1565 42.3806H42.3778V45.1593H45.1565V42.3806Z" fill="#11D9ED"/>
<path d="M45.1565 39.6019H42.3778V42.3806H45.1565V39.6019Z" fill="#11D9ED"/>
<path d="M45.1565 36.8232H42.3778V39.6019H45.1565V36.8232Z" fill="#11D9ED"/>
<path d="M45.1565 34.0445H42.3778V36.8232H45.1565V34.0445Z" fill="#11D9ED"/>
<path d="M45.1565 31.2658H42.3778V34.0445H45.1565V31.2658Z" fill="#11D9ED"/>
<path d="M45.1565 28.4871H42.3778V31.2658H45.1565V28.4871Z" fill="#11D9ED"/>
<path d="M45.1565 25.7084H42.3778V28.4871H45.1565V25.7084Z" fill="#11D9ED"/>
<path d="M45.1565 22.9297H42.3778V25.7084H45.1565V22.9297Z" fill="#11D9ED"/>
<path d="M45.1565 20.1509H42.3778V22.9297H45.1565V20.1509Z" fill="#11D9ED"/>
<path d="M45.1565 17.3722H42.3778V20.1509H45.1565V17.3722Z" fill="#11D9ED"/>
<path d="M45.1565 14.5935H42.3778V17.3722H45.1565V14.5935Z" fill="#11D9ED"/>
<path d="M45.1565 11.8148H42.3778V14.5935H45.1565V11.8148Z" fill="#11D9ED"/>
<path d="M45.1565 9.03613H42.3778V11.8148H45.1565V9.03613Z" fill="#11D9ED"/>
<path d="M42.3778 47.938H39.5991V50.7167H42.3778V47.938Z" fill="#11D9ED"/>
<path d="M42.3778 9.03613H39.5991V11.8148L42.3778 11.8148V9.03613Z" fill="#11D9ED"/>
<path d="M39.5991 47.938H36.8204V50.7167H39.5991V47.938Z" fill="#11D9ED"/>
<path d="M39.5991 34.0445H36.8204V36.8232H39.5991V34.0445Z" fill="#11D9ED"/>
<path d="M39.5991 28.4871H36.8204V31.2658H39.5991V28.4871Z" fill="#11D9ED"/>
<path d="M39.5991 22.9297H36.8204V25.7084H39.5991V22.9297Z" fill="#11D9ED"/>
<path d="M39.5991 9.03613H36.8204V11.8148H39.5991V9.03613Z" fill="#11D9ED"/>
<path d="M36.8204 47.938H34.0417V50.7167H36.8204V47.938Z" fill="#11D9ED"/>
<path d="M36.8204 34.0445H34.0417V36.8232H36.8204V34.0445Z" fill="#11D9ED"/>
<path d="M36.8204 28.4871H34.0417V31.2658H36.8204V28.4871Z" fill="#11D9ED"/>
<path d="M36.8204 22.9297H34.0417V25.7084H36.8204V22.9297Z" fill="#11D9ED"/>
<path d="M36.8204 9.03613H34.0417V11.8148H36.8204V9.03613Z" fill="#11D9ED"/>
<path d="M34.0417 47.938H31.263V50.7167H34.0417V47.938Z" fill="#11D9ED"/>
<path d="M34.0417 34.0445H31.263V36.8232H34.0417V34.0445Z" fill="#11D9ED"/>
<path d="M34.0417 28.4871H31.263V31.2658H34.0417V28.4871Z" fill="#11D9ED"/>
<path d="M34.0417 22.9297H31.263V25.7084H34.0417V22.9297Z" fill="#11D9ED"/>
<path d="M34.0417 9.03613H31.263V11.8148H34.0417V9.03613Z" fill="#11D9ED"/>
<path d="M31.263 47.938H28.4843V50.7167H31.263V47.938Z" fill="#11D9ED"/>
<path d="M31.263 34.0445H28.4843V36.8232H31.263V34.0445Z" fill="#11D9ED"/>
<path d="M31.263 28.4871H28.4843V31.2658H31.263V28.4871Z" fill="#11D9ED"/>
<path d="M31.263 22.9297H28.4843V25.7084H31.263V22.9297Z" fill="#11D9ED"/>
<path d="M31.263 9.03613H28.4843V11.8148H31.263V9.03613Z" fill="#11D9ED"/>
<path d="M28.4843 47.938H25.7056V50.7167H28.4843V47.938Z" fill="#11D9ED"/>
<path d="M28.4843 34.0445H25.7056V36.8232H28.4843V34.0445Z" fill="#11D9ED"/>
<path d="M28.4843 28.4871H25.7056V31.2658H28.4843V28.4871Z" fill="#11D9ED"/>
<path d="M28.4843 22.9297H25.7056V25.7084H28.4843V22.9297Z" fill="#11D9ED"/>
<path d="M28.4843 9.03613H25.7056V11.8148H28.4843V9.03613Z" fill="#11D9ED"/>
<path d="M25.7056 47.938H22.9269V50.7167H25.7056V47.938Z" fill="#11D9ED"/>
<path d="M25.7056 34.0445H22.9269V36.8232H25.7056V34.0445Z" fill="#11D9ED"/>
<path d="M25.7056 28.4871H22.9269V31.2658H25.7056V28.4871Z" fill="#11D9ED"/>
<path d="M25.7056 22.9297H22.9269V25.7084H25.7056V22.9297Z" fill="#11D9ED"/>
<path d="M25.7056 17.3722H22.9269V20.1509H25.7056V17.3722Z" fill="#11D9ED"/>
<path d="M25.7056 14.5935H22.9269V17.3722H25.7056V14.5935Z" fill="#11D9ED"/>
<path d="M25.7056 11.8148L22.9269 11.8148V14.5935H25.7056L25.7056 11.8148Z" fill="#11D9ED"/>
<path d="M25.7056 9.03613H22.9269V11.8148L25.7056 11.8148V9.03613Z" fill="#11D9ED"/>
<path d="M22.9269 47.938H20.1482V50.7167H22.9269V47.938Z" fill="#11D9ED"/>
<path d="M22.9269 34.0445H20.1482V36.8232H22.9269V34.0445Z" fill="#11D9ED"/>
<path d="M22.9269 28.4871H20.1482V31.2658H22.9269V28.4871Z" fill="#11D9ED"/>
<path d="M22.9269 22.9297H20.1482V25.7084H22.9269V22.9297Z" fill="#11D9ED"/>
<path d="M22.9269 17.3722H20.1482V20.1509H22.9269V17.3722Z" fill="#11D9ED"/>
<path d="M22.9269 14.5935H20.1482V17.3722H22.9269V14.5935Z" fill="#11D9ED"/>
<path d="M22.9269 11.8148H20.1482V14.5935H22.9269V11.8148Z" fill="#11D9ED"/>
<path d="M20.1482 47.938H17.3695V50.7167H20.1482V47.938Z" fill="#11D9ED"/>
<path d="M20.1482 17.3722H17.3695V20.1509H20.1482V17.3722Z" fill="#11D9ED"/>
<path d="M20.1482 14.5935H17.3695V17.3722H20.1482V14.5935Z" fill="#11D9ED"/>
<path d="M17.3695 47.938H14.5908V50.7167H17.3695V47.938Z" fill="#11D9ED"/>
<path d="M17.3695 45.1593H14.5908V47.938H17.3695L17.3695 45.1593Z" fill="#11D9ED"/>
<path d="M17.3695 42.3806H14.5908V45.1593H17.3695V42.3806Z" fill="#11D9ED"/>
<path d="M17.3695 39.6019H14.5908V42.3806H17.3695V39.6019Z" fill="#11D9ED"/>
<path d="M17.3695 36.8232H14.5908V39.6019H17.3695V36.8232Z" fill="#11D9ED"/>
<path d="M17.3695 34.0445H14.5908V36.8232H17.3695V34.0445Z" fill="#11D9ED"/>
<path d="M17.3695 31.2658H14.5908V34.0445H17.3695V31.2658Z" fill="#11D9ED"/>
<path d="M17.3695 28.4871H14.5908V31.2658H17.3695V28.4871Z" fill="#11D9ED"/>
<path d="M17.3695 25.7084H14.5908V28.4871H17.3695V25.7084Z" fill="#11D9ED"/>
<path d="M17.3695 22.9297H14.5908V25.7084H17.3695V22.9297Z" fill="#11D9ED"/>
<path d="M17.3695 20.1509L14.5908 20.1509V22.9297H17.3695L17.3695 20.1509Z" fill="#11D9ED"/>
<path d="M17.3695 17.3722H14.5908V20.1509L17.3695 20.1509V17.3722Z" fill="#11D9ED"/>
</svg>
