<svg width="160" height="160" viewBox="0 0 160 160" fill="none" xmlns="http://www.w3.org/2000/svg">
<path d="M109.474 93.4742H101.088V101.86H109.474V93.4742Z" fill="#725BFF"/>
<path d="M109.474 76.7022H101.088V85.0882H109.474V76.7022Z" fill="#725BFF"/>
<path d="M109.474 59.9301H101.088V68.3161H109.474V59.9301Z" fill="#725BFF"/>
<path d="M101.088 93.4742H92.7022V101.86H101.088V93.4742Z" fill="#725BFF"/>
<path d="M101.088 76.7022H92.7022V85.0882H101.088V76.7022Z" fill="#725BFF"/>
<path d="M101.088 59.9301H92.7022V68.3161H101.088V59.9301Z" fill="#725BFF"/>
<path d="M92.7022 93.4742H84.3162V101.86H92.7022V93.4742Z" fill="#725BFF"/>
<path d="M92.7022 76.7022H84.3162V85.0882H92.7022V76.7022Z" fill="#725BFF"/>
<path d="M92.7022 59.9301H84.3162V68.3161H92.7022V59.9301Z" fill="#725BFF"/>
<path d="M84.3162 93.4742H75.9301V101.86H84.3162V93.4742Z" fill="#725BFF"/>
<path d="M84.3162 76.7022H75.9301V85.0882H84.3162V76.7022Z" fill="#725BFF"/>
<path d="M84.3162 59.9301H75.9301V68.3161H84.3162V59.9301Z" fill="#725BFF"/>
<path d="M75.9301 93.4742H67.5442V101.86H75.9301V93.4742Z" fill="#725BFF"/>
<path d="M75.9301 76.7022H67.5442V85.0882H75.9301V76.7022Z" fill="#725BFF"/>
<path d="M75.9301 59.9301H67.5442V68.3161H75.9301V59.9301Z" fill="#725BFF"/>
<path d="M67.5442 93.4742H59.1581V101.86H67.5442V93.4742Z" fill="#725BFF"/>
<path d="M67.5442 76.7022H59.1581V85.0882H67.5442V76.7022Z" fill="#725BFF"/>
<path d="M67.5442 59.9301H59.1581V68.3161H67.5442V59.9301Z" fill="#725BFF"/>
<path d="M59.1581 93.4742H50.7722V101.86H59.1581V93.4742Z" fill="#725BFF"/>
<path d="M59.1581 76.7022H50.7722V85.0882H59.1581V76.7022Z" fill="#725BFF"/>
<path d="M59.1581 59.9301L50.772 59.9301V68.3161L59.1581 68.3161V59.9301Z" fill="#725BFF"/>
<path d="M126.246 135.404H117.86V143.79H126.246V135.404Z" fill="#28E8A3"/>
<path d="M126.246 127.018H117.86V135.404H126.246V127.018Z" fill="#28E8A3"/>
<path d="M126.246 118.632H117.86V127.018H126.246V118.632Z" fill="#28E8A3"/>
<path d="M126.246 110.246H117.86V118.632H126.246V110.246Z" fill="#28E8A3"/>
<path d="M126.246 101.86H117.86V110.246H126.246V101.86Z" fill="#28E8A3"/>
<path d="M126.246 93.4742H117.86V101.86H126.246V93.4742Z" fill="#28E8A3"/>
<path d="M126.246 85.0882H117.86V93.4742H126.246V85.0882Z" fill="#28E8A3"/>
<path d="M126.246 76.7022H117.86V85.0882H126.246V76.7022Z" fill="#28E8A3"/>
<path d="M126.246 68.3161H117.86V76.7022H126.246V68.3161Z" fill="#28E8A3"/>
<path d="M126.246 59.9301H117.86V68.3161H126.246V59.9301Z" fill="#28E8A3"/>
<path d="M126.246 51.5441H117.86V59.9301H126.246V51.5441Z" fill="#28E8A3"/>
<path d="M126.246 43.1581H117.86V51.5441H126.246V43.1581Z" fill="#28E8A3"/>
<path d="M126.246 34.772H117.86V43.1581H126.246V34.772Z" fill="#28E8A3"/>
<path d="M126.246 26.386H117.86V34.772H126.246V26.386Z" fill="#28E8A3"/>
<path d="M126.246 18H117.86V26.386H126.246V18Z" fill="#28E8A3"/>
<path d="M117.86 135.404H109.474V143.79H117.86V135.404Z" fill="#28E8A3"/>
<path d="M117.86 18H109.474V26.386L117.86 26.386V18Z" fill="#28E8A3"/>
<path d="M109.474 135.404H101.088V143.79H109.474V135.404Z" fill="#28E8A3"/>
<path d="M109.474 18H101.088V26.386H109.474V18Z" fill="#28E8A3"/>
<path d="M101.088 135.404H92.7022V143.79H101.088V135.404Z" fill="#28E8A3"/>
<path d="M101.088 18H92.7022V26.386H101.088V18Z" fill="#28E8A3"/>
<path d="M92.7022 135.404H84.3161V143.79H92.7022V135.404Z" fill="#28E8A3"/>
<path d="M92.7022 18H84.3161V26.386H92.7022V18Z" fill="#28E8A3"/>
<path d="M84.3161 135.404H75.9301V143.79H84.3161V135.404Z" fill="#28E8A3"/>
<path d="M84.3161 18H75.9301V26.386H84.3161V18Z" fill="#28E8A3"/>
<path d="M75.9301 135.404H67.5441V143.79H75.9301V135.404Z" fill="#28E8A3"/>
<path d="M75.9301 18H67.5441V26.386H75.9301V18Z" fill="#28E8A3"/>
<path d="M67.5441 135.404H59.1581V143.79H67.5441V135.404Z" fill="#28E8A3"/>
<path d="M67.5441 43.1581H59.1581V51.5441H67.5441V43.1581Z" fill="#28E8A3"/>
<path d="M67.5441 34.772H59.1581V43.1581H67.5441V34.772Z" fill="#28E8A3"/>
<path d="M67.5441 26.386L59.1581 26.386V34.772H67.5441L67.5441 26.386Z" fill="#28E8A3"/>
<path d="M67.5441 18H59.1581V26.386L67.5441 26.386V18Z" fill="#28E8A3"/>
<path d="M59.1581 135.404H50.772V143.79H59.1581V135.404Z" fill="#28E8A3"/>
<path d="M59.1581 43.1581H50.772V51.5441H59.1581V43.1581Z" fill="#28E8A3"/>
<path d="M59.1581 34.772H50.772V43.1581H59.1581V34.772Z" fill="#28E8A3"/>
<path d="M59.1581 26.386H50.772V34.772H59.1581V26.386Z" fill="#28E8A3"/>
<path d="M50.772 135.404H42.3861V143.79H50.772V135.404Z" fill="#28E8A3"/>
<path d="M50.772 43.1581H42.3861V51.5441H50.772V43.1581Z" fill="#28E8A3"/>
<path d="M50.772 34.772H42.3861V43.1581H50.772V34.772Z" fill="#28E8A3"/>
<path d="M42.3861 135.404H34V143.79H42.3861V135.404Z" fill="#28E8A3"/>
<path d="M42.386 127.018H34V135.404H42.3861L42.386 127.018Z" fill="#28E8A3"/>
<path d="M42.386 118.632H34V127.018H42.386V118.632Z" fill="#28E8A3"/>
<path d="M42.386 110.246H34V118.632H42.386V110.246Z" fill="#28E8A3"/>
<path d="M42.386 101.86H34V110.246H42.386V101.86Z" fill="#28E8A3"/>
<path d="M42.386 93.4742H34V101.86H42.386V93.4742Z" fill="#28E8A3"/>
<path d="M42.386 85.0882H34V93.4742H42.386V85.0882Z" fill="#28E8A3"/>
<path d="M42.386 76.7022H34V85.0882H42.386V76.7022Z" fill="#28E8A3"/>
<path d="M42.386 68.3161H34V76.7022H42.386V68.3161Z" fill="#28E8A3"/>
<path d="M42.386 59.9301H34V68.3161H42.386V59.9301Z" fill="#28E8A3"/>
<path d="M42.3861 51.5441L34 51.5441V59.9301H42.386L42.3861 51.5441Z" fill="#28E8A3"/>
<path d="M42.3861 43.1581H34V51.5441L42.3861 51.5441V43.1581Z" fill="#28E8A3"/>
</svg>
