<svg width="120" height="121" viewBox="0 0 120 121" fill="none" xmlns="http://www.w3.org/2000/svg">
<path d="M85.2667 31.6693H78.9023V38.0337H85.2667V31.6693Z" fill="#725BFF"/>
<path d="M85.2667 25.305H78.9023V31.6693H85.2667V25.305Z" fill="#725BFF"/>
<path d="M78.9023 38.0337H72.5379V44.3981H78.9023L78.9023 38.0337Z" fill="#725BFF"/>
<path d="M78.9023 31.6693H72.5379V38.0337H78.9023V31.6693Z" fill="#725BFF"/>
<path d="M78.9023 25.305H72.5379V31.6693H78.9023V25.305Z" fill="#725BFF"/>
<path d="M78.9023 18.9406H72.5379V25.305H78.9023L78.9023 18.9406Z" fill="#725BFF"/>
<path d="M72.5379 44.3981L66.1735 44.3981V50.7625H72.5379L72.5379 44.3981Z" fill="#725BFF"/>
<path d="M72.5379 38.0337H66.1735V44.3981L72.5379 44.3981V38.0337Z" fill="#725BFF"/>
<path d="M72.5379 18.9406H66.1735V25.305H72.5379V18.9406Z" fill="#725BFF"/>
<path d="M72.5379 12.5762H66.1735V18.9406H72.5379L72.5379 12.5762Z" fill="#725BFF"/>
<path d="M66.1735 101.678H59.8091V108.042H66.1735V101.678Z" fill="#725BFF"/>
<path d="M66.1735 95.3133H59.8091V101.678H66.1735V95.3133Z" fill="#725BFF"/>
<path d="M66.1735 88.9489H59.8091V95.3133H66.1735V88.9489Z" fill="#725BFF"/>
<path d="M66.1735 82.5845H59.8091V88.9489H66.1735V82.5845Z" fill="#725BFF"/>
<path d="M66.1735 76.2201H59.8091V82.5845H66.1735V76.2201Z" fill="#725BFF"/>
<path d="M66.1735 69.8557H59.8091V76.2201H66.1735V69.8557Z" fill="#725BFF"/>
<path d="M66.1735 63.4913H59.8091V69.8557H66.1735V63.4913Z" fill="#725BFF"/>
<path d="M66.1735 57.1269H59.8091V63.4913H66.1735V57.1269Z" fill="#725BFF"/>
<path d="M66.1735 50.7625H59.8091V57.1269H66.1735L66.1735 50.7625Z" fill="#725BFF"/>
<path d="M66.1735 44.3981H59.8091V50.7625H66.1735V44.3981Z" fill="#725BFF"/>
<path d="M66.1735 38.0337H59.8091V44.3981H66.1735V38.0337Z" fill="#725BFF"/>
<path d="M66.1735 18.9406H59.8091V25.305H66.1735V18.9406Z" fill="#725BFF"/>
<path d="M66.1735 12.5762H59.8091V18.9406H66.1735V12.5762Z" fill="#725BFF"/>
<path d="M59.8091 101.678H53.4447V108.042H59.8091V101.678Z" fill="#725BFF"/>
<path d="M59.8091 95.3133H53.4447V101.678H59.8091V95.3133Z" fill="#725BFF"/>
<path d="M59.8091 88.9489H53.4447V95.3133H59.8091V88.9489Z" fill="#725BFF"/>
<path d="M59.8091 82.5845H53.4447V88.9489H59.8091V82.5845Z" fill="#725BFF"/>
<path d="M59.8091 76.2201H53.4447V82.5845H59.8091V76.2201Z" fill="#725BFF"/>
<path d="M59.8091 69.8557H53.4447V76.2201H59.8091V69.8557Z" fill="#725BFF"/>
<path d="M59.8091 63.4913H53.4447V69.8557H59.8091V63.4913Z" fill="#725BFF"/>
<path d="M59.8091 57.1269H53.4447V63.4913H59.8091V57.1269Z" fill="#725BFF"/>
<path d="M59.8091 50.7625H53.4447V57.1269H59.8091V50.7625Z" fill="#725BFF"/>
<path d="M59.8091 44.3981H53.4447V50.7625H59.8091V44.3981Z" fill="#725BFF"/>
<path d="M59.8091 38.0337H53.4447V44.3981H59.8091V38.0337Z" fill="#725BFF"/>
<path d="M59.8091 18.9406H53.4447V25.305H59.8091V18.9406Z" fill="#725BFF"/>
<path d="M59.8091 12.5762H53.4447V18.9406H59.8091V12.5762Z" fill="#725BFF"/>
<path d="M53.4447 95.3133H47.0803V101.678H53.4447V95.3133Z" fill="#725BFF"/>
<path d="M53.4447 88.9489H47.0803V95.3133H53.4447V88.9489Z" fill="#725BFF"/>
<path d="M53.4447 82.5845H47.0803V88.9489H53.4447V82.5845Z" fill="#725BFF"/>
<path d="M53.4447 44.3981H47.0803V50.7625H53.4447V44.3981Z" fill="#725BFF"/>
<path d="M53.4447 38.0337H47.0803V44.3981H53.4447V38.0337Z" fill="#725BFF"/>
<path d="M53.4447 18.9406H47.0803V25.305H53.4447V18.9406Z" fill="#725BFF"/>
<path d="M53.4447 12.5762H47.0803V18.9406H53.4447V12.5762Z" fill="#725BFF"/>
<path d="M47.0803 95.3133H40.716V101.678H47.0803V95.3133Z" fill="#725BFF"/>
<path d="M47.0803 82.5845H40.716V88.9489H47.0803V82.5845Z" fill="#725BFF"/>
<path d="M47.0803 38.0337H40.716V44.3981L47.0803 44.3981V38.0337Z" fill="#725BFF"/>
<path d="M47.0803 31.6693H40.716V38.0337H47.0803L47.0803 31.6693Z" fill="#725BFF"/>
<path d="M47.0803 25.305H40.716V31.6693H47.0803L47.0803 25.305Z" fill="#725BFF"/>
<path d="M47.0803 18.9406H40.716V25.305H47.0803V18.9406Z" fill="#725BFF"/>
<path d="M40.716 31.6693H34.3516V38.0337H40.716V31.6693Z" fill="#725BFF"/>
<path d="M40.716 25.305H34.3516V31.6693H40.716V25.305Z" fill="#725BFF"/>
</svg>
