<svg width="318" height="58" viewBox="0 0 318 58" fill="none" xmlns="http://www.w3.org/2000/svg">
<path d="M0.539551 47.5227V26.9999H4.61598L11.0657 40.1363L17.4858 26.9999H21.6215V47.5227H18.6595V30.7542L11.0361 46.0565L3.38306 30.7542V47.5227H0.539551Z" fill="#DCE4EF"/>
<path d="M42.8737 41.5136L45.2507 47.5227H48.5903L40.1783 26.9999H36.572L28.0971 47.5227H31.2923L33.6693 41.5136L34.6949 38.9626L38.3011 29.9322L41.8777 38.9626L42.8737 41.5136Z" fill="#DCE4EF"/>
<path d="M110.159 41.5136L112.532 47.5227H115.875L107.463 26.9999H103.857L95.3822 47.5227H98.5774L100.954 41.5136L101.98 38.9626L105.586 29.9322L109.163 38.9626L110.159 41.5136Z" fill="#DCE4EF"/>
<path d="M55.1289 47.5227V26.9999H64.3925C65.7587 26.9999 66.9583 27.2554 67.9839 27.7626C69.0094 28.2698 69.8129 28.9807 70.3868 29.8878C70.9644 30.7949 71.2532 31.8649 71.2532 33.0978C71.2532 34.427 70.8681 35.5859 70.0943 36.5708C69.3205 37.5593 68.3097 38.2554 67.0582 38.6664L71.6012 47.519H68.1727L63.9519 39.1033H58.2056V47.519H55.1289V47.5227ZM58.2056 36.5301H64.1555C65.3662 36.5301 66.3363 36.2228 67.0582 35.6081C67.7802 34.9935 68.1431 34.1568 68.1431 33.1016C68.1431 32.0464 67.7802 31.2392 67.0582 30.6246C66.3363 30.01 65.3662 29.7027 64.1555 29.7027H58.2056V36.5338V36.5301Z" fill="#DCE4EF"/>
<path d="M83.9193 47.5227V29.7286H76.7069V27.0036H94.2085V29.7286H86.9961V47.5227H83.9193Z" fill="#DCE4EF"/>
<path d="M208.645 48.9408V31.1466H201.432V28.4216H218.934V31.1466H211.721V48.9408H208.645Z" fill="#DCE4EF"/>
<path d="M234.299 49.2629C232.833 49.2629 231.452 48.9926 230.152 48.4557C228.853 47.9189 227.712 47.1673 226.735 46.1972C225.757 45.2309 224.998 44.1053 224.462 42.8243C223.925 41.5432 223.654 40.1622 223.654 38.6738C223.654 37.1854 223.921 35.8044 224.462 34.527C224.998 33.246 225.757 32.1241 226.735 31.154C227.712 30.1877 228.849 29.4361 230.152 28.8955C231.452 28.3587 232.837 28.0884 234.299 28.0884C235.762 28.0884 237.206 28.3587 238.505 28.8955C239.805 29.4324 240.941 30.184 241.919 31.154C242.896 32.1204 243.659 33.246 244.207 34.527C244.755 35.8081 245.029 37.1891 245.029 38.6738C245.029 40.1585 244.755 41.5432 244.207 42.8243C243.659 44.1053 242.896 45.2272 241.919 46.1972C240.941 47.1636 239.805 47.9189 238.505 48.4557C237.206 48.9926 235.802 49.2629 234.299 49.2629ZM234.358 46.4194C235.414 46.4194 236.395 46.2231 237.305 45.8344C238.216 45.4419 239.016 44.9013 239.708 44.2053C240.401 43.5129 240.941 42.691 241.323 41.7431C241.704 40.7953 241.893 39.7734 241.893 38.6812C241.893 37.589 241.697 36.5671 241.308 35.6192C240.915 34.6714 240.379 33.8495 239.694 33.1571C239.009 32.4647 238.213 31.9205 237.305 31.528C236.398 31.1392 235.406 30.943 234.329 30.943C233.251 30.943 232.285 31.1392 231.367 31.528C230.449 31.9205 229.645 32.461 228.964 33.1571C228.279 33.8495 227.746 34.6714 227.364 35.6192C226.983 36.5671 226.794 37.589 226.794 38.6812C226.794 39.7734 226.983 40.7953 227.364 41.7431C227.746 42.691 228.279 43.5129 228.964 44.2053C229.649 44.8976 230.456 45.4419 231.382 45.8344C232.311 46.2268 233.303 46.4194 234.358 46.4194Z" fill="#DCE4EF"/>
<path d="M301.562 48.9408V28.4179H316.69V31.117H304.642V37.2743H312.499V39.8845H304.642V46.2453H316.809V48.9408H301.562Z" fill="#DCE4EF"/>
<path d="M251.949 48.9408V28.4179H261.212C262.579 28.4179 263.778 28.6734 264.804 29.1806C265.829 29.6879 266.633 30.3987 267.207 31.3059C267.784 32.213 268.073 33.283 268.073 34.5159C268.073 35.8451 267.688 37.004 266.914 37.9888C266.14 38.9774 265.13 39.6734 263.878 40.0844L268.421 48.9371H264.993L260.772 40.5213H255.026V48.9371H251.949V48.9408ZM255.026 37.9481H260.975C262.186 37.9481 263.156 37.6408 263.878 37.0262C264.6 36.4116 264.963 35.5748 264.963 34.5196C264.963 33.4644 264.6 32.6573 263.878 32.0427C263.156 31.428 262.186 31.1207 260.975 31.1207H255.026V37.9518V37.9481Z" fill="#DCE4EF"/>
<path d="M276.929 48.9408V28.4179H286.193C287.559 28.4179 288.759 28.6734 289.784 29.1806C290.81 29.6879 291.613 30.3987 292.187 31.3059C292.765 32.213 293.054 33.283 293.054 34.5159C293.054 35.8451 292.669 37.004 291.895 37.9888C291.121 38.9774 290.11 39.6734 288.859 40.0844L293.402 48.9371H289.973L285.752 40.5213H280.006V48.9371H276.929V48.9408ZM280.006 37.9481H285.956C287.167 37.9481 288.137 37.6408 288.859 37.0262C289.581 36.4116 289.944 35.5748 289.944 34.5196C289.944 33.4644 289.581 32.6573 288.859 32.0427C288.137 31.428 287.167 31.1207 285.956 31.1207H280.006V37.9518V37.9481Z" fill="#DCE4EF"/>
<path d="M135.362 13.9375C138.856 13.9375 141.689 11.1046 141.689 7.61C141.689 4.1154 138.856 1.28247 135.362 1.28247C131.867 1.28247 129.034 4.1154 129.034 7.61C129.034 11.1046 131.867 13.9375 135.362 13.9375Z" fill="#DCE4EF"/>
<path d="M180.298 13.9375C183.793 13.9375 186.626 11.1046 186.626 7.61C186.626 4.1154 183.793 1.28247 180.298 1.28247C176.804 1.28247 173.971 4.1154 173.971 7.61C173.971 11.1046 176.804 13.9375 180.298 13.9375Z" fill="#DCE4EF"/>
<path d="M143.426 36.5782L141.008 34.1642L141.034 19.6912L150.675 29.3324L143.426 36.5782Z" fill="#725BFF"/>
<path d="M172.42 36.5782L174.789 34.2086L174.808 19.6912L165.17 29.3287L172.42 36.5782Z" fill="#FF7480"/>
<path d="M165.169 43.8284L157.92 36.5791L150.67 43.8284L157.92 51.0778L165.169 43.8284Z" fill="#28E8A3"/>
<path d="M172.419 36.579L165.169 29.3296L157.92 36.5791L165.169 43.8284L172.419 36.579Z" fill="#FBCE13"/>
<path d="M157.923 36.5789L150.674 29.3295L143.425 36.5789L150.674 43.8282L157.923 36.5789Z" fill="#11D9ED"/>
<path d="M185.811 19.6912H174.789V56.2939H185.811V19.6912Z" fill="#DCE4EF"/>
<path d="M141.008 19.6912H129.986V56.2939H141.008V19.6912Z" fill="#DCE4EF"/>
</svg>
