<svg width="100" height="100" viewBox="0 0 100 100" fill="none" xmlns="http://www.w3.org/2000/svg">
<path d="M19.591 29.7895C24.3509 29.7895 28.2095 25.9309 28.2095 21.1711C28.2095 16.4113 24.3509 12.5527 19.591 12.5527C14.8312 12.5527 10.9727 16.4113 10.9727 21.1711C10.9727 25.9309 14.8312 29.7895 19.591 29.7895Z" fill="#DCE4EF"/>
<path d="M80.7765 29.7896C85.5363 29.7896 89.3949 25.931 89.3949 21.1712C89.3949 16.4114 85.5363 12.5528 80.7765 12.5528C76.0167 12.5528 72.1581 16.4114 72.1581 21.1712C72.1581 25.931 76.0167 29.7896 80.7765 29.7896Z" fill="#DCE4EF"/>
<path d="M30.5782 60.5839L27.3022 57.3079V37.6015L40.4567 50.7559L30.5782 60.5839Z" fill="#725BFF"/>
<path d="M70.0414 60.5839L73.2669 57.3583L73.3174 37.6015L60.1629 50.7559L70.0414 60.5839Z" fill="#FF7480"/>
<path d="M50.3139 60.6121L40.4422 70.4838L50.3139 80.3555L60.1856 70.4838L50.3139 60.6121Z" fill="#28E8A3"/>
<path d="M60.1837 50.7262L50.312 60.5979L60.1837 70.4695L70.0554 60.5979L60.1837 50.7262Z" fill="#FBCE13"/>
<path d="M40.4316 50.7437L30.5599 60.6154L40.4316 70.4871L50.3033 60.6154L40.4316 50.7437Z" fill="#11D9ED"/>
<path d="M88.2861 37.6015H73.267V87.4471H88.2861V37.6015Z" fill="#DCE4EF"/>
<path d="M27.3022 37.6015H12.283V87.4471H27.3022L27.3022 37.6015Z" fill="#DCE4EF"/>
</svg>
