<svg width="120" height="121" viewBox="0 0 120 121" fill="none" xmlns="http://www.w3.org/2000/svg">
<path d="M91.3647 62.0896H85.15V68.298H91.3647V62.0896Z" fill="#725BFF"/>
<path d="M91.3647 55.875H85.15V62.0896H91.3647V55.875Z" fill="#725BFF"/>
<path d="M91.3647 24.7893H85.15V31.004H91.3647V24.7893Z" fill="#725BFF"/>
<path d="M91.3647 18.5747H85.15V24.7893H91.3647V18.5747Z" fill="#725BFF"/>
<path d="M85.15 68.2918H78.9354V74.5065H85.15V68.2918Z" fill="#725BFF"/>
<path d="M85.15 55.875H78.9354V62.0896H85.15V55.875Z" fill="#725BFF"/>
<path d="M85.15 31.004L78.9354 31.004V37.2186H85.15L85.15 31.004Z" fill="#725BFF"/>
<path d="M85.15 18.5747H78.9354V24.7893L85.15 24.7893V18.5747Z" fill="#725BFF"/>
<path d="M78.9354 74.5065L72.7208 74.5065V80.7211H78.9354V74.5065Z" fill="#725BFF"/>
<path d="M78.9354 55.875H72.7208V62.0896H78.9354V55.875Z" fill="#725BFF"/>
<path d="M78.9354 37.2186L72.7208 37.2186V43.4395H78.9354V37.2186Z" fill="#725BFF"/>
<path d="M78.9354 18.5747H72.7208V24.7893H78.9354V18.5747Z" fill="#725BFF"/>
<path d="M72.7208 80.7211L66.5061 80.7211V86.9358H72.7208L72.7208 80.7211Z" fill="#725BFF"/>
<path d="M72.7208 55.875H66.5061V62.0896H72.7208V55.875Z" fill="#725BFF"/>
<path d="M72.7208 43.4457H66.5061V49.6603H72.7208V43.4457Z" fill="#725BFF"/>
<path d="M72.7208 18.5747H66.5061V24.7893H72.7208V18.5747Z" fill="#725BFF"/>
<path d="M66.5061 86.9358H60.2915V93.1566H66.5061L66.5061 86.9358Z" fill="#725BFF"/>
<path d="M66.5061 55.875H60.2915V62.0896H66.5061V55.875Z" fill="#725BFF"/>
<path d="M66.5061 49.6603H60.2915V55.875H66.5061V49.6603Z" fill="#725BFF"/>
<path d="M66.5061 18.5747H60.2915V24.7893H66.5061V18.5747Z" fill="#725BFF"/>
<path d="M60.2915 93.1628H54.0768V99.3775H60.2915V93.1628Z" fill="#725BFF"/>
<path d="M60.2915 74.5065H54.0768V80.7211H60.2915V74.5065Z" fill="#725BFF"/>
<path d="M60.2915 55.875H54.0768V62.0896H60.2915V55.875Z" fill="#725BFF"/>
<path d="M60.2915 18.5747H54.0768V24.7893H60.2915V18.5747Z" fill="#725BFF"/>
<path d="M54.0768 99.3775L47.8622 99.3775V105.592H54.0768V99.3775Z" fill="#725BFF"/>
<path d="M54.0768 80.7211L47.8622 80.7211V86.9358H54.0768V80.7211Z" fill="#725BFF"/>
<path d="M54.0768 74.5065H47.8622V80.7211L54.0768 80.7211V74.5065Z" fill="#725BFF"/>
<path d="M54.0768 18.5747H47.8622V24.7893H54.0768V18.5747Z" fill="#725BFF"/>
<path d="M47.8622 105.592L41.6475 105.592V111.801H47.8622L47.8622 105.592Z" fill="#725BFF"/>
<path d="M47.8622 93.1628H41.6475V99.3775L47.8622 99.3775L47.8622 93.1628Z" fill="#725BFF"/>
<path d="M47.8622 86.9358H41.6475V93.1566H47.8622L47.8622 86.9358Z" fill="#725BFF"/>
<path d="M47.8622 74.5065H41.6475V80.7211L47.8622 80.7211V74.5065Z" fill="#725BFF"/>
<path d="M47.8622 37.2186H41.6475V43.4395H47.8622V37.2186Z" fill="#725BFF"/>
<path d="M47.8622 31.004H41.6475V37.2186H47.8622V31.004Z" fill="#725BFF"/>
<path d="M47.8622 24.7893L41.6475 24.7893V31.004H47.8622L47.8622 24.7893Z" fill="#725BFF"/>
<path d="M41.6475 105.592H35.4329V111.801H41.6475V105.592Z" fill="#725BFF"/>
<path d="M41.6475 99.3775L35.4329 99.3775V105.592H41.6475V99.3775Z" fill="#725BFF"/>
<path d="M41.6475 74.5065H35.4329V80.7211H41.6475V74.5065Z" fill="#725BFF"/>
<path d="M41.6475 55.875H35.4329V62.0896H41.6475V55.875Z" fill="#725BFF"/>
<path d="M41.6475 49.6603H35.4329V55.875H41.6475V49.6603Z" fill="#725BFF"/>
<path d="M41.6475 43.4457H35.4329V49.6603H41.6475V43.4457Z" fill="#725BFF"/>
<path d="M35.4329 74.5065H29.2183V80.7211H35.4329V74.5065Z" fill="#725BFF"/>
<path d="M35.4329 68.2918H29.2183V74.5065H35.4329L35.4329 68.2918Z" fill="#725BFF"/>
<path d="M35.4329 62.0896H29.2183V68.298H35.4329L35.4329 62.0896Z" fill="#725BFF"/>
</svg>
